<svg width="298" height="206" viewBox="0 0 298 206" fill="none" xmlns="http://www.w3.org/2000/svg">
<path style="mix-blend-mode:multiply" d="M196.136 67.2115C148.021 49.3535 95.9067 68.7001 95.9067 68.7001V17.0575C95.9067 17.0575 150.392 -0.933865 196.136 15.5689V67.2115Z" fill="url(#paint0_linear_1181_2406)"/>
<path d="M101.912 33.1081V23.073C101.912 23.073 107.479 21.0397 115.606 19.667" stroke="#BBCBFF" stroke-width="3.79" stroke-miterlimit="10"/>
<path d="M182.561 19.4353C182.561 19.4353 187.587 20.5033 189.541 21.4794V24.5675" stroke="#BBCBFF" stroke-width="3.79" stroke-miterlimit="10"/>
<path d="M146.718 143.926L176.084 136.8C177.94 136.35 179.882 136.391 181.717 136.921L187.292 138.53L146.718 152.668V143.925V143.926Z" fill="url(#paint1_linear_1181_2406)"/>
<path d="M147.098 150.459L189.289 136.209C192.005 135.319 194.943 136.709 195.977 139.373C196.389 140.436 195.972 141.641 194.992 142.223L146.782 170.826C144.564 172.142 141.984 172.714 139.417 172.46L118.828 170.423C116.498 170.192 114.178 170.952 112.436 172.517L90.3228 192.383L61.2874 168.107L92.1932 141.852C93.9054 140.397 95.9026 139.317 98.0579 138.68L111.966 134.568C113.704 134.054 115.541 133.969 117.32 134.318L143.908 139.544C146.846 140.122 149.238 142.251 150.151 145.102L150.194 145.234C151.073 147.981 148.915 150.723 146.061 150.515C137.637 149.901 123.266 148.855 123.266 148.855" fill="white"/>
<path d="M150.15 145.102L150.193 145.235C151.072 147.982 148.914 150.723 146.06 150.515C137.637 149.901 123.266 148.855 123.266 148.855" stroke="#4657E3" stroke-width="6.32" stroke-linecap="round" stroke-linejoin="round"/>
<path d="M156.437 147.305L179.981 139.353" stroke="#4657E3" stroke-width="6.32" stroke-linecap="round" stroke-linejoin="round"/>
<path d="M69.7018 160.961C69.7018 160.961 90.9465 181.168 108.402 176.143L98.217 185.293L65.9502 164.148L69.7026 160.961H69.7018Z" fill="url(#paint2_linear_1181_2406)"/>
<path d="M65.9494 162.23L99.9748 186.446L79.7141 206L49.2946 174.527L65.9494 162.23Z" fill="url(#paint3_linear_1181_2406)"/>
<path d="M188.37 33.9376L145.597 71.2549L157.092 17.752C169.198 19.8292 180.033 25.632 188.37 33.9384V33.9376Z" fill="url(#paint4_linear_1181_2406)"/>
<path d="M138.311 74.8184L184.96 108.434C175.215 118.855 161.338 125.369 145.94 125.369C116.446 125.369 92.5378 101.471 92.5378 71.9944C92.5378 42.5174 116.446 18.6206 145.94 18.6206C146.929 18.6206 147.911 18.6479 148.887 18.7001L138.311 74.8184Z" fill="url(#paint5_linear_1181_2406)"/>
<path d="M203.404 74.7678C202.921 85.4297 199.583 95.2876 194.16 103.636L147.91 73.7901L194.951 41.9263C200.796 51.4514 203.948 62.7648 203.404 74.767V74.7678Z" fill="url(#paint6_linear_1181_2406)"/>
<g opacity="0.5">
<path d="M35.2954 92.1912H30.7668V105.932H35.2954V92.1912Z" fill="#7892FF"/>
<path d="M35.2075 92.2774V105.844H30.8529V92.2774H35.2075ZM35.3815 92.1035H30.6797V106.017H35.3815V92.1035Z" fill="white"/>
</g>
<g opacity="0.5">
<path d="M41.8651 95.3098H37.3365V105.931H41.8651V95.3098Z" fill="#7892FF"/>
<path d="M41.7781 95.397V105.845H37.4234V95.397H41.7781ZM41.952 95.2231H37.2503V106.018H41.952V95.2231Z" fill="white"/>
</g>
<g opacity="0.5">
<path d="M48.4355 90.835H43.9069V105.932H48.4355V90.835Z" fill="#7892FF"/>
<path d="M48.3485 90.9212V105.844H43.9939V90.9212H48.3485ZM48.5225 90.7473H43.8207V106.017H48.5225V90.7473Z" fill="white"/>
</g>
<g opacity="0.5">
<path d="M55.006 87.8513H50.4774V105.932H55.006V87.8513Z" fill="#7892FF"/>
<path d="M54.9181 87.9373V105.844H50.5635V87.9373H54.9181ZM55.0921 87.7634H50.3904V106.017H55.0921V87.7634Z" fill="white"/>
</g>
<g opacity="0.5">
<path d="M61.5757 83.2397H57.0471V105.931H61.5757V83.2397Z" fill="#7892FF"/>
<path d="M61.4887 83.3269V105.845H57.1341V83.3269H61.4887ZM61.6627 83.1531H56.9609V106.018H61.6627V83.1531Z" fill="white"/>
</g>
<g opacity="0.5">
<path d="M45.8419 163.006C45.6307 163.07 45.4038 163.074 45.166 163.015C33.0091 159.871 22.1461 153.612 12.5016 145.667C11.7934 145.083 11.1489 143.981 11.1067 143.046V131.481C11.1067 130.921 11.4223 130.663 11.9135 130.813C12.1247 130.878 12.3517 131.012 12.5894 131.21C22.2372 139.139 33.1011 145.383 45.2538 148.507C46.025 148.697 46.6488 149.476 46.6488 150.266V161.831C46.6488 162.391 46.3332 162.856 45.8419 163.007V163.006Z" fill="#7892FF"/>
<path d="M11.9127 130.908C12.1007 130.966 12.3161 131.089 12.5447 131.28C22.1908 139.217 33.0547 145.469 45.2091 148.603C45.9546 148.787 46.5551 149.536 46.5551 150.295V161.86C46.5551 162.386 46.266 162.781 45.8411 162.91C45.6531 162.968 45.4377 162.974 45.2091 162.918C33.0538 159.784 22.1908 153.533 12.5447 145.596C11.8621 145.035 11.2392 143.975 11.1986 143.075V131.509C11.1986 130.983 11.4877 130.777 11.9127 130.907M11.9127 130.717C11.3651 130.549 11.0131 130.832 11.0131 131.449V143.014C11.0503 143.986 11.7188 145.133 12.4569 145.736C22.1005 153.689 32.9635 159.957 45.1213 163.11C45.3723 163.172 45.6141 163.169 45.8411 163.099C46.3886 162.931 46.7407 162.416 46.7407 161.799C46.7407 157.945 46.7407 154.089 46.7407 150.234C46.7407 149.399 46.1087 148.608 45.2969 148.409C33.145 145.294 22.2811 139.059 12.6325 131.138C12.3815 130.928 12.1396 130.787 11.9127 130.717Z" fill="white"/>
</g>
<path d="M19.3463 145.581C19.2187 145.024 19.1549 144.746 19.0274 144.188C19.0075 144.104 18.9984 144.061 18.9785 143.977C19.1972 144.016 19.3471 143.891 19.3471 143.626C19.3471 143.246 19.0381 142.723 18.6579 142.453C18.2777 142.183 17.9696 142.267 17.9696 142.647C17.9696 142.911 18.1187 143.249 18.3373 143.521C18.3175 143.577 18.3084 143.606 18.2885 143.662C18.1808 143.982 18.1269 144.142 18.0201 144.46C17.9961 144.53 17.9845 144.564 17.9604 144.633C17.9994 144.729 18.0714 144.828 18.1576 144.89C18.3572 145.034 18.4575 145.105 18.6579 145.248C18.8584 145.39 18.9578 145.461 19.1582 145.601C19.2444 145.662 19.3173 145.666 19.3562 145.625C19.3521 145.607 19.3496 145.598 19.3455 145.581L19.3463 145.581Z" fill="#2534C1"/>
<g opacity="0.5">
<path d="M21.0883 148.275C19.4713 147.185 17.8867 146.059 16.3236 144.892C15.8672 144.547 15.4977 143.887 15.4977 143.428V137.374C15.4977 136.594 16.1281 136.447 16.9059 137.027C18.0905 137.899 19.2866 138.749 20.5002 139.579C21.2854 140.109 21.9258 141.159 21.9258 141.939V142.481C21.8495 142.431 21.8114 142.406 21.7344 142.357V141.815C21.7344 141.139 21.1802 140.228 20.5002 139.769C19.2866 138.937 18.0905 138.088 16.9059 137.217C16.2317 136.715 15.6858 136.843 15.6858 137.519V139.167C17.4527 140.509 19.2485 141.797 21.0891 143.037C21.5505 143.344 21.9266 143.96 21.9266 144.418V147.992C21.9266 148.451 21.5505 148.581 21.0891 148.274L21.0883 148.275ZM15.6849 139.357V143.573C15.6849 143.927 15.9707 144.436 16.3228 144.702C17.8859 145.869 19.4705 146.996 21.0875 148.086C21.4436 148.323 21.7336 148.223 21.7336 147.869V144.295C21.7336 143.941 21.4436 143.464 21.0875 143.228C19.2477 141.988 17.451 140.699 15.6841 139.357H15.6849Z" fill="white"/>
</g>
<g opacity="0.5">
<path fill-rule="evenodd" clip-rule="evenodd" d="M42.0266 156.751C41.7698 156.81 41.4923 156.796 41.2024 156.704C36.0161 155.011 31.1057 152.798 26.3451 150.141C25.3917 149.561 24.6288 148.487 24.5981 147.386C24.5799 146.738 24.9874 146.318 25.5905 146.352C25.8522 146.367 26.1347 146.46 26.4296 146.627C31.1901 149.277 36.1006 151.484 41.2853 153.168C42.1782 153.434 42.9991 154.475 42.9991 155.416C42.9991 156.084 42.6181 156.613 42.0266 156.751Z" fill="#7892FF"/>
<path d="M25.5896 146.441C25.8274 146.454 26.0982 146.54 26.3865 146.704C31.147 149.358 36.0575 151.568 41.243 153.256C42.1666 153.548 42.9104 154.51 42.9104 155.438C42.9104 156.082 42.5526 156.539 42.0258 156.662C41.7922 156.717 41.5263 156.705 41.243 156.616C36.0575 154.927 31.147 152.717 26.3865 150.064C25.4596 149.502 24.748 148.491 24.6867 147.392C24.6867 146.749 25.052 146.41 25.5896 146.441ZM25.5896 146.263C24.9319 146.225 24.507 146.657 24.507 147.379C24.5716 148.543 25.3204 149.619 26.302 150.217C31.0625 152.878 35.9738 155.095 41.1601 156.791C41.4633 156.887 41.7549 156.903 42.0258 156.84C42.671 156.689 43.0869 156.116 43.0869 155.395C43.0869 154.427 42.2453 153.355 41.3258 153.081C36.1412 151.4 31.2315 149.198 26.4701 146.551C26.162 146.376 25.8655 146.279 25.5888 146.264L25.5896 146.263Z" fill="white"/>
</g>
<path fill-rule="evenodd" clip-rule="evenodd" d="M28.2751 149.427C28.2751 149.817 27.9545 149.962 27.5602 149.746C27.1651 149.53 26.8453 149.034 26.8453 148.644C26.8453 148.254 27.1651 148.117 27.5602 148.334C27.9553 148.55 28.2751 149.038 28.2751 149.428V149.427Z" fill="white"/>
<path fill-rule="evenodd" clip-rule="evenodd" d="M30.8944 150.77C30.8944 151.16 30.5746 151.32 30.1795 151.121C29.7844 150.922 29.4647 150.441 29.4647 150.051C29.4647 149.662 29.7852 149.511 30.1795 149.71C30.5746 149.908 30.8944 150.38 30.8944 150.77Z" fill="white"/>
<path fill-rule="evenodd" clip-rule="evenodd" d="M33.5102 151.994C33.5102 152.384 33.1905 152.558 32.7962 152.378C32.4019 152.197 32.0822 151.73 32.0822 151.34C32.0822 150.95 32.4019 150.785 32.7962 150.965C33.1905 151.146 33.5102 151.604 33.5102 151.994V151.994Z" fill="white"/>
<path fill-rule="evenodd" clip-rule="evenodd" d="M36.1188 153.1C36.1188 153.49 35.8007 153.678 35.4072 153.515C35.0137 153.353 34.6948 152.9 34.6948 152.51C34.6948 152.12 35.0137 151.941 35.4072 152.103C35.8007 152.265 36.1188 152.709 36.1188 153.099V153.1Z" fill="white"/>
<path fill-rule="evenodd" clip-rule="evenodd" d="M38.7164 154.087C38.7164 154.477 38.4 154.68 38.0082 154.535C37.6172 154.391 37.2991 153.953 37.2991 153.563C37.2991 153.173 37.6172 152.978 38.0082 153.123C38.3992 153.268 38.7164 153.697 38.7164 154.087Z" fill="white"/>
<path fill-rule="evenodd" clip-rule="evenodd" d="M41.2993 154.955C41.2993 155.345 40.9845 155.563 40.596 155.436C40.2075 155.31 39.8911 154.886 39.8911 154.496C39.8911 154.106 40.2067 153.897 40.596 154.024C40.9845 154.15 41.2993 154.565 41.2993 154.955Z" fill="white"/>
<path style="mix-blend-mode:multiply" d="M81.389 41.927V90.537C81.389 90.537 29.0927 100.588 22.3292 127.1C16.341 123.071 9.81859 117.495 4.08723 109.91L2.38082 107.558C2.38082 107.558 -0.96903 82.1668 18.8526 65.982C38.6742 49.7979 81.389 41.927 81.389 41.927Z" fill="url(#paint7_linear_1181_2406)"/>
<path style="mix-blend-mode:multiply" d="M41.7781 136.49V188.479C41.7781 188.479 31.4154 181.782 16.0602 167.272C0.705087 152.761 2.38001 125.416 2.38001 125.416V107.557C2.93998 108.362 3.50823 109.146 4.08642 109.909C9.81695 117.494 16.3394 123.071 22.3284 127.099C32.8807 134.197 41.7772 136.489 41.7772 136.489L41.7781 136.49Z" fill="url(#paint8_linear_1181_2406)"/>
<g opacity="0.5">
<path d="M45.967 79.5399C45.3441 79.6442 44.9133 79.2658 44.9183 78.6101C44.9639 73.0697 45.0086 67.5302 45.0542 61.9898C45.0608 61.1818 45.7185 60.1932 46.5228 59.8008C55.4566 55.5189 64.8079 52.4589 74.6064 50.9306C74.763 50.9074 74.9171 50.9099 75.0653 50.9372C75.6866 51.0515 76.1157 51.597 76.1107 52.2528C76.0652 57.7923 76.0204 63.3327 75.9749 68.8731C75.9682 69.6811 75.3122 70.4213 74.5103 70.5397C64.7134 72.0605 55.3622 75.113 46.4276 79.3884C46.271 79.4645 46.1161 79.5159 45.967 79.5407V79.5399Z" fill="#7892FF"/>
<path d="M75.0645 51.0416C75.617 51.1434 76.0122 51.6153 76.0072 52.2321C75.9616 57.7717 75.9169 63.3121 75.8713 68.8516C75.8647 69.6191 75.2426 70.3203 74.4789 70.4329C64.6811 71.9579 55.3299 75.0138 46.3953 79.2924C46.2454 79.3653 46.102 79.4125 45.967 79.4348C45.4129 79.5275 45.0161 79.208 45.021 78.5912C45.0666 73.0516 45.1113 67.5112 45.1569 61.9717C45.1635 61.2042 45.7873 60.2687 46.5535 59.8953C55.4881 55.6166 64.8394 52.5608 74.6371 51.0358C74.7862 51.0134 74.9295 51.0168 75.0637 51.0416M75.0654 50.833C74.9063 50.804 74.7415 50.8015 74.5741 50.8263C64.7756 52.3588 55.4243 55.4221 46.4905 59.7082C45.6324 60.1271 44.9564 61.1463 44.9498 62.0098C44.9042 67.5493 44.8595 73.0897 44.814 78.6292C44.8082 79.3462 45.2811 79.7593 45.9654 79.6443C46.1244 79.6178 46.2901 79.5623 46.4574 79.4812C55.3928 75.2091 64.7441 72.1608 74.5402 70.6432C75.3959 70.5174 76.0693 69.7565 76.0768 68.8922C76.1223 63.3526 76.1671 57.8123 76.2126 52.2727C76.2184 51.5557 75.7471 50.9588 75.0654 50.833Z" fill="white"/>
</g>
<path d="M49.6863 62.7356C48.8969 63.0883 48.5026 63.2696 47.7157 63.6414C47.7223 62.854 47.7256 62.4599 47.7314 61.6726C48.5192 61.3008 48.9127 61.1195 49.7021 60.7668C49.6955 61.5542 49.6921 61.9483 49.6863 62.7356Z" fill="#F8C655"/>
<path opacity="0.2" d="M61.0331 55.7822C61.3363 55.6887 61.603 55.8021 61.6925 56.0612C61.8341 56.4719 61.9045 56.6772 62.0462 57.0887C62.1133 57.2824 62.2814 57.3966 62.4968 57.4041C62.7942 57.4149 63.0824 57.4513 63.3583 57.5125C63.5596 57.5573 63.7981 57.4943 64.0002 57.3354C64.4285 56.9992 64.643 56.832 65.0713 56.5017C65.3413 56.293 65.6694 56.2599 65.8814 56.4181C66.1564 56.6242 66.2948 56.7277 66.5698 56.9363C66.7818 57.0969 66.8299 57.4107 66.6882 57.7112C66.4629 58.1898 66.3503 58.429 66.1258 58.9084C66.0198 59.1336 66.0214 59.3687 66.1216 59.5442C66.2583 59.7835 66.3751 60.0385 66.4696 60.3092C66.5383 60.5054 66.7031 60.6346 66.9185 60.6503C67.3758 60.6851 67.6052 60.7041 68.0616 60.7455C68.3491 60.7712 68.5421 60.9947 68.5396 61.2953C68.5363 61.6852 68.5346 61.8806 68.5313 62.2706C68.5288 62.5711 68.3309 62.8799 68.0426 63.0355C67.5812 63.2839 67.3501 63.4106 66.8879 63.6656C66.6725 63.7848 66.5052 63.9934 66.4323 64.2236C66.3329 64.539 66.2119 64.8503 66.0719 65.1558C65.9684 65.3818 65.9626 65.6195 66.0653 65.7933C66.2848 66.165 66.395 66.3513 66.6145 66.7247C66.752 66.9582 66.6982 67.296 66.4828 67.5601C66.2028 67.9037 66.0628 68.0759 65.7829 68.4211C65.5667 68.6877 65.2386 68.8218 64.9711 68.7531C64.5412 68.6438 64.3266 68.59 63.8967 68.4857C63.6962 68.4377 63.4585 68.5064 63.2556 68.6645C62.9822 68.8773 62.6981 69.0743 62.4048 69.2565C62.1895 69.3898 62.018 69.605 61.9476 69.8393C61.7968 70.3427 61.7214 70.5944 61.5707 71.0986C61.4771 71.4132 61.207 71.6889 60.9039 71.7824C60.5104 71.9041 60.3132 71.9662 59.9198 72.0921C59.6166 72.1898 59.3499 72.083 59.2604 71.8263C59.1171 71.4148 59.0459 71.2087 58.9026 70.798C58.8355 70.6068 58.6673 70.4992 58.4528 70.5008C58.1604 70.5041 57.8779 70.4843 57.607 70.4437C57.4049 70.4131 57.1672 70.4942 56.9651 70.6697C56.531 71.0456 56.3148 71.2352 55.8807 71.6177C55.6107 71.8553 55.2827 71.9281 55.0698 71.7973C54.7939 71.6268 54.6564 71.5423 54.3806 71.3743C54.1677 71.2451 54.1197 70.9388 54.2621 70.6176C54.4891 70.1034 54.6026 69.8468 54.8287 69.3343C54.9348 69.0942 54.9339 68.8591 54.8329 68.6976C54.697 68.4791 54.5811 68.2431 54.4858 67.9889C54.4162 67.8035 54.2522 67.6992 54.0368 67.7157C53.5771 67.7513 53.3468 67.7712 52.8871 67.8134C52.5996 67.8399 52.4058 67.6553 52.4083 67.3539C52.4116 66.964 52.4133 66.7686 52.4166 66.3786C52.4191 66.0781 52.617 65.7304 52.9061 65.5226C53.3667 65.1914 53.5961 65.0275 54.0567 64.703C54.2729 64.5506 54.4402 64.3172 54.5131 64.0762C54.6134 63.7442 54.7351 63.4131 54.8759 63.0869C54.9795 62.8468 54.9845 62.61 54.8817 62.4502C54.6631 62.1108 54.5537 61.941 54.3359 61.6024C54.1984 61.3897 54.2522 61.0436 54.4676 60.748C54.7476 60.3647 54.8875 60.1735 55.1675 59.7918C55.3837 59.4979 55.7126 59.324 55.9801 59.3629C56.4051 59.425 56.618 59.4573 57.0429 59.5244C57.2434 59.5558 57.4819 59.4689 57.6857 59.2967C57.964 59.0607 58.2531 58.8422 58.553 58.6435C58.7684 58.5002 58.9407 58.2784 59.0103 58.0416C59.1594 57.539 59.2339 57.2882 59.3822 56.7856C59.4758 56.4686 59.7458 56.1862 60.0498 56.0885C60.4433 55.9627 60.6404 55.9006 61.0339 55.7789L61.0331 55.7822ZM60.5079 60.0037C58.3385 60.719 56.5666 62.9768 56.5095 65.28C56.454 67.4872 58.5116 68.5031 60.4441 67.8689C62.5697 67.1718 64.3929 65.0763 64.4418 62.7814C64.4873 60.6089 62.5109 59.3439 60.5087 60.0046L60.5079 60.0037Z" fill="white"/>
<path d="M33.6221 65.2361C33.6221 65.2361 17.7037 72.8562 12.9572 84.5132" stroke="#BBCBFF" stroke-width="3.79" stroke-miterlimit="10"/>
<path d="M2.16629 97.7051C2.16629 97.7051 -2.81707 119.199 41.7772 136.49V140.694" stroke="#BBCBFF" stroke-width="3.79" stroke-miterlimit="10"/>
<path d="M88.0224 119.863H64.4053C63.9126 119.863 63.5132 120.262 63.5132 120.754V120.857C63.5132 121.349 63.9126 121.749 64.4053 121.749H88.0224C88.5152 121.749 88.9146 121.349 88.9146 120.857V120.754C88.9146 120.262 88.5152 119.863 88.0224 119.863Z" fill="url(#paint9_linear_1181_2406)"/>
<path d="M71.7387 115.107H48.1216C47.6289 115.107 47.2294 115.506 47.2294 115.999V116.101C47.2294 116.594 47.6289 116.993 48.1216 116.993H71.7387C72.2314 116.993 72.6308 116.594 72.6308 116.101V115.999C72.6308 115.506 72.2314 115.107 71.7387 115.107Z" fill="url(#paint10_linear_1181_2406)"/>
<path d="M55.3622 109.724H31.745C31.2523 109.724 30.8529 110.123 30.8529 110.616V110.718C30.8529 111.211 31.2523 111.61 31.745 111.61H55.3622C55.8549 111.61 56.2543 111.211 56.2543 110.718V110.616C56.2543 110.123 55.8549 109.724 55.3622 109.724Z" fill="url(#paint11_linear_1181_2406)"/>
<path d="M227.383 159.844C223.413 160.706 219.435 161.434 215.428 162.026C215.429 161.474 215.43 161.198 215.43 160.645C219.437 160.055 223.416 159.329 227.385 158.47C227.384 159.019 227.383 159.294 227.383 159.844Z" fill="#BBCBFF"/>
<path d="M234.015 158.231C232.458 158.637 230.898 159.027 229.333 159.399C229.334 158.85 229.335 158.575 229.336 158.027C230.901 157.654 232.46 157.266 234.018 156.861C234.017 157.409 234.016 157.683 234.015 158.231Z" fill="#BBCBFF"/>
<path d="M232.817 172.921C232.797 177.419 228.745 182.119 223.702 183.177C218.735 184.219 214.655 180.988 214.667 176.628C214.681 172.119 218.778 167.916 223.731 166.921C224.77 166.712 225.769 166.658 226.7 166.74C226.268 167.946 225.835 169.152 225.402 170.359C224.876 170.308 224.311 170.336 223.725 170.456C220.911 171.031 218.585 173.479 218.594 176.01C218.603 178.376 220.956 180.262 223.708 179.643C226.513 179.011 228.831 176.472 228.855 173.914C230.178 173.6 231.499 173.269 232.816 172.922L232.817 172.921Z" fill="url(#paint12_linear_1181_2406)"/>
<path d="M232.817 172.921C231.5 173.268 230.179 173.599 228.855 173.914C228.872 172.122 227.458 170.483 225.402 170.359C225.835 169.152 226.268 167.946 226.7 166.74C230.353 166.991 232.834 169.692 232.817 172.921Z" fill="white"/>
<path d="M248.128 160.52C247.695 161.776 247.262 163.032 246.829 164.289C246.302 164.315 245.736 164.422 245.148 164.625C242.363 165.588 240.025 168.207 239.99 170.862C239.958 173.372 242.517 174.661 245.132 173.726C245.13 174.894 245.128 176.061 245.126 177.228C240.413 178.888 236.002 176.482 236.026 172.041C236.05 167.374 240.267 162.795 245.155 161.124C246.195 160.768 247.198 160.572 248.128 160.52Z" fill="url(#paint13_linear_1181_2406)"/>
<path d="M254.228 165.768C252.919 166.299 251.603 166.816 250.282 167.317C250.313 165.584 248.863 164.103 246.829 164.289C247.262 163.033 247.695 161.776 248.128 160.519C251.68 160.362 254.341 162.535 254.228 165.768Z" fill="white"/>
<path d="M254.228 165.768C254.201 170.435 250.099 175.483 245.126 177.228C245.128 176.061 245.13 174.894 245.132 173.727C247.874 172.725 250.325 169.966 250.281 167.317C251.603 166.816 252.918 166.299 254.227 165.768H254.228Z" fill="url(#paint14_linear_1181_2406)"/>
<g opacity="0.5">
<path d="M227.333 188.125C223.901 188.914 220.459 189.605 216.995 190.196C216.998 188.711 217 187.225 217.003 185.74C217.124 185.72 217.185 185.71 217.306 185.69C217.303 187.085 217.301 188.479 217.298 189.873C220.661 189.292 224 188.619 227.334 187.855C227.334 187.963 227.334 188.018 227.334 188.126L227.333 188.125Z" fill="white"/>
</g>
<path style="mix-blend-mode:multiply" d="M292.539 103.842C288.671 114.644 280.772 121.534 280.457 121.782C280.453 121.784 280.452 121.786 280.449 121.786C280.448 121.786 280.447 121.787 280.447 121.787C256.716 87.1873 211.767 83.2812 211.767 83.2812V34.73C211.767 34.73 247.502 39.1949 263.974 50.077C269.089 53.4565 274.205 57.5886 278.777 62.2233C282.791 66.2916 286.385 70.7474 289.194 75.416C291.435 79.1433 293.174 83.0063 294.226 86.9207C294.79 93.5456 293.991 99.1696 292.539 103.842Z" fill="url(#paint15_linear_1181_2406)"/>
<path style="mix-blend-mode:multiply" d="M279.33 169.503C260.904 188.756 223.214 199.081 203.393 199.081V153.557C203.393 151.89 204.691 150.511 206.355 150.412C216.499 149.805 250.846 145.974 280.447 121.788C280.447 121.788 280.448 121.787 280.449 121.787C280.452 121.787 280.453 121.784 280.457 121.782C280.773 121.534 288.671 114.645 292.539 103.842C294.301 98.9263 295.228 93.2005 294.226 86.9216H294.226C294.894 89.4078 295.285 91.9139 295.351 94.4192C295.358 94.67 295.361 94.9217 295.361 95.1726V122.906C295.361 122.906 297.756 150.251 279.329 169.504L279.33 169.503Z" fill="url(#paint16_linear_1181_2406)"/>
<path d="M257.759 142.155C232.396 155.348 209.553 155.942 209.553 155.942V167.993" stroke="#BBCBFF" stroke-width="2.53" stroke-miterlimit="10"/>
<path d="M224.657 79.3495L219.855 78.13V67.8059L224.657 69.0254V79.3495Z" fill="url(#paint17_linear_1181_2406)"/>
<path d="M234.839 82.3815L230.037 80.7903V67.0991L234.839 68.6912V82.3815Z" fill="url(#paint18_linear_1181_2406)"/>
<path d="M245.212 86.4819L240.408 84.5537V62.4146L245.212 64.3428V86.4819Z" fill="url(#paint19_linear_1181_2406)"/>
<path d="M251.287 67.8059C251.287 67.8059 266.325 74.5037 275.483 83.5619" stroke="#BBCBFF" stroke-width="3.79" stroke-linecap="round" stroke-linejoin="round"/>
<path d="M251.287 75.3135C251.287 75.3135 263.385 80.6071 275.483 91.7988" stroke="#BBCBFF" stroke-width="3.79" stroke-linecap="round" stroke-linejoin="round"/>
<path d="M251.287 83.0039C251.287 83.0039 257.089 86.0821 262.892 90.8384" stroke="#BBCBFF" stroke-width="3.79" stroke-linecap="round" stroke-linejoin="round"/>
<path d="M245.34 49.7725C230.945 44.5029 220.135 43.1401 220.135 43.1401V49.0506" stroke="#BBCBFF" stroke-width="3.79" stroke-miterlimit="10"/>
<path d="M224.657 48.9611L223.045 48.5596V46.9468L224.657 47.3491V48.9611Z" fill="#F8C655"/>
<path d="M203.393 160.961V153.774C203.393 151.994 204.783 150.523 206.561 150.423C216.06 149.892 245.381 146.662 273.424 127.1" stroke="#BBCBFF" stroke-width="3.79" stroke-miterlimit="10"/>
<path d="M295.464 107.906V124.954" stroke="#BBCBFF" stroke-width="3.79" stroke-miterlimit="10"/>
<path d="M233.011 63.1207L231.398 62.7184V61.1064L233.011 61.5088V63.1207Z" fill="#7892FF"/>
<path d="M244.116 57.866L242.503 57.4645V55.8525L244.116 56.2541V57.866Z" fill="#7892FF"/>
<path d="M223.062 64.428L221.449 64.0265V62.4146L223.062 62.8161V64.428Z" fill="#7892FF"/>
<path d="M265.711 150.527C265.711 150.527 282.888 143.938 288.013 133.278" stroke="url(#paint20_linear_1181_2406)" stroke-width="7.58" stroke-linecap="round" stroke-linejoin="round"/>
<path d="M265.711 157.624C265.711 157.624 275.654 155.074 282.952 147.305" stroke="url(#paint21_linear_1181_2406)" stroke-width="7.58" stroke-linecap="round" stroke-linejoin="round"/>
<path d="M209.553 189.647V193.182" stroke="#BBCBFF" stroke-width="2.53" stroke-miterlimit="10"/>
<g opacity="0.5">
<path d="M209.127 104.557H243.212C244.216 104.557 245.031 105.372 245.031 106.376V126.618C245.031 127.622 244.216 128.437 243.212 128.437H209.127C208.123 128.437 207.308 127.623 207.308 126.618V106.376C207.308 105.373 208.123 104.557 209.127 104.557Z" fill="#7892FF"/>
<path d="M243.212 104.684C244.147 104.684 244.904 105.441 244.904 106.375V126.617C244.904 127.552 244.146 128.309 243.212 128.309H209.127C208.192 128.309 207.435 127.551 207.435 126.617V106.375C207.435 105.44 208.193 104.684 209.127 104.684H243.212ZM243.212 104.429H209.127C208.054 104.429 207.181 105.302 207.181 106.375V126.617C207.181 127.69 208.054 128.563 209.127 128.563H243.212C244.285 128.563 245.158 127.69 245.158 126.617V106.375C245.158 105.302 244.285 104.429 243.212 104.429Z" fill="white"/>
</g>
<path d="M224.692 116.861H211.029V118.304H224.692V116.861Z" fill="#BBCBFF"/>
<path d="M228.513 116.861H226.205V118.304H228.513V116.861Z" fill="#BBCBFF"/>
<path d="M238.391 116.861H230.097V118.304H238.391V116.861Z" fill="#BBCBFF"/>
<path d="M224.692 119.755H211.029V121.198H224.692V119.755Z" fill="#BBCBFF"/>
<path d="M240.244 119.755H227.118V121.198H240.244V119.755Z" fill="#BBCBFF"/>
<path d="M222.275 114.019H211.029V115.462H222.275V114.019Z" fill="#BBCBFF"/>
<path d="M238.391 114.019H224.351V115.462H238.391V114.019Z" fill="#BBCBFF"/>
<path d="M213.428 109.415H211.029V111.813H213.428V109.415Z" fill="#F8C655"/>
<path d="M217.852 109.415H215.453V111.813H217.852V109.415Z" fill="#F8C655"/>
<path d="M255.084 106.514H251.9C251.694 106.514 251.527 106.681 251.527 106.887V110.068C251.527 110.274 251.694 110.441 251.9 110.441H255.084C255.289 110.441 255.456 110.274 255.456 110.068V106.887C255.456 106.681 255.289 106.514 255.084 106.514Z" fill="#BBCBFF"/>
<g opacity="0.5">
<path d="M253.619 114.324H253.365V121.389H253.619V114.324Z" fill="white"/>
</g>
<path d="M227.274 107.546C227.849 107.546 228.146 107.758 228.146 108.406C228.146 109.053 227.82 109.286 227.298 109.286C227.192 109.286 227.07 109.273 226.956 109.254V110.256H226.532V107.546H227.274ZM226.956 108.924C227.07 108.949 227.172 108.956 227.262 108.956C227.6 108.956 227.718 108.777 227.718 108.407C227.718 107.991 227.587 107.868 227.274 107.868H226.956V108.924Z" fill="#BBCBFF"/>
<path d="M230.279 107.547C230.854 107.547 231.152 107.742 231.152 108.386C231.152 108.81 230.96 109.014 230.703 109.111C230.911 109.205 230.964 109.344 231.038 109.588L231.229 110.256H230.793L230.621 109.682C230.548 109.425 230.462 109.241 230.255 109.241C230.161 109.241 230.059 109.237 229.961 109.221V110.256H229.537V107.546H230.279V107.547ZM229.961 108.891C230.076 108.916 230.177 108.919 230.267 108.919C230.605 108.919 230.723 108.756 230.723 108.385C230.723 107.974 230.592 107.868 230.279 107.868H229.961V108.89V108.891Z" fill="#BBCBFF"/>
<path d="M233.411 110.301C232.774 110.301 232.436 109.902 232.436 108.904C232.436 107.905 232.774 107.506 233.411 107.506C234.047 107.506 234.381 107.901 234.381 108.904C234.381 109.906 234.038 110.301 233.411 110.301ZM233.411 107.827C233.06 107.827 232.876 108.096 232.876 108.903C232.876 109.709 233.059 109.978 233.411 109.978C233.762 109.978 233.941 109.709 233.941 108.903C233.941 108.096 233.758 107.827 233.411 107.827Z" fill="#BBCBFF"/>
<path d="M237.178 107.546V107.868H236.2V108.757H237.056V109.079H236.2V110.256H235.776V107.546H237.178Z" fill="#BBCBFF"/>
<path d="M238.963 107.546V110.256H238.539V107.546H238.963Z" fill="#BBCBFF"/>
<path d="M242.07 107.546V107.868H241.361V110.256H240.937V107.868H240.228V107.546H242.071H242.07Z" fill="#BBCBFF"/>
<g opacity="0.5">
<path d="M229.994 3.44409H264.896C265.97 3.44409 266.842 4.31588 266.842 5.38885V28.6647C266.842 29.7377 265.97 30.6095 264.896 30.6095H229.994C228.921 30.6095 228.049 29.7377 228.049 28.6647V5.38885C228.049 4.31588 228.921 3.44409 229.994 3.44409Z" fill="#7892FF"/>
<path d="M264.895 3.55581C265.908 3.55581 266.729 4.37627 266.729 5.38881V28.6647C266.729 29.6772 265.908 30.4977 264.895 30.4977H229.994C228.981 30.4977 228.16 29.6772 228.16 28.6647V5.38881C228.16 4.37627 228.981 3.55581 229.994 3.55581H264.895ZM264.895 3.33228H229.994C228.859 3.33228 227.936 4.25457 227.936 5.38881V28.6647C227.936 29.7989 228.859 30.7212 229.994 30.7212H264.895C266.03 30.7212 266.953 29.7989 266.953 28.6647V5.38881C266.953 4.25457 266.03 3.33228 264.895 3.33228Z" fill="white"/>
<path d="M264.895 3.55591H229.994C228.982 3.55591 228.16 4.37657 228.16 5.3889V28.6648C228.16 29.6771 228.982 30.4978 229.994 30.4978H264.895C265.908 30.4978 266.729 29.6771 266.729 28.6648V5.3889C266.729 4.37657 265.908 3.55591 264.895 3.55591Z" fill="#7892FF"/>
</g>
<path d="M231.118 1.34618C231.49 1.34618 231.792 1.04483 231.792 0.673092C231.792 0.301353 231.49 0 231.118 0C230.747 0 230.445 0.301353 230.445 0.673092C230.445 1.04483 230.747 1.34618 231.118 1.34618Z" fill="url(#paint22_linear_1181_2406)"/>
<path d="M234.28 1.34618C234.652 1.34618 234.954 1.04483 234.954 0.673092C234.954 0.301353 234.652 0 234.28 0C233.908 0 233.607 0.301353 233.607 0.673092C233.607 1.04483 233.908 1.34618 234.28 1.34618Z" fill="url(#paint23_linear_1181_2406)"/>
<path d="M237.443 1.34618C237.815 1.34618 238.116 1.04483 238.116 0.673092C238.116 0.301353 237.815 0 237.443 0C237.071 0 236.77 0.301353 236.77 0.673092C236.77 1.04483 237.071 1.34618 237.443 1.34618Z" fill="url(#paint24_linear_1181_2406)"/>
<g opacity="0.5">
<path d="M233.046 15.5076H232.661V27.1331H233.046V15.5076Z" fill="white"/>
</g>
<path d="M234.124 18.3831H231.582V25.9626H234.124V18.3831Z" fill="url(#paint25_linear_1181_2406)"/>
<g opacity="0.5">
<path d="M242.645 19.2158H242.26V26.5197H242.645V19.2158Z" fill="white"/>
</g>
<path d="M241.181 25.7844H243.723V21.0231H241.181V25.7844Z" fill="url(#paint26_linear_1181_2406)"/>
<g opacity="0.5">
<path d="M247.444 19.7192H247.059V27.0231H247.444V19.7192Z" fill="white"/>
</g>
<path d="M245.982 27.0232H248.523V21.5259H245.982V27.0232Z" fill="url(#paint27_linear_1181_2406)"/>
<g opacity="0.5">
<path d="M252.244 11.9675H251.859V26.8476H252.244V11.9675Z" fill="white"/>
</g>
<path d="M250.781 25.2795H253.322V14.1624H250.781V25.2795Z" fill="url(#paint28_linear_1181_2406)"/>
<g opacity="0.5">
<path d="M257.044 14.1631H256.659V19.4079H257.044V14.1631Z" fill="white"/>
</g>
<path d="M255.581 16.7603H258.123V14.1623H255.581V16.7603Z" fill="url(#paint29_linear_1181_2406)"/>
<g opacity="0.5">
<path d="M261.844 9.7229H261.459V15.1846H261.844V9.7229Z" fill="white"/>
</g>
<path d="M260.381 15.2288H262.922V7.73948H260.381V15.2288Z" fill="url(#paint30_linear_1181_2406)"/>
<g opacity="0.5">
<path d="M237.846 12.5701H237.46V24.1956H237.846V12.5701Z" fill="white"/>
</g>
<path d="M238.923 13.8186H236.382V23.025H238.923V13.8186Z" fill="url(#paint31_linear_1181_2406)"/>
<path d="M263.812 25.5808H262.228V26.999H263.812V25.5808Z" fill="#F8C655"/>
<path d="M239.269 7.31299H231.846V8.16656H239.269V7.31299Z" fill="#BBCBFF"/>
<path d="M235.937 9.6311H231.846V10.4847H235.937V9.6311Z" fill="#BBCBFF"/>
<g opacity="0.5">
<path d="M66.9235 11.6792H30.1671C29.0856 11.6792 28.2089 12.5555 28.2089 13.6364V35.4659C28.2089 36.5468 29.0856 37.4231 30.1671 37.4231H66.9235C68.005 37.4231 68.8817 36.5468 68.8817 35.4659V13.6364C68.8817 12.5555 68.005 11.6792 66.9235 11.6792Z" fill="#7892FF"/>
<path d="M66.9235 11.8127C67.9316 11.8127 68.7492 12.6299 68.7492 13.6374V35.4661C68.7492 36.4737 67.9316 37.2909 66.9235 37.2909H30.1679C29.1598 37.2909 28.3422 36.4737 28.3422 35.4661V13.6366C28.3422 12.6291 29.1598 11.8119 30.1679 11.8119H66.9243M66.9243 11.5461H30.1679C29.0148 11.5461 28.0763 12.4842 28.0763 13.6366V35.4661C28.0763 36.6186 29.0148 37.5566 30.1679 37.5566H66.9243C68.0774 37.5566 69.0159 36.6186 69.0159 35.4661V13.6366C69.0159 12.4842 68.0774 11.5461 66.9243 11.5461Z" fill="white"/>
</g>
<path d="M42.145 14.8057H34.6435V15.7685H42.145V14.8057Z" fill="#BBCBFF"/>
<path d="M41.9934 24.0947H38.3942V34.2027H41.9934V24.0947Z" fill="url(#paint32_linear_1181_2406)"/>
<path d="M48.4504 26.1504H44.8513V34.2018H48.4504V26.1504Z" fill="url(#paint33_linear_1181_2406)"/>
<path d="M54.9074 19.8689H51.3082V34.2025H54.9074V19.8689Z" fill="url(#paint34_linear_1181_2406)"/>
<path d="M61.3644 15.6426H57.7653V34.2019H61.3644V15.6426Z" fill="url(#paint35_linear_1181_2406)"/>
<g opacity="0.5">
<path d="M61.3644 34.2978H33.6536V19.8772H33.8441V34.1073H61.3644V34.2978Z" fill="white"/>
</g>
<path d="M79.2427 11.0037H75.8092C75.5873 11.0037 75.4075 11.1834 75.4075 11.4052V14.8369C75.4075 15.0587 75.5873 15.2384 75.8092 15.2384H79.2427C79.4646 15.2384 79.6445 15.0587 79.6445 14.8369V11.4052C79.6445 11.1834 79.4646 11.0037 79.2427 11.0037Z" fill="#BBCBFF"/>
<g opacity="0.5">
<path d="M77.6631 19.426H77.3889V27.0453H77.6631V19.426Z" fill="white"/>
</g>
<defs>
<linearGradient id="paint0_linear_1181_2406" x1="145.398" y1="73.2635" x2="147.071" y2="-10.4466" gradientUnits="userSpaceOnUse">
<stop stop-color="white"/>
<stop offset="1" stop-color="#6584E6"/>
</linearGradient>
<linearGradient id="paint1_linear_1181_2406" x1="146.718" y1="144.58" x2="187.293" y2="144.58" gradientUnits="userSpaceOnUse">
<stop stop-color="#9BB8FF"/>
<stop offset="1" stop-color="#ECEDFB"/>
</linearGradient>
<linearGradient id="paint2_linear_1181_2406" x1="89.1855" y1="191.712" x2="86.2223" y2="159.887" gradientUnits="userSpaceOnUse">
<stop stop-color="#9BB8FF"/>
<stop offset="1" stop-color="#ECEDFB"/>
</linearGradient>
<linearGradient id="paint3_linear_1181_2406" x1="82.2472" y1="172.47" x2="66.6217" y2="188.942" gradientUnits="userSpaceOnUse">
<stop stop-color="#2539A3"/>
<stop offset="1" stop-color="#3447C7"/>
</linearGradient>
<linearGradient id="paint4_linear_1181_2406" x1="142.131" y1="73.1765" x2="173.375" y2="24.7947" gradientUnits="userSpaceOnUse">
<stop stop-color="#0093A2"/>
<stop offset="1" stop-color="#49FBDF"/>
</linearGradient>
<linearGradient id="paint5_linear_1181_2406" x1="167.857" y1="129.584" x2="115.633" y2="44.5459" gradientUnits="userSpaceOnUse">
<stop stop-color="#9BB8FF"/>
<stop offset="1" stop-color="white"/>
</linearGradient>
<linearGradient id="paint6_linear_1181_2406" x1="148.053" y1="70.6753" x2="203.478" y2="73.1838" gradientUnits="userSpaceOnUse">
<stop stop-color="#346DFD"/>
<stop offset="1" stop-color="#53CEFE"/>
</linearGradient>
<linearGradient id="paint7_linear_1181_2406" x1="59.8908" y1="104.031" x2="31.4282" y2="57.6852" gradientUnits="userSpaceOnUse">
<stop stop-color="white"/>
<stop offset="1" stop-color="#6584E6"/>
</linearGradient>
<linearGradient id="paint8_linear_1181_2406" x1="48.2823" y1="184.483" x2="1.40728" y2="108.155" gradientUnits="userSpaceOnUse">
<stop stop-color="white"/>
<stop offset="1" stop-color="#6584E6"/>
</linearGradient>
<linearGradient id="paint9_linear_1181_2406" x1="63.5132" y1="120.806" x2="88.9146" y2="120.806" gradientUnits="userSpaceOnUse">
<stop stop-color="#0093A2"/>
<stop offset="1" stop-color="#49FBDF"/>
</linearGradient>
<linearGradient id="paint10_linear_1181_2406" x1="47.2294" y1="116.05" x2="72.6308" y2="116.05" gradientUnits="userSpaceOnUse">
<stop stop-color="#346DFD"/>
<stop offset="1" stop-color="#53CEFE"/>
</linearGradient>
<linearGradient id="paint11_linear_1181_2406" x1="30.8529" y1="110.667" x2="56.2543" y2="110.667" gradientUnits="userSpaceOnUse">
<stop stop-color="#0093A2"/>
<stop offset="1" stop-color="#49FBDF"/>
</linearGradient>
<linearGradient id="paint12_linear_1181_2406" x1="289.011" y1="172.432" x2="274.599" y2="159.132" gradientUnits="userSpaceOnUse">
<stop stop-color="#0093A2"/>
<stop offset="1" stop-color="#49FBDF"/>
</linearGradient>
<linearGradient id="paint13_linear_1181_2406" x1="307.009" y1="164.522" x2="294.794" y2="153.248" gradientUnits="userSpaceOnUse">
<stop stop-color="#0093A2"/>
<stop offset="1" stop-color="#49FBDF"/>
</linearGradient>
<linearGradient id="paint14_linear_1181_2406" x1="292.965" y1="157.863" x2="302.087" y2="155.173" gradientUnits="userSpaceOnUse">
<stop stop-color="#0093A2"/>
<stop offset="1" stop-color="#49FBDF"/>
</linearGradient>
<linearGradient id="paint15_linear_1181_2406" x1="277.635" y1="123.515" x2="220.003" y2="29.6723" gradientUnits="userSpaceOnUse">
<stop stop-color="white"/>
<stop offset="1" stop-color="#6584E6"/>
</linearGradient>
<linearGradient id="paint16_linear_1181_2406" x1="270.097" y1="177.628" x2="236.256" y2="122.522" gradientUnits="userSpaceOnUse">
<stop stop-color="white"/>
<stop offset="1" stop-color="#6584E6"/>
</linearGradient>
<linearGradient id="paint17_linear_1181_2406" x1="222.531" y1="81.0078" x2="222.059" y2="68.2604" gradientUnits="userSpaceOnUse">
<stop stop-color="#0093A2"/>
<stop offset="1" stop-color="#49FBDF"/>
</linearGradient>
<linearGradient id="paint18_linear_1181_2406" x1="232.801" y1="84.5407" x2="232.179" y2="67.7275" gradientUnits="userSpaceOnUse">
<stop stop-color="#0093A2"/>
<stop offset="1" stop-color="#49FBDF"/>
</linearGradient>
<linearGradient id="paint19_linear_1181_2406" x1="243.38" y1="89.8167" x2="242.403" y2="63.4494" gradientUnits="userSpaceOnUse">
<stop stop-color="#0093A2"/>
<stop offset="1" stop-color="#49FBDF"/>
</linearGradient>
<linearGradient id="paint20_linear_1181_2406" x1="265.397" y1="141.902" x2="288.327" y2="141.902" gradientUnits="userSpaceOnUse">
<stop stop-color="#49FBDF"/>
<stop offset="1" stop-color="#0093A2"/>
</linearGradient>
<linearGradient id="paint21_linear_1181_2406" x1="1.84309" y1="152.465" x2="283.266" y2="152.465" gradientUnits="userSpaceOnUse">
<stop stop-color="#49FBDF"/>
<stop offset="1" stop-color="#0093A2"/>
</linearGradient>
<linearGradient id="paint22_linear_1181_2406" x1="231.118" y1="1.16901" x2="231.118" y2="0.258308" gradientUnits="userSpaceOnUse">
<stop stop-color="#ABBDF6"/>
<stop offset="1" stop-color="white"/>
</linearGradient>
<linearGradient id="paint23_linear_1181_2406" x1="234.28" y1="1.16901" x2="234.28" y2="0.258308" gradientUnits="userSpaceOnUse">
<stop stop-color="#0093A2"/>
<stop offset="1" stop-color="#49FBDF"/>
</linearGradient>
<linearGradient id="paint24_linear_1181_2406" x1="237.443" y1="1.16901" x2="237.443" y2="0.258308" gradientUnits="userSpaceOnUse">
<stop stop-color="#1D27E1"/>
<stop offset="1" stop-color="#456EEF"/>
</linearGradient>
<linearGradient id="paint25_linear_1181_2406" x1="232.853" y1="26.2333" x2="232.853" y2="18.9808" gradientUnits="userSpaceOnUse">
<stop stop-color="#0093A2"/>
<stop offset="1" stop-color="#49FBDF"/>
</linearGradient>
<linearGradient id="paint26_linear_1181_2406" x1="242.453" y1="25.9541" x2="242.453" y2="21.3982" gradientUnits="userSpaceOnUse">
<stop stop-color="#0093A2"/>
<stop offset="1" stop-color="#49FBDF"/>
</linearGradient>
<linearGradient id="paint27_linear_1181_2406" x1="247.252" y1="27.2194" x2="247.252" y2="21.9597" gradientUnits="userSpaceOnUse">
<stop stop-color="#0093A2"/>
<stop offset="1" stop-color="#49FBDF"/>
</linearGradient>
<linearGradient id="paint28_linear_1181_2406" x1="252.052" y1="25.6769" x2="252.052" y2="15.0399" gradientUnits="userSpaceOnUse">
<stop stop-color="#0093A2"/>
<stop offset="1" stop-color="#49FBDF"/>
</linearGradient>
<linearGradient id="paint29_linear_1181_2406" x1="256.852" y1="16.8538" x2="256.852" y2="14.3676" gradientUnits="userSpaceOnUse">
<stop stop-color="#0093A2"/>
<stop offset="1" stop-color="#49FBDF"/>
</linearGradient>
<linearGradient id="paint30_linear_1181_2406" x1="261.651" y1="15.4962" x2="261.651" y2="8.32978" gradientUnits="userSpaceOnUse">
<stop stop-color="#0093A2"/>
<stop offset="1" stop-color="#49FBDF"/>
</linearGradient>
<linearGradient id="paint31_linear_1181_2406" x1="237.653" y1="23.3545" x2="237.653" y2="14.5447" gradientUnits="userSpaceOnUse">
<stop stop-color="#0093A2"/>
<stop offset="1" stop-color="#49FBDF"/>
</linearGradient>
<linearGradient id="paint32_linear_1181_2406" x1="40.1934" y1="34.5637" x2="40.1934" y2="24.892" gradientUnits="userSpaceOnUse">
<stop stop-color="#0093A2"/>
<stop offset="1" stop-color="#49FBDF"/>
</linearGradient>
<linearGradient id="paint33_linear_1181_2406" x1="46.6504" y1="34.4899" x2="46.6504" y2="26.7854" gradientUnits="userSpaceOnUse">
<stop stop-color="#0093A2"/>
<stop offset="1" stop-color="#49FBDF"/>
</linearGradient>
<linearGradient id="paint34_linear_1181_2406" x1="53.1074" y1="34.7142" x2="53.1074" y2="20.999" gradientUnits="userSpaceOnUse">
<stop stop-color="#0093A2"/>
<stop offset="1" stop-color="#49FBDF"/>
</linearGradient>
<linearGradient id="paint35_linear_1181_2406" x1="59.5644" y1="34.865" x2="59.5644" y2="17.1063" gradientUnits="userSpaceOnUse">
<stop stop-color="#0093A2"/>
<stop offset="1" stop-color="#49FBDF"/>
</linearGradient>
</defs>
</svg>
