<svg width="490" height="256" viewBox="0 0 490 256" fill="none" xmlns="http://www.w3.org/2000/svg">
<path d="M484.147 123.294V252.28L5.85804 250.465V120.12L9.97734 116.419C38.9397 120.576 38.2102 152.557 67.8608 152.557C97.5115 152.557 87.7897 105.462 125.431 105.462C163.073 105.462 145.36 177.8 185.218 177.8C225.075 177.8 205.147 99.4338 245.004 99.4338C284.862 99.4338 262.72 152.18 304.791 152.18C346.861 152.18 331.361 69.2929 364.577 69.2929C397.793 69.2929 391.148 121.286 424.364 121.286C457.58 121.286 443.539 16.1807 484.15 15.416V123.297L484.147 123.294Z" fill="url(#paint0_linear_290_944)"/>
<g style="mix-blend-mode:overlay" opacity="0.25">
<path d="M5.85804 1.47607V254.671" stroke="#FEFDFF" stroke-width="2" stroke-linecap="round" stroke-linejoin="round"/>
</g>
<g style="mix-blend-mode:overlay" opacity="0.25">
<path d="M65.6446 1.47607V254.671" stroke="#FEFDFF" stroke-width="2" stroke-linecap="round" stroke-linejoin="round"/>
</g>
<g style="mix-blend-mode:overlay" opacity="0.25">
<path d="M125.428 1.47607V254.671" stroke="#FEFDFF" stroke-width="2" stroke-linecap="round" stroke-linejoin="round"/>
</g>
<g style="mix-blend-mode:overlay" opacity="0.25">
<path d="M185.214 1.47607V254.671" stroke="#FEFDFF" stroke-width="2" stroke-linecap="round" stroke-linejoin="round"/>
</g>
<g style="mix-blend-mode:overlay" opacity="0.25">
<path d="M245.001 1.47607V254.671" stroke="#FEFDFF" stroke-width="2" stroke-linecap="round" stroke-linejoin="round"/>
</g>
<g style="mix-blend-mode:overlay" opacity="0.25">
<path d="M304.787 1.47607V254.671" stroke="#FEFDFF" stroke-width="2" stroke-linecap="round" stroke-linejoin="round"/>
</g>
<g style="mix-blend-mode:overlay" opacity="0.25">
<path d="M364.574 1.47607V254.671" stroke="#FEFDFF" stroke-width="2" stroke-linecap="round" stroke-linejoin="round"/>
</g>
<g style="mix-blend-mode:overlay" opacity="0.25">
<path d="M424.36 1.47607V254.671" stroke="#FEFDFF" stroke-width="2" stroke-linecap="round" stroke-linejoin="round"/>
</g>
<g style="mix-blend-mode:overlay" opacity="0.25">
<path d="M484.147 1.47607V254.671" stroke="#FEFDFF" stroke-width="2" stroke-linecap="round" stroke-linejoin="round"/>
</g>
<path d="M484.147 16.5464C443.536 17.3111 457.267 121.286 424.36 121.286C391.454 121.286 397.79 69.2928 364.574 69.2928C331.358 69.2928 346.858 152.18 304.787 152.18C262.717 152.18 283.461 99.4337 243.604 99.4337C203.746 99.4337 225.072 177.8 185.214 177.8C145.357 177.8 163.073 105.462 125.428 105.462C87.7828 105.462 98.857 152.18 67.8574 152.18C36.8577 152.18 38.9397 120.573 9.97734 116.415C8.66962 116.226 7.29653 116.129 5.85804 116.129" stroke="url(#paint1_linear_290_944)" stroke-width="2" stroke-miterlimit="10"/>
<path d="M483.57 249.89H8.07081V177.3C36.9885 178.685 39.714 207.325 65.6411 207.325C91.5682 207.325 92.2118 161.976 125.428 161.976C158.644 161.976 151.998 231.301 185.214 231.301C218.43 231.301 216.214 195.508 245.001 195.508C273.788 195.508 280.429 139.748 304.787 139.748C329.145 139.748 331.358 195.508 364.574 195.508C397.79 195.508 393.361 155.572 424.36 155.572C455.36 155.572 461.818 100.876 484.269 102.072C484.269 106.593 483.57 245.994 483.57 249.89Z" fill="url(#paint2_linear_290_944)"/>
<path d="M484.147 102.448C461.696 101.253 454.41 155.572 424.364 155.572C394.317 155.572 397.793 195.508 364.577 195.508C331.361 195.508 329.149 139.748 304.791 139.748C280.433 139.748 273.791 195.508 245.004 195.508C216.217 195.508 219.877 231.301 186.661 231.301C153.446 231.301 158.647 161.977 125.431 161.977C92.2152 161.977 92.2152 207.321 65.6446 207.321C39.0739 207.321 36.9919 178.681 8.07428 177.296C7.36536 177.248 6.61171 177.226 5.8615 177.226" stroke="url(#paint3_linear_290_944)" stroke-width="2" stroke-miterlimit="10"/>
<path d="M6 122.066C9.31371 122.066 12 119.38 12 116.066C12 112.752 9.31371 110.066 6 110.066C2.68629 110.066 0 112.752 0 116.066C0 119.38 2.68629 122.066 6 122.066Z" fill="#A78BFA"/>
<path d="M484 23.0659C487.314 23.0659 490 20.3796 490 17.0659C490 13.7522 487.314 11.0659 484 11.0659C480.686 11.0659 478 13.7522 478 17.0659C478 20.3796 480.686 23.0659 484 23.0659Z" fill="#A78BFA"/>
<path d="M484 109.066C487.314 109.066 490 106.38 490 103.066C490 99.7522 487.314 97.0659 484 97.0659C480.686 97.0659 478 99.7522 478 103.066C478 106.38 480.686 109.066 484 109.066Z" fill="#962DFF"/>
<path d="M6 183.066C9.31371 183.066 12 180.38 12 177.066C12 173.752 9.31371 171.066 6 171.066C2.68629 171.066 0 173.752 0 177.066C0 180.38 2.68629 183.066 6 183.066Z" fill="#D8B4FE"/>
<defs>
<linearGradient id="paint0_linear_290_944" x1="244.529" y1="214.541" x2="252.794" y2="-211.979" gradientUnits="userSpaceOnUse">
<stop stop-color="#C4B5FD" stop-opacity="0"/>
<stop offset="1" stop-color="#4A3AFF"/>
</linearGradient>
<linearGradient id="paint1_linear_290_944" x1="244.557" y1="36.6719" x2="245.53" y2="185.941" gradientUnits="userSpaceOnUse">
<stop stop-color="#8B5CF6"/>
<stop offset="0.26" stop-color="#7C3AED"/>
<stop offset="1" stop-color="#4A3AFF"/>
</linearGradient>
<linearGradient id="paint2_linear_290_944" x1="245.073" y1="250.227" x2="242.622" y2="35.681" gradientUnits="userSpaceOnUse">
<stop stop-color="#D8B4FE" stop-opacity="0"/>
<stop offset="1" stop-color="#962DFF"/>
</linearGradient>
<linearGradient id="paint3_linear_290_944" x1="5.85805" y1="191.143" x2="484.147" y2="191.143" gradientUnits="userSpaceOnUse">
<stop stop-color="#D8B4FE"/>
<stop offset="1" stop-color="#962DFF"/>
</linearGradient>
</defs>
</svg>
