<svg width="256" height="233" viewBox="0 0 256 233" fill="none" xmlns="http://www.w3.org/2000/svg">
<path d="M250.002 106.54C277.445 176.27 195.181 206.355 132.845 223.697C41.0857 249.226 9.60672 191.131 3.11303 126.753C-3.97448 56.4831 -4.96299 49.8287 128.974 5.80166C208.179 -20.2338 226.305 46.3309 250.002 106.539V106.54Z" fill="#625b53"/>
<path d="M128.923 232.173C190.362 232.173 240.169 226.393 240.169 219.264C240.169 212.134 190.362 206.354 128.923 206.354C67.4832 206.354 17.6765 212.134 17.6765 219.264C17.6765 226.393 67.4832 232.173 128.923 232.173Z" fill="#F9D0B7"/>
<path d="M233.4 213.762C233.449 214.657 232.759 215.427 231.865 215.472C230.966 215.522 230.199 214.832 230.153 213.936L227.411 162.413C227.365 161.518 228.052 160.751 228.949 160.701C229.847 160.655 230.611 161.344 230.657 162.243L233.4 213.762Z" fill="#366ACF"/>
<path d="M150.834 214.694C150.787 215.589 151.478 216.354 152.373 216.406C153.271 216.452 154.035 215.761 154.085 214.866L156.825 163.344C156.875 162.447 156.185 161.68 155.287 161.635C154.389 161.585 153.623 162.277 153.577 163.171L150.834 214.694Z" fill="#366ACF"/>
<path d="M236.602 161.667L140.166 161.213L144.987 50.4395L232.966 50.4511L236.602 161.667Z" fill="#336ACF"/>
<path d="M234.944 161.667L141.592 161.213L146.258 50.4395L231.422 50.4511L234.944 161.667Z" fill="#67B1E2"/>
<path d="M234.555 50.0341C234.555 50.5155 234.074 50.9084 233.471 50.9084L144.594 50.8959C144 50.8959 143.529 50.5047 143.537 50.0234L143.563 48.2875C143.57 47.8133 144.052 47.4258 144.644 47.4258H233.473C234.073 47.4258 234.554 47.8151 234.554 48.2911V50.0341H234.555Z" fill="#336ACF"/>
<path d="M237.246 164.066C237.246 164.609 236.761 165.058 236.144 165.054L138.756 164.582C138.149 164.578 137.67 164.128 137.682 163.585L137.713 161.625C137.722 161.082 138.211 160.649 138.821 160.651L236.146 161.108C236.762 161.112 237.246 161.551 237.246 162.097V164.066Z" fill="#336ACF"/>
<path d="M189.677 65.2519C179.643 65.2429 171.422 73.3895 171.307 83.4756C171.2 93.5957 179.283 101.846 189.379 101.87C199.484 101.894 207.716 93.6716 207.771 83.5328C207.823 73.4315 199.717 65.259 189.677 65.251V65.2519ZM189.463 91.3525C185.151 91.3454 181.687 87.8217 181.727 83.4926C181.768 79.1688 185.289 75.6755 189.592 75.6791C193.894 75.6862 197.359 79.1911 197.328 83.5167C197.302 87.8512 193.777 91.3597 189.463 91.3525Z" fill="white"/>
<path d="M189.727 68.6077C181.551 68.6005 174.854 75.2424 174.763 83.4622C174.679 91.7088 181.273 98.424 189.487 98.4427C197.717 98.4615 204.424 91.7651 204.471 83.5122C204.521 75.2799 197.917 68.6157 189.728 68.6077H189.727ZM189.536 92.5384C184.558 92.5313 180.563 88.4691 180.615 83.4747C180.662 78.4884 184.722 74.4575 189.684 74.4629C194.648 74.4682 198.646 78.5161 198.611 83.5006C198.582 88.5022 194.518 92.55 189.536 92.5384Z" fill="#0C48B8"/>
<path d="M204.355 83.9205V83.9188L198.642 83.9116C198.611 88.7855 194.648 92.7351 189.791 92.7235C189.5 92.7235 189.202 92.7065 188.912 92.6788L188.867 98.4304C189.16 98.4492 189.455 98.4769 189.747 98.4769C197.769 98.4956 204.31 91.968 204.355 83.9205Z" fill="#336ACF"/>
<path d="M174.597 83.5193C174.512 91.6105 180.863 98.214 188.868 98.4703L188.916 92.5723C184.15 92.3258 180.397 88.3726 180.447 83.5327C180.47 80.7449 181.751 78.2606 183.732 76.6104C182.535 74.9691 181.296 73.3207 180.21 71.9661C176.833 74.6852 174.647 78.8464 174.597 83.5193Z" fill="#253D81"/>
<path d="M214.277 65.6678C214.277 66.2795 213.78 66.7813 213.165 66.7813C212.55 66.7813 212.053 66.2795 212.058 65.6642C212.062 65.0508 212.56 64.5525 213.177 64.5525C213.794 64.5525 214.283 65.0526 214.276 65.6678H214.277Z" fill="#336ACF"/>
<path d="M214.677 86.1117C214.673 86.7305 214.175 87.2324 213.56 87.2324C212.946 87.2306 212.442 86.727 212.446 86.1064C212.45 85.4893 212.953 84.9893 213.565 84.9893C214.182 84.991 214.68 85.4929 214.677 86.1117Z" fill="#0C48B8"/>
<path d="M166.159 67.3279C166.147 67.9414 165.638 68.4396 165.035 68.4396C164.431 68.4396 163.934 67.9396 163.942 67.3261C163.949 66.7108 164.449 66.2144 165.062 66.2144C165.676 66.2144 166.162 66.7162 166.159 67.3279Z" fill="#0C48B8"/>
<path d="M211.671 66.785C211.732 66.8609 211.56 67.0939 211.297 67.3091L200.427 76.1022C200.156 76.3192 199.888 76.4317 199.83 76.3594C199.769 76.2853 199.937 76.0486 200.206 75.8334L211.078 67.0404C211.347 66.8234 211.607 66.7109 211.671 66.785Z" fill="#336ACF"/>
<path d="M167.068 68.3451C167.007 68.4192 167.171 68.654 167.433 68.8692L178.134 77.6811C178.4 77.8981 178.657 78.0124 178.718 77.9365C178.783 77.8641 178.618 77.6275 178.358 77.4123L167.653 68.604C167.388 68.3852 167.129 68.2709 167.067 68.3451H167.068Z" fill="#72849A"/>
<path d="M211.978 86.3224C211.978 86.417 211.823 86.5036 211.618 86.509L203.446 86.7867C203.244 86.7938 203.085 86.7215 203.073 86.6277C203.073 86.5313 203.237 86.4483 203.435 86.4411L211.607 86.1616C211.807 86.1545 211.968 86.2268 211.978 86.3232V86.3224Z" fill="#0C48B8"/>
<path d="M227.864 66.4332L215.714 66.4225L215.718 65.0312L227.864 65.0402V66.4332Z" fill="#F8FFFF"/>
<path d="M227.857 68.1949L215.707 68.1832V67.6501L227.86 67.6635L227.857 68.1949Z" fill="#F8FFFF"/>
<path d="M227.857 69.3007L215.699 69.2882L215.707 68.7542L227.857 68.7675V69.3007Z" fill="#F8FFFF"/>
<path d="M227.857 70.4088L215.695 70.3954V69.8623L227.857 69.8766V70.4088Z" fill="#F8FFFF"/>
<path d="M227.855 71.516L215.692 71.5017L215.695 70.9695L227.855 70.9847V71.516Z" fill="#F8FFFF"/>
<path d="M228.25 86.7619L216.059 86.7431L216.063 85.3394L228.252 85.3608L228.25 86.7619Z" fill="#F8FFFF"/>
<path d="M228.245 88.5361L216.051 88.5156L216.055 87.9807L228.25 87.9995L228.245 88.5361Z" fill="#F8FFFF"/>
<path d="M228.245 89.6515L216.047 89.6274L216.051 89.0898L228.245 89.1122V89.6515Z" fill="#F8FFFF"/>
<path d="M228.242 90.765L216.042 90.7444V90.2051L228.242 90.2274V90.765Z" fill="#F8FFFF"/>
<path d="M228.238 91.8778L216.042 91.8563V91.3206L228.242 91.3447L228.238 91.8778Z" fill="#F8FFFF"/>
<path d="M162.48 67.7228L150.397 67.7112L150.417 66.3218L162.5 66.3334L162.48 67.7228Z" fill="#F8FFFF"/>
<path d="M162.459 69.481L150.371 69.4676L150.378 68.9363L162.467 68.947L162.459 69.481Z" fill="#F8FFFF"/>
<path d="M162.449 70.5829L150.356 70.5677L150.36 70.0417L162.452 70.0525L162.449 70.5829Z" fill="#F8FFFF"/>
<path d="M162.432 71.6884L150.335 71.6777L150.343 71.1455L162.44 71.1571L162.432 71.6884Z" fill="#F8FFFF"/>
<path d="M162.416 72.7929L150.321 72.7795L150.328 72.25L162.424 72.2607L162.416 72.7929Z" fill="#F8FFFF"/>
<path d="M121.288 70.8027H131.503C133.297 70.8027 134.753 72.2583 134.753 74.0532V79.5405C134.753 81.2175 133.482 82.5971 131.851 82.7712C131.838 83.9866 132.156 84.8304 132.156 84.8304L128.137 82.7909H121.288C119.493 82.7909 118.038 81.3353 118.038 79.5405V74.0532C118.038 72.2583 119.493 70.8027 121.288 70.8027Z" fill="#F7BD35"/>
<path d="M130.969 77.6209C131.327 77.6209 131.618 77.3302 131.618 76.9717C131.618 76.6132 131.327 76.3225 130.969 76.3225C130.61 76.3225 130.319 76.6132 130.319 76.9717C130.319 77.3302 130.61 77.6209 130.969 77.6209Z" fill="white"/>
<path d="M126.396 77.6209C126.754 77.6209 127.045 77.3302 127.045 76.9717C127.045 76.6132 126.754 76.3225 126.396 76.3225C126.037 76.3225 125.746 76.6132 125.746 76.9717C125.746 77.3302 126.037 77.6209 126.396 77.6209Z" fill="white"/>
<path d="M121.822 77.6209C122.18 77.6209 122.471 77.3302 122.471 76.9717C122.471 76.6132 122.18 76.3225 121.822 76.3225C121.463 76.3225 121.173 76.6132 121.173 76.9717C121.173 77.3302 121.463 77.6209 121.822 77.6209Z" fill="white"/>
<path d="M107.312 91.4966H97.3795C95.7308 91.4966 94.3943 92.8331 94.3943 94.4818V98.9779C94.3943 100.627 95.7308 101.963 97.3795 101.963H107.312C108.961 101.963 110.297 100.627 110.297 98.9779V94.4818C110.297 92.8331 108.961 91.4966 107.312 91.4966Z" fill="#346AD6"/>
<g opacity="0.8">
<path d="M108.286 94.1238H96.4071V95.1132H108.286V94.1238Z" fill="white"/>
</g>
<g opacity="0.8">
<path d="M108.286 96.2358H96.4071V97.2253H108.286V96.2358Z" fill="white"/>
</g>
<g opacity="0.8">
<path d="M108.286 98.3477H96.4071V99.3371H108.286V98.3477Z" fill="white"/>
</g>
<path d="M98.4136 112.556L96.1561 110.79H100.672L98.4136 112.556Z" fill="#0C48B8"/>
<path d="M100.038 100.324H90.1054C88.4567 100.324 87.1202 101.661 87.1202 103.31V107.806C87.1202 109.454 88.4567 110.791 90.1054 110.791H100.038C101.687 110.791 103.023 109.454 103.023 107.806V103.31C103.023 101.661 101.687 100.324 100.038 100.324Z" fill="#0C48B8"/>
<g opacity="0.8">
<path d="M92.0235 106.298H90.484V108.201H92.0235V106.298Z" fill="white"/>
<path d="M94.4961 104.18H92.9566V108.201H94.4961V104.18Z" fill="white"/>
<path d="M97.0777 105.092H95.5382V108.2H97.0777V105.092Z" fill="white"/>
<path d="M99.6593 102.916H98.1198V108.201H99.6593V102.916Z" fill="white"/>
</g>
<path d="M92.5691 56.1033H72.5326V66.5251H92.5691V56.1033Z" fill="#FF9316"/>
<path d="M88.231 66.5244V70.775L90.0018 66.5244H88.231Z" fill="#FF9316"/>
<path d="M90.1295 58.5374H74.9722C74.9333 58.5374 74.9017 58.5689 74.9017 58.6079V58.8945C74.9017 58.9335 74.9333 58.9651 74.9722 58.9651H90.1295C90.1685 58.9651 90.2001 58.9335 90.2001 58.8945V58.6079C90.2001 58.5689 90.1685 58.5374 90.1295 58.5374Z" fill="white"/>
<path d="M90.1295 60.7324H74.9722C74.9333 60.7324 74.9017 60.764 74.9017 60.803V61.0896C74.9017 61.1286 74.9333 61.1602 74.9722 61.1602H90.1295C90.1685 61.1602 90.2001 61.1286 90.2001 61.0896V60.803C90.2001 60.764 90.1685 60.7324 90.1295 60.7324Z" fill="white"/>
<path d="M88.3551 62.9265H76.7465C76.7125 62.9265 76.6849 62.9541 76.6849 62.9881V63.2926C76.6849 63.3267 76.7125 63.3542 76.7465 63.3542H88.3551C88.3892 63.3542 88.4168 63.3267 88.4168 63.2926V62.9881C88.4168 62.9541 88.3892 62.9265 88.3551 62.9265Z" fill="white"/>
<path d="M163.618 208.22V164.781H166.27V208.22C176.952 208.36 185.402 210.153 185.402 212.345C185.402 214.537 176.237 216.48 164.932 216.48C153.627 216.48 144.461 214.628 144.461 212.345C144.461 210.062 152.925 208.356 163.619 208.22H163.618Z" fill="#E25F29"/>
<path d="M166.941 191.007H162.949C162.682 191.007 162.466 190.791 162.466 190.525V165.613H167.423V190.525C167.423 190.791 167.207 191.007 166.941 191.007Z" fill="#F27F3E"/>
<path d="M203.03 111.225L190.032 165.37C189.613 167.118 188.051 168.349 186.253 168.349H155.748C153.227 168.349 151.373 165.986 151.974 163.537L165.265 109.392C165.692 107.654 167.25 106.433 169.039 106.433H199.251C201.764 106.433 203.616 108.782 203.03 111.226L203.03 111.225Z" fill="#E25F29"/>
<path d="M199.672 111.225L186.675 165.37C186.255 167.118 184.693 168.349 182.896 168.349H152.39C149.869 168.349 148.015 165.985 148.026 164.181L161.317 110.035C162.334 107.653 163.892 106.431 165.681 106.431H195.894C198.407 106.431 200.259 108.781 199.673 111.225H199.672Z" fill="#F27F3E"/>
<path d="M182.896 165.71H152.39C151.862 165.71 151.549 165.411 151.41 165.233C151.269 165.054 151.054 164.679 151.18 164.167L164.471 110.021C164.609 109.462 165.106 109.072 165.682 109.072H195.895C196.421 109.072 196.734 109.37 196.873 109.547C197.013 109.725 197.23 110.098 197.107 110.61L184.109 164.755C183.974 165.318 183.476 165.711 182.898 165.711L182.896 165.71ZM165.68 109.421C165.266 109.421 164.908 109.702 164.809 110.105L151.518 164.25C151.427 164.619 151.582 164.889 151.683 165.018C151.784 165.146 152.009 165.362 152.389 165.362H182.895C183.312 165.362 183.67 165.079 183.767 164.674L196.765 110.529C196.854 110.16 196.698 109.891 196.598 109.763C196.497 109.636 196.272 109.421 195.893 109.421H165.68V109.421Z" fill="#F5E3A1"/>
<path d="M134.185 169.954H185.42C187.462 169.954 189.235 168.547 189.698 166.558L190.384 163.609H135.662L134.186 169.954H134.185Z" fill="#5C554C"/>
<path d="M134.888 169.954H182.127C184.169 169.954 185.942 168.547 186.404 166.558L187.091 163.609H134.888C133.413 163.609 132.132 164.626 131.797 166.063C131.335 168.052 132.845 169.954 134.888 169.954Z" fill="#E25F29"/>
<path d="M63.2207 212.473V169.035H60.5685V212.474C49.8868 212.614 41.4366 214.407 41.4366 216.599C41.4366 218.791 50.6021 220.733 61.9071 220.733C73.2121 220.733 82.3776 218.882 82.3776 216.599C82.3776 214.316 73.914 212.61 63.2198 212.473H63.2207Z" fill="#336ACF"/>
<path d="M59.8979 195.261H63.8904C64.1565 195.261 64.3726 195.045 64.3726 194.779V169.866H59.4157V194.779C59.4157 195.045 59.6318 195.261 59.8979 195.261Z" fill="#0C48B8"/>
<path d="M23.8103 115.479L36.8075 169.624C37.2272 171.372 38.789 172.603 40.5865 172.603H71.0922C73.6131 172.603 75.4669 170.24 74.8659 167.791L61.5749 113.646C61.1481 111.908 59.5898 110.687 57.8012 110.687H27.5885C25.0756 110.687 23.2227 113.036 23.8094 115.48L23.8103 115.479Z" fill="#0C48B8"/>
<path d="M27.1679 115.479L40.1651 169.624C40.5848 171.372 42.1466 172.603 43.9441 172.603H74.4498C76.9706 172.603 78.8245 170.24 78.2235 167.791L64.9325 113.646C64.5057 111.908 62.9483 110.687 61.1588 110.687H30.946C28.4332 110.687 26.5812 113.036 27.167 115.48L27.1679 115.479Z" fill="#336ACF"/>
<path d="M42.7315 169.008L29.7343 114.863C29.6119 114.351 29.828 113.977 29.9673 113.801C30.1075 113.623 30.4201 113.325 30.946 113.325H61.1588C61.7339 113.325 62.2322 113.716 62.3697 114.275L75.6607 168.42C75.7866 168.933 75.5705 169.308 75.4312 169.486C75.291 169.664 74.9784 169.963 74.4507 169.963H43.945C43.3664 169.963 42.8681 169.57 42.7333 169.008L42.7315 169.008ZM30.946 113.675C30.5674 113.675 30.3415 113.889 30.2415 114.017C30.1406 114.144 29.9852 114.413 30.0736 114.782L43.0717 168.927C43.169 169.333 43.528 169.615 43.9441 169.615H74.4498C74.8293 169.615 75.0552 169.4 75.1561 169.271C75.2571 169.142 75.4124 168.872 75.3213 168.503L62.0304 114.358C61.9312 113.955 61.5732 113.674 61.1588 113.674H30.946V113.675Z" fill="#1E9DD8"/>
<path d="M92.6548 174.208H41.4197C39.3775 174.208 37.6049 172.801 37.1424 170.812L36.4557 167.863H91.1778L92.6539 174.208H92.6548Z" fill="#0A3371"/>
<path d="M91.952 174.208H44.713C42.6707 174.208 40.8982 172.801 40.4356 170.812L39.7489 167.863H91.952C93.4272 167.863 94.7077 168.88 95.0426 170.317C95.5052 172.306 93.9951 174.208 91.952 174.208Z" fill="#0A3371"/>
<path d="M166.252 86.2604C166.477 82.8491 163.894 79.9015 160.483 79.6767C157.072 79.4519 154.124 82.0351 153.899 85.4464C153.674 88.8577 156.258 91.8053 159.669 92.0301C163.08 92.2548 166.028 89.6717 166.252 86.2604Z" fill="#FA9B1B"/>
<path d="M134.44 109.623C134.252 109.413 134.054 109.307 133.979 109.267C132.426 108.434 131.187 107.463 128.788 106.282C128.788 106.282 128.465 106.123 128.02 105.801C127.689 105.561 127.521 105.392 127.394 105.185C127.265 104.975 127.22 104.789 127.2 104.725C127.084 104.354 126.801 103.631 126.077 102.094C125.819 101.76 125.581 101.533 125.409 101.386C125.305 101.298 125.219 101.234 125.12 101.11C124.903 100.842 124.839 100.563 124.815 100.463C124.793 100.373 124.51 99.7119 123.943 98.3903C123.396 97.117 123.109 96.6723 123.303 96.4642C123.417 96.3437 123.628 96.3722 123.747 96.3892C124.339 96.4714 124.712 97.0732 125.234 97.9421C125.434 98.2743 125.582 98.5636 125.685 98.7743C125.733 98.6082 126.467 96.099 126.824 95.1355C126.865 95.0247 126.957 94.789 127.14 94.7461C127.375 94.6908 127.655 94.981 127.791 95.2149C127.961 95.5105 127.956 95.8123 127.947 95.9784C127.896 96.9232 127.479 97.9894 127.312 98.3921C127.834 97.5822 128.212 96.9098 128.46 96.4455C128.808 95.7954 129.034 95.3042 129.346 95.315C129.63 95.3257 129.822 95.7472 129.833 95.7704C130.088 96.3508 129.66 96.9259 129.063 98.3573C128.842 98.8842 128.683 99.328 128.578 99.6316C128.744 99.403 128.955 99.1413 129.22 98.8717C129.592 98.493 129.668 98.5046 130.059 98.1135C130.539 97.6331 130.616 97.4233 130.806 97.4429C131.048 97.4679 131.233 97.843 131.266 98.1403C131.278 98.2555 131.283 98.485 131.04 98.9217C130.892 99.1878 130.606 99.6137 130.074 100.016C129.978 100.277 129.883 100.538 129.786 100.799C130.294 100.99 131.047 101.282 131.95 101.664C134.338 102.675 135.363 103.331 136.042 103.824C136.042 103.824 136.919 104.462 137.716 105.561C137.993 105.943 138.05 106.147 138.071 106.249C138.136 106.545 138.07 106.714 138.168 107.074C138.215 107.249 138.278 107.384 138.362 107.544C138.589 107.972 142.066 115.246 142.806 116.385C142.13 116.962 138.762 119.661 138.294 119.844C137.802 118.712 134.899 110.478 134.729 110.082C134.695 110.003 134.615 109.815 134.441 109.621L134.44 109.623Z" fill="#FAB8C2"/>
<path d="M128.367 104.503C128.389 104.49 128.4 104.462 128.392 104.437C128.171 103.732 127.966 103.02 127.766 102.26C127.699 102.009 127.599 101.629 127.717 101.199C127.732 101.149 127.758 101.053 127.941 100.693C128.104 100.375 128.285 100.056 128.48 99.7448C128.497 99.718 128.489 99.6823 128.461 99.6644C128.434 99.6474 128.398 99.6564 128.382 99.6832C128.185 99.9975 128.002 100.32 127.839 100.64C127.65 101.01 127.622 101.113 127.607 101.168C127.48 101.628 127.585 102.025 127.655 102.289C127.856 103.051 128.061 103.764 128.282 104.471C128.292 104.502 128.324 104.519 128.354 104.51C128.358 104.508 128.363 104.506 128.367 104.503H128.367Z" fill="#DE8A6D"/>
<path d="M127.386 103.878C127.408 103.864 127.419 103.836 127.41 103.811C127.115 102.925 126.63 101.399 126.596 101.293C126.559 101.181 126.483 100.949 126.522 100.652C126.54 100.506 126.58 100.4 126.599 100.349C126.821 99.7565 127.29 98.6198 127.294 98.6081C127.307 98.5787 127.292 98.5447 127.263 98.5322C127.233 98.5197 127.199 98.5349 127.187 98.5635C127.182 98.5751 126.716 99.7038 126.491 100.308C126.471 100.363 126.428 100.477 126.407 100.637C126.366 100.958 126.448 101.208 126.486 101.327C126.52 101.434 127.007 102.96 127.301 103.847C127.311 103.878 127.344 103.895 127.374 103.884C127.379 103.882 127.383 103.88 127.387 103.878H127.386Z" fill="#DE8A6D"/>
<path d="M126.188 102.136C126.213 102.12 126.222 102.088 126.209 102.062C125.845 101.311 125.606 100.768 125.535 100.585C125.499 100.493 125.463 100.378 125.463 100.231C125.463 100.151 125.474 100.091 125.48 100.065C125.513 99.888 125.569 99.5603 125.666 98.9683C125.672 98.937 125.65 98.9067 125.618 98.9022C125.587 98.8968 125.556 98.9183 125.551 98.9504C125.455 99.5415 125.399 99.8675 125.365 100.043C125.36 100.073 125.346 100.141 125.346 100.231C125.346 100.399 125.388 100.531 125.426 100.627C125.498 100.812 125.739 101.36 126.104 102.112C126.118 102.141 126.152 102.153 126.181 102.139C126.183 102.138 126.185 102.137 126.187 102.137L126.188 102.136Z" fill="#DE8A6D"/>
<path d="M134.394 106.207C134.394 106.207 134.4 106.202 134.403 106.199C134.426 106.177 134.427 106.141 134.405 106.117C133.865 105.548 133.228 105.098 132.512 104.78C131.763 104.447 130.935 104.271 130.112 104.269C130.089 104.029 130.041 103.792 129.969 103.563C129.86 103.22 129.697 102.898 129.485 102.604C129.584 102.306 129.66 101.999 129.713 101.69C129.751 101.469 129.777 101.244 129.792 101.02C129.793 100.988 129.769 100.96 129.737 100.959C129.706 100.957 129.677 100.981 129.676 101.013C129.661 101.234 129.635 101.454 129.598 101.671C129.544 101.984 129.466 102.295 129.365 102.597C129.359 102.615 129.362 102.635 129.373 102.65C129.585 102.94 129.749 103.26 129.857 103.6C129.932 103.838 129.98 104.084 130.001 104.333C130.003 104.363 130.028 104.387 130.059 104.387C130.883 104.38 131.714 104.554 132.463 104.888C133.165 105.199 133.79 105.64 134.319 106.199C134.338 106.22 134.369 106.223 134.391 106.208L134.394 106.207Z" fill="#DE8A6D"/>
<path d="M135.677 109.305C135.805 109.226 135.926 109.135 136.041 109.036C136.065 109.016 136.067 108.979 136.046 108.954C136.026 108.93 135.99 108.926 135.964 108.949C135.785 109.103 135.588 109.234 135.376 109.34C135.179 109.437 134.97 109.511 134.754 109.56C134.723 109.567 134.703 109.598 134.71 109.628C134.717 109.66 134.748 109.679 134.779 109.672C135.004 109.622 135.222 109.545 135.427 109.443C135.512 109.401 135.596 109.355 135.676 109.305H135.677Z" fill="#DE8A6D"/>
<path d="M156.961 79.4905C156.486 90.6518 164.013 111.352 173.687 111.763C183.359 112.175 204.368 104.517 190.148 88.5783C182.71 80.2424 183.579 67.531 173.906 67.1193C164.234 66.7077 157.437 68.3293 156.962 79.4905H156.961Z" fill="#6C413E"/>
<path d="M135.797 116.517C135.797 116.517 139.053 111.559 140.764 111.425L149.613 125.594C150.238 122.841 151.275 118.553 152.507 114.543C154.538 107.933 157.401 106.579 157.401 106.579C161.632 108.657 161.791 115.992 161.791 115.992L160.87 131.334C160.284 131.398 159.708 131.428 159.146 131.432L159.49 140.599C159.49 140.599 157.281 144.09 152.613 143.592C149.138 143.222 142.999 136.351 141.165 132.888C139.149 129.081 135.796 116.517 135.796 116.517H135.797Z" fill="#8B283D"/>
<mask id="mask0_1181_3465" style="mask-type:luminance" maskUnits="userSpaceOnUse" x="135" y="106" width="27" height="38">
<path d="M135.797 116.517C135.797 116.517 139.053 111.559 140.764 111.425L149.613 125.594C150.238 122.841 151.275 118.553 152.507 114.543C154.538 107.933 157.401 106.579 157.401 106.579C161.632 108.657 161.791 115.992 161.791 115.992L160.87 131.334C160.284 131.398 159.708 131.428 159.146 131.432L159.49 140.599C159.49 140.599 157.281 144.09 152.613 143.592C149.138 143.222 142.999 136.351 141.165 132.888C139.149 129.081 135.796 116.517 135.796 116.517H135.797Z" fill="white"/>
</mask>
<g mask="url(#mask0_1181_3465)">
<path d="M157.51 118.797C157.51 118.797 157.32 139.905 152.483 138.253C151.194 137.813 151.625 143.634 151.625 143.634L155.963 145.011L159.575 141.202L160.53 131.368L157.51 118.797Z" fill="#651629"/>
</g>
<path d="M168.726 88.6022C168.726 88.6022 169.154 100.598 168.834 101.866C168.514 103.134 164.881 104.171 162.204 104.706C162.204 104.706 159.348 120.755 167.317 120.525C175.287 120.296 184.602 108.42 185.852 106.594C185.852 106.594 179.525 104.165 179.326 102.011C179.088 99.4322 179.216 88.5156 179.216 88.5156L168.726 88.6013V88.6022Z" fill="#FAB8C2"/>
<path d="M180.002 87.7791L168.725 88.6024C168.725 88.6024 168.961 98.2974 168.88 101.868C171.612 101.868 179.84 97.9178 180.001 87.7799L180.002 87.7791Z" fill="#F48E90"/>
<path d="M181.775 80.5345C182.218 88.2096 177.144 94.1318 174.218 96.333C171.919 98.0618 171.663 98.0805 169.799 98.2198C164.89 98.5868 160.88 93.9103 160.15 83.1286C159.269 70.1225 163.858 68.7134 170.173 68.2419C178.372 67.6293 181.263 71.6852 181.775 80.5336V80.5345Z" fill="#FAB8C2"/>
<mask id="mask1_1181_3465" style="mask-type:luminance" maskUnits="userSpaceOnUse" x="160" y="68" width="22" height="31">
<path d="M181.775 80.5345C182.218 88.2096 177.144 94.1318 174.218 96.333C171.919 98.0618 171.663 98.0805 169.799 98.2198C164.89 98.5868 160.88 93.9103 160.15 83.1286C159.269 70.1225 163.858 68.7134 170.173 68.2419C178.372 67.6293 181.263 71.6852 181.775 80.5336V80.5345Z" fill="white"/>
</mask>
<g mask="url(#mask1_1181_3465)">
<path d="M158.714 90.5662C158.648 92.1181 159.853 93.4299 161.405 93.496C162.957 93.5621 164.268 92.3575 164.334 90.8055C164.401 89.2535 163.196 87.9417 161.644 87.8756C160.092 87.8096 158.78 89.0142 158.714 90.5662Z" fill="#F38891"/>
<path d="M175.556 91.4539C177.103 91.3164 178.246 89.9504 178.108 88.403C177.971 86.8556 176.605 85.7127 175.057 85.8503C173.51 85.9879 172.367 87.3538 172.505 88.9012C172.642 90.4486 174.008 91.5915 175.556 91.4539Z" fill="#F38891"/>
</g>
<path d="M163.089 85.6511C163.157 86.5584 162.915 87.3147 162.549 87.3424C162.182 87.3692 161.831 86.6575 161.763 85.7503C161.695 84.8439 161.937 84.0875 162.304 84.0599C162.67 84.0322 163.022 84.7448 163.09 85.6502L163.089 85.6511Z" fill="#231F20"/>
<path d="M172.23 84.9625C172.298 85.8671 172.055 86.6208 171.689 86.6484C171.323 86.6752 170.971 85.9662 170.904 85.0616C170.836 84.1589 171.078 83.4043 171.445 83.3775C171.811 83.3498 172.163 84.0606 172.23 84.9634V84.9625Z" fill="#231F20"/>
<path d="M177.651 82.6846C177.651 82.6846 176.978 80.9951 179.505 80.4049C181.948 79.8343 183.82 85.5823 182.06 87.2736C180.299 88.9649 178.514 86.6825 178.514 86.6825L177.651 82.6846Z" fill="#F7ACAC"/>
<path d="M158.125 74.1535C156.682 78.1334 159.562 84.2878 159.95 81.5803C160.275 79.3086 159.888 78.8255 161.331 74.8455C162.774 70.8656 167.966 69.569 165.393 68.6367C162.822 67.7044 159.567 70.1744 158.124 74.1544L158.125 74.1535Z" fill="#4A2424"/>
<path d="M166.077 84.9395C166.077 84.9395 164.661 89.5927 164.883 89.7544C165.104 89.916 166.505 89.8231 166.505 89.8231L166.078 84.9395H166.077Z" fill="#F48E90"/>
<path d="M163.642 82.2453C162.491 81.1764 160.89 81.364 160.373 82.9481C161.223 81.5747 162.297 81.5131 163.642 82.2453Z" fill="#231F20"/>
<path d="M165.232 92.5268C165.232 92.5268 166.42 94.978 167.496 94.845C168.571 94.7119 169.15 91.457 169.15 91.457C169.15 91.457 168.344 91.9098 167.18 92.2482C166.14 92.5509 165.232 92.5268 165.232 92.5268Z" fill="#9F0526"/>
<mask id="mask2_1181_3465" style="mask-type:luminance" maskUnits="userSpaceOnUse" x="165" y="91" width="5" height="4">
<path d="M165.232 92.5268C165.232 92.5268 166.42 94.978 167.496 94.845C168.571 94.7119 169.15 91.457 169.15 91.457C169.15 91.457 168.344 91.9098 167.18 92.2482C166.14 92.5509 165.232 92.5268 165.232 92.5268Z" fill="white"/>
</mask>
<g mask="url(#mask2_1181_3465)">
<path d="M166.618 95.5362C167.004 96.3863 168.146 96.6997 169.166 96.2353C170.187 95.771 170.701 94.7048 170.315 93.8547C169.928 93.0046 168.787 92.6911 167.766 93.1555C166.745 93.6198 166.231 94.686 166.618 95.5362Z" fill="#D31539"/>
<path d="M169.427 92.0402C169.427 92.0402 167.022 93.5735 164.726 92.7537C164.537 91.6045 164.793 91.2107 164.793 91.2107L166.128 90.8821L168.015 90.3445L169.206 90.6999L169.426 92.0411L169.427 92.0402Z" fill="white"/>
</g>
<path d="M182.532 94.996C182.468 94.996 182.404 94.9943 182.339 94.9916C181.159 94.9416 180.069 94.4344 179.27 93.5646C178.471 92.6949 178.059 91.5653 178.109 90.3847C178.185 88.6015 179.315 87.0477 180.988 86.4253C181.038 86.4066 181.094 86.4324 181.112 86.4825C181.131 86.5325 181.105 86.5878 181.055 86.6066C179.456 87.2013 178.376 88.6872 178.302 90.3928C178.254 91.5215 178.649 92.6011 179.413 93.4333C180.178 94.2656 181.22 94.7505 182.348 94.7978C183.477 94.8451 184.557 94.4513 185.389 93.6869C186.221 92.9226 186.706 91.8805 186.753 90.7518C186.802 89.623 186.407 88.5434 185.643 87.7112C184.878 86.8789 183.836 86.394 182.707 86.3467C182.654 86.344 182.613 86.2994 182.614 86.2458C182.617 86.1922 182.662 86.1503 182.715 86.153C183.896 86.203 184.986 86.7102 185.785 87.5799C186.584 88.4497 186.996 89.5793 186.945 90.7598C186.895 91.9403 186.388 93.0306 185.518 93.8289C184.696 94.5844 183.641 94.9943 182.531 94.9943L182.532 94.996Z" fill="#EE3837"/>
<path d="M162.571 97.7168C162.508 97.7168 162.447 97.7159 162.384 97.7132C159.947 97.6097 158.05 95.5433 158.153 93.1064C158.229 91.3231 159.359 89.7694 161.032 89.147C161.082 89.1282 161.138 89.1541 161.156 89.2041C161.175 89.2541 161.149 89.3095 161.099 89.3282C159.5 89.923 158.419 91.4089 158.346 93.1144C158.247 95.4442 160.062 97.4203 162.392 97.5195C163.359 97.5597 164.319 97.2659 165.094 96.689C165.137 96.6569 165.198 96.6658 165.23 96.7087C165.262 96.7515 165.253 96.8122 165.21 96.8444C164.45 97.4105 163.519 97.7168 162.572 97.7168H162.571Z" fill="#EE3837"/>
<path d="M158.713 73.7986C166.054 75.9971 172.31 84.7616 177.767 84.9938C183.224 85.2259 185.559 82.0005 182.043 75.2006C180.044 71.3367 177.954 67.1424 172.497 66.9102C167.04 66.678 152.67 71.9894 158.713 73.7995V73.7986Z" fill="#6C413E"/>
<path d="M173.366 80.8024C172.215 79.7336 170.614 79.9211 170.097 81.5052C170.947 80.1318 172.02 80.0702 173.366 80.8024Z" fill="#231F20"/>
<path d="M164.79 103.554C164.79 103.554 163.698 114.494 169.15 115.55C169.15 115.55 172.11 118.12 179.575 99.3406C179.575 99.3406 189.729 102.25 191.647 103.116C191.647 103.116 186.847 136.108 186.18 147.553C186.18 147.553 165.63 145.29 154.368 145.933C151.675 147.649 154.321 144.353 157.979 142.155C157.979 142.155 158.077 140.94 158.508 140.211C158.508 140.211 159.47 131.596 158.649 129.307C157.827 127.018 156.418 124.345 156.282 122.894C156.145 121.444 157.935 116.587 158.046 113.566C158.158 110.545 157.401 106.578 157.401 106.578C157.401 106.578 163.556 103.852 164.79 103.554Z" fill="white"/>
<mask id="mask3_1181_3465" style="mask-type:luminance" maskUnits="userSpaceOnUse" x="153" y="99" width="39" height="49">
<path d="M164.79 103.554C164.79 103.554 163.698 114.494 169.15 115.55C169.15 115.55 172.11 118.12 179.575 99.3406C179.575 99.3406 189.729 102.25 191.647 103.116C191.647 103.116 186.847 136.108 186.18 147.553C186.18 147.553 165.63 145.29 154.368 145.933C151.675 147.649 154.321 144.353 157.979 142.155C157.979 142.155 158.077 140.94 158.508 140.211C158.508 140.211 159.47 131.596 158.649 129.307C157.827 127.018 156.418 124.345 156.282 122.894C156.145 121.444 157.935 116.587 158.046 113.566C158.158 110.545 157.401 106.578 157.401 106.578C157.401 106.578 163.556 103.852 164.79 103.554Z" fill="white"/>
</mask>
<g mask="url(#mask3_1181_3465)">
<path d="M179.575 99.3406C179.575 99.3406 163.677 130.225 169.568 145.255C171.098 149.159 186.18 147.553 186.18 147.553L188.981 123.186L191.647 103.116L179.575 99.3406Z" fill="#8B283D"/>
<path d="M164.79 103.553C164.79 103.553 162.53 113.803 165.189 145.151C165.399 147.629 150.613 146.693 150.613 146.693C150.613 146.693 157.884 142.063 158.608 139.223C159.332 136.382 158.906 130.316 158.906 130.316C158.906 130.316 156.784 124.459 156.321 122.88C155.857 121.301 158.085 113.525 158.085 113.525C158.085 113.525 157.881 108.931 157.401 106.578C159.35 105.727 164.789 103.553 164.789 103.553H164.79Z" fill="#8B283D"/>
<path d="M180.791 101.155C180.791 101.155 190.516 104.538 190.714 104.839C190.911 105.139 207.574 124.084 208.21 129.431C208.41 123.185 195.346 104.198 193.087 102.18C190.828 100.161 181.226 98.5127 181.226 98.5127L180.791 101.156V101.155Z" fill="#9B273C"/>
<path d="M186.901 117.993L184.52 134.048L181.96 138.04L168.356 135.463C168.356 135.463 173.444 138.276 174.685 140.013C175.926 141.751 176.147 146.94 176.147 146.94L186.293 148.898L189.958 124.861C189.958 124.861 187.328 120.886 186.9 117.994L186.901 117.993Z" fill="#651629"/>
<path d="M188.671 123.451C188.769 123.357 188.872 123.268 188.98 123.187L187.599 120.458C187.521 120.241 186.336 116.845 186.231 113.104C186.176 111.128 186.417 109.424 186.95 107.996C186.836 107.94 186.725 107.877 186.619 107.805C186.043 109.303 185.776 111.083 185.834 113.124C185.946 117.036 187.217 120.57 187.229 120.606L188.67 123.452L188.671 123.451Z" fill="#651629"/>
</g>
<path d="M158.7 129.342C158.83 129.705 158.913 130.24 158.962 130.877C159.093 130.853 159.223 130.837 159.356 130.831C159.303 130.163 159.213 129.599 159.073 129.209C158.775 128.378 158.401 127.498 158.038 126.648C157.401 125.153 156.8 123.741 156.717 122.844C156.656 122.2 157.025 120.731 157.416 119.175C157.887 117.297 158.422 115.169 158.482 113.541C158.535 112.12 158.394 110.479 158.231 109.141C158.105 109.187 157.977 109.222 157.844 109.248C158.002 110.559 158.136 112.148 158.085 113.527C158.027 115.114 157.498 117.22 157.031 119.079C156.615 120.737 156.255 122.169 156.322 122.882C156.412 123.84 157.025 125.279 157.674 126.803C158.034 127.649 158.406 128.523 158.701 129.343L158.7 129.342Z" fill="#651629"/>
<path d="M106.209 217.689C107.579 215.478 119.861 203.699 119.861 203.699C119.861 203.699 122.372 205.667 122.251 207.835C122.134 209.898 122.221 220.759 122.192 221.903H120.701L119.862 216.948C119.862 216.948 116.467 222.38 113.917 224.24C111.368 226.1 102.754 225.766 100.687 225.49C98.6207 225.214 104.84 219.899 106.21 217.689H106.209Z" fill="#8B283D"/>
<path d="M119.898 197.852L119.701 203.168C119.701 203.168 120.39 204.753 119.701 207.095C119.012 209.437 116.404 213.155 113.914 215.913C111.766 218.293 107.162 220.666 105.784 220.047C104.406 219.427 108.402 214.673 109.573 212.193C110.745 209.712 111.553 207.266 112.11 205.212C112.752 202.845 112.841 197.28 112.841 197.28L119.898 197.852H119.898Z" fill="#FAB8C2"/>
<path d="M166.356 163.603C166.356 163.603 142.925 163.802 137.971 163.009V164.462L136.903 165.274C136.903 165.274 135.972 168.607 134.46 173.696C134.23 174.461 133.995 175.269 133.741 176.112C133.723 176.169 133.704 176.227 133.686 176.284C132.198 181.239 130.316 187.356 128.288 193.558C127.542 195.835 126.78 198.123 126.01 200.369C125.706 201.252 125.404 202.129 125.101 202.995L120.796 201.964L117.449 201.162L103.974 197.935C103.974 197.935 113.123 174.633 118.903 161.623C120.627 157.738 122.051 154.773 122.841 153.615C126.279 148.591 129.102 145.537 141.821 145.283C151.832 145.085 168.34 146.105 168.34 146.105C168.34 146.105 171.648 153.717 166.357 163.602L166.356 163.603Z" fill="#DC1661"/>
<g opacity="0.81">
<path d="M166.356 163.603C166.356 163.603 142.926 163.801 137.971 163.008V164.462L136.903 165.274C136.903 165.274 135.972 168.606 134.46 173.695C134.23 174.461 133.995 175.269 133.741 176.112C133.723 176.169 133.704 176.227 133.686 176.284C135.047 167.479 136.287 155.09 132.96 152.918C129.141 150.422 122.337 157.542 118.903 161.623C120.627 157.739 122.051 154.773 122.841 153.616C126.279 148.591 129.101 145.537 141.82 145.284C151.831 145.085 165.199 145.927 165.199 145.927C165.199 145.927 171.646 153.717 166.355 163.602L166.356 163.603Z" fill="#BA0F52"/>
</g>
<path d="M137.819 162.479C137.727 162.479 137.644 162.413 137.625 162.319C137.615 162.269 136.628 157.26 135.95 155.611C135.908 155.51 135.956 155.394 136.058 155.352C136.159 155.31 136.275 155.358 136.317 155.46C137.01 157.145 137.973 162.035 138.014 162.243C138.035 162.35 137.965 162.455 137.858 162.476C137.844 162.479 137.832 162.48 137.819 162.48V162.479Z" fill="#A41749"/>
<path d="M136.039 164.66C135.929 164.66 135.797 164.571 135.797 164.462V159.701C135.797 159.591 135.929 159.503 136.039 159.503C136.149 159.503 136.281 159.592 136.281 159.701V164.462C136.281 164.572 136.149 164.66 136.039 164.66Z" fill="#A41749"/>
<path d="M123.591 217.689C124.961 215.478 137.243 203.699 137.243 203.699C137.243 203.699 139.754 205.667 139.632 207.835C139.516 209.898 139.603 220.759 139.573 221.903H138.083L137.243 216.948C137.243 216.948 133.848 222.38 131.299 224.24C128.75 226.1 120.136 225.766 118.069 225.49C116.002 225.214 122.222 219.899 123.592 217.689H123.591Z" fill="#8B283D"/>
<path d="M137.28 197.852L137.083 203.168C137.083 203.168 137.772 204.753 137.083 207.095C136.393 209.437 133.786 213.155 131.295 215.913C129.148 218.293 124.544 220.666 123.166 220.047C121.788 219.427 125.784 214.673 126.955 212.193C128.126 209.712 128.934 207.266 129.492 205.212C130.134 202.845 130.223 197.28 130.223 197.28L137.279 197.852H137.28Z" fill="#FAB8C2"/>
<path d="M183.739 163.603C183.739 163.603 160.308 163.801 155.354 163.009V164.462L154.286 165.274C154.286 165.274 153.354 168.607 151.843 173.696C151.612 174.461 151.377 175.269 151.124 176.112C151.106 176.169 151.086 176.227 151.068 176.284C149.581 181.239 147.698 187.356 145.67 193.558C144.925 195.835 144.162 198.123 143.392 200.369C143.089 201.252 142.787 202.129 142.483 202.995L138.178 201.963L134.832 201.162L121.357 197.935C121.357 197.935 130.506 174.633 136.285 161.623C138.01 157.738 139.434 154.773 140.223 153.615C143.661 148.591 146.485 145.537 159.203 145.283C169.214 145.085 186.157 145.85 186.157 145.85C186.157 145.85 189.82 162.081 183.739 163.602V163.603Z" fill="#F6206A"/>
<g opacity="0.82">
<path d="M183.739 163.603C183.739 163.603 160.308 163.801 155.354 163.008V164.462L154.286 165.274C154.286 165.274 153.354 168.606 151.843 173.695C151.612 174.461 151.377 175.269 151.124 176.112C151.106 176.169 151.086 176.227 151.068 176.284C152.429 167.479 153.67 155.09 150.342 152.918C146.523 150.422 139.72 157.542 136.285 161.623C138.01 157.739 139.433 154.773 140.223 153.616C143.661 148.591 146.484 145.537 159.203 145.284C169.214 145.086 186.156 145.851 186.156 145.851C186.156 145.851 190.34 160.073 183.738 163.603H183.739Z" fill="#DC1661"/>
</g>
<path d="M155.201 162.479C155.108 162.479 155.025 162.413 155.006 162.319C154.997 162.269 154.01 157.261 153.331 155.611C153.289 155.51 153.337 155.394 153.439 155.352C153.541 155.31 153.656 155.359 153.698 155.46C154.392 157.145 155.355 162.035 155.396 162.243C155.416 162.351 155.347 162.455 155.24 162.476C155.226 162.479 155.214 162.48 155.201 162.48V162.479Z" fill="#BA0F52"/>
<path d="M153.421 164.66C153.311 164.66 153.179 164.571 153.179 164.462V159.701C153.179 159.591 153.311 159.503 153.421 159.503C153.53 159.503 153.663 159.592 153.663 159.701V164.462C153.663 164.572 153.53 164.66 153.421 164.66Z" fill="#BA0F52"/>
<path d="M201.83 132.028C201.853 132.025 201.875 132.015 201.892 131.997C201.929 131.958 201.928 131.894 201.888 131.857C199.633 129.714 195.103 130.576 194.911 130.614C194.857 130.625 194.822 130.676 194.833 130.731C194.844 130.785 194.895 130.819 194.949 130.81C194.995 130.801 199.57 129.93 201.752 132.002C201.774 132.023 201.803 132.032 201.83 132.028V132.028Z" fill="#D67E65"/>
<path d="M179.663 133.581C179.336 133.558 179.098 133.452 179.008 133.413C177.133 132.584 175.357 132.142 172.561 130.786C172.561 130.786 172.184 130.603 171.571 130.426C171.114 130.294 170.84 130.26 170.558 130.292C170.274 130.324 170.071 130.415 169.998 130.443C169.574 130.602 168.709 130.859 166.782 131.293C166.29 131.296 165.912 131.24 165.655 131.187C165.5 131.154 165.379 131.121 165.195 131.119C164.793 131.112 164.493 131.253 164.384 131.302C164.284 131.346 163.476 131.558 161.859 131.983C160.302 132.392 159.687 132.446 159.636 132.774C159.606 132.964 159.783 133.137 159.884 133.235C160.382 133.719 161.201 133.631 162.371 133.489C162.818 133.434 163.19 133.364 163.456 133.307C163.339 133.47 161.562 135.937 160.933 136.953C160.861 137.07 160.71 137.322 160.802 137.52C160.92 137.776 161.386 137.826 161.698 137.782C162.09 137.728 162.364 137.507 162.51 137.379C163.34 136.657 164.02 135.513 164.27 135.071C163.901 136.128 163.554 136.956 163.306 137.515C162.958 138.298 162.669 138.857 162.903 139.136C163.116 139.389 163.64 139.264 163.668 139.255C164.384 139.075 164.605 138.271 165.491 136.701C165.817 136.122 166.11 135.658 166.313 135.345C166.222 135.661 166.133 136.042 166.075 136.477C165.993 137.088 166.058 137.15 165.979 137.788C165.882 138.571 165.744 138.793 165.898 138.953C166.094 139.156 166.57 139.059 166.866 138.876C166.98 138.805 167.194 138.645 167.421 138.11C167.559 137.784 167.745 137.218 167.734 136.442C167.905 136.168 168.075 135.893 168.246 135.619C168.784 135.949 169.59 136.431 170.585 136.986C173.219 138.453 174.555 138.923 175.491 139.194C175.491 139.194 176.703 139.543 178.28 139.488C178.829 139.468 179.056 139.374 179.166 139.322C179.483 139.169 179.591 138.988 179.992 138.821C180.185 138.739 180.354 138.7 180.562 138.663C181.117 138.566 182.318 138.426 183.891 138.29C183.938 137.258 183.899 136.013 183.655 134.629C183.535 133.952 183.382 133.331 183.216 132.771C181.826 133.129 180.777 133.39 180.292 133.516C180.195 133.541 179.965 133.602 179.664 133.582L179.663 133.581Z" fill="#FAB8C2"/>
<path d="M170.627 131.67C170.631 131.701 170.613 131.729 170.583 131.741C169.779 132.043 168.98 132.364 168.139 132.723C167.862 132.842 167.442 133.021 167.132 133.438C167.096 133.488 167.027 133.58 166.829 134.005C166.653 134.381 166.489 134.775 166.343 135.176C166.33 135.211 166.291 135.229 166.256 135.216C166.221 135.204 166.203 135.165 166.216 135.13C166.364 134.725 166.528 134.327 166.706 133.947C166.91 133.51 166.984 133.411 167.024 133.357C167.355 132.913 167.795 132.724 168.086 132.6C168.928 132.24 169.73 131.918 170.536 131.615C170.571 131.602 170.61 131.62 170.623 131.654C170.625 131.66 170.626 131.665 170.626 131.671L170.627 131.67Z" fill="#EA9373"/>
<path d="M169.354 131.218C169.357 131.248 169.34 131.278 169.309 131.288C168.285 131.653 166.538 132.297 166.418 132.342C166.288 132.388 166.021 132.486 165.777 132.732C165.656 132.855 165.587 132.966 165.554 133.02C165.169 133.647 164.461 134.889 164.454 134.901C164.435 134.933 164.394 134.945 164.362 134.926C164.33 134.908 164.319 134.866 164.337 134.834C164.344 134.822 165.047 133.588 165.44 132.949C165.476 132.891 165.55 132.771 165.682 132.638C165.948 132.37 166.234 132.266 166.371 132.216C166.494 132.171 168.24 131.527 169.265 131.162C169.299 131.15 169.339 131.168 169.35 131.204C169.352 131.209 169.353 131.213 169.354 131.219V131.218Z" fill="#EA9373"/>
<path d="M166.897 131.365C166.901 131.399 166.879 131.431 166.845 131.438C165.896 131.64 165.227 131.811 165.009 131.876C164.899 131.909 164.768 131.957 164.633 132.062C164.559 132.12 164.513 132.173 164.493 132.196C164.354 132.354 164.094 132.639 163.62 133.151C163.595 133.178 163.552 133.18 163.525 133.155C163.497 133.13 163.496 133.087 163.521 133.059C163.994 132.548 164.254 132.264 164.39 132.109C164.414 132.082 164.467 132.021 164.549 131.957C164.702 131.837 164.854 131.781 164.969 131.747C165.19 131.681 165.864 131.511 166.816 131.307C166.853 131.299 166.888 131.322 166.896 131.359C166.896 131.361 166.896 131.363 166.897 131.366V131.365Z" fill="#EA9373"/>
<path d="M176.498 135.981C176.498 135.981 176.498 135.99 176.498 135.994C176.494 136.032 176.461 136.058 176.424 136.055C175.515 135.966 174.647 135.704 173.845 135.275C173.004 134.827 172.251 134.193 171.661 133.439C171.425 133.589 171.173 133.714 170.911 133.812C170.519 133.956 170.108 134.038 169.687 134.054C169.484 134.358 169.257 134.647 169.011 134.917C168.836 135.109 168.648 135.295 168.453 135.468C168.425 135.493 168.382 135.49 168.357 135.463C168.333 135.435 168.335 135.392 168.363 135.367C168.555 135.197 168.739 135.014 168.911 134.826C169.159 134.553 169.39 134.258 169.593 133.95C169.606 133.932 169.625 133.921 169.648 133.92C170.066 133.907 170.475 133.829 170.865 133.684C171.136 133.584 171.397 133.452 171.64 133.292C171.669 133.272 171.709 133.279 171.73 133.307C172.313 134.067 173.067 134.705 173.908 135.156C174.696 135.576 175.547 135.833 176.438 135.92C176.47 135.923 176.495 135.948 176.499 135.98L176.498 135.981Z" fill="#EA9373"/>
<path d="M180.256 134.943C180.274 135.117 180.279 135.293 180.27 135.468C180.268 135.506 180.236 135.534 180.199 135.532C180.161 135.53 180.133 135.499 180.136 135.461C180.15 135.187 180.129 134.912 180.074 134.642C180.022 134.392 179.94 134.147 179.83 133.914C179.814 133.88 179.829 133.84 179.862 133.824C179.896 133.808 179.936 133.822 179.953 133.856C180.067 134.098 180.153 134.354 180.206 134.615C180.228 134.723 180.245 134.832 180.257 134.942L180.256 134.943Z" fill="#EA9373"/>
<path d="M181.34 133.615L180.562 138.661C180.562 138.661 192.126 139.54 198.995 139.414C205.864 139.288 207.88 138.031 206.168 132.967C205.586 131.247 204.936 129.475 204.298 127.812C202.626 123.454 201.044 119.842 201.044 119.842L191.082 122.788L194.094 129.576L194.61 130.743C190.438 131.815 181.341 133.614 181.341 133.614L181.34 133.615Z" fill="#FAB8C2"/>
<path d="M191.646 103.116C191.646 103.116 213.711 128.704 207.883 136.966C203.387 141.588 195.059 141.091 184.994 138.958C183.907 137.558 183.215 132.769 183.215 132.769L193.127 130.276L188.981 123.187C188.981 123.187 180.944 105.505 191.647 103.117L191.646 103.116Z" fill="#8B283D"/>
<mask id="mask4_1181_3465" style="mask-type:luminance" maskUnits="userSpaceOnUse" x="183" y="103" width="26" height="38">
<path d="M191.646 103.116C191.646 103.116 213.711 128.704 207.883 136.966C203.387 141.588 195.059 141.091 184.994 138.958C183.907 137.558 183.215 132.769 183.215 132.769L193.127 130.276L188.981 123.187C188.981 123.187 180.944 105.505 191.647 103.117L191.646 103.116Z" fill="white"/>
</mask>
<g mask="url(#mask4_1181_3465)">
<path d="M208.699 131.535C208.699 131.535 205.06 143.35 183.946 136.635C183.722 137.665 184.497 139.552 184.497 139.552L186.774 140.693C186.774 140.693 214.252 148.392 208.7 131.534L208.699 131.535Z" fill="#651629"/>
<path d="M180.791 101.155C180.791 101.155 190.516 104.538 190.714 104.839C190.911 105.139 207.574 124.084 208.21 129.431C208.41 123.185 195.346 104.198 193.087 102.18C190.828 100.161 181.226 98.5127 181.226 98.5127L180.791 101.156V101.155Z" fill="#9B273C"/>
</g>
<path d="M181.107 100.415C181.501 103.754 181.99 107.469 182.429 110.824L182.897 114.29L182.988 114.128L178.207 116.161L177.996 116.251L178.154 116.416L181.259 119.672L181.243 119.49C180.669 120.383 180.088 121.273 179.519 122.169C177.873 124.74 176.006 127.665 174.403 130.244C175.561 128.55 176.823 126.675 177.965 124.96C179.035 123.345 180.508 121.151 181.553 119.555L181.472 119.47L178.384 116.198L178.331 116.453L183.107 114.409L183.215 114.362L183.199 114.247C182.548 109.762 181.828 104.873 181.106 100.415H181.107Z" fill="#651629"/>
<path d="M162.524 105.681C161.848 108.469 161.219 111.267 160.598 114.067L159.988 116.869L159.967 116.967L160.047 117.027L162.252 118.664L162.211 118.455C161.667 119.363 161.118 120.266 160.58 121.176C161.16 122.939 161.899 125.099 162.498 126.864C162.876 127.944 163.289 129.152 163.676 130.225C163.358 129.132 162.985 127.91 162.654 126.813C162.108 125.054 161.441 122.893 160.882 121.148L160.868 121.27C161.411 120.39 161.944 119.503 162.482 118.62L162.557 118.496L162.441 118.411L160.233 116.777L160.293 116.935L160.874 114.126C161.445 111.315 162.007 108.503 162.524 105.681Z" fill="#651629"/>
<path d="M180.813 76.0098L178.93 76.6706C177.788 73.3746 176.242 71.1091 174.674 69.5482C172.489 67.3828 170.269 66.58 169.03 66.2898C168.936 66.2612 168.85 66.246 168.768 66.2255C169.407 66.1889 170.042 66.2067 170.679 66.2728C172.027 66.3059 173.37 66.4675 174.684 66.7657C175.676 67.1729 176.59 67.7087 177.257 68.3856C177.787 68.9267 178.259 69.6018 178.67 70.3349C179.252 71.361 179.716 72.4897 180.063 73.4648C180.563 74.8971 180.814 76.0098 180.814 76.0098H180.813Z" fill="#FA9B1B"/>
<path d="M178.625 76.6545L177.456 74.1587C177.253 73.7265 177.239 73.2291 177.415 72.7933C177.579 72.387 177.887 72.0807 178.282 71.9316C178.647 71.7932 179.048 71.8075 179.41 71.9709C179.803 72.1486 180.107 72.4772 180.265 72.8969L181.263 75.5499L181.241 75.5579L180.243 72.9049C180.087 72.4915 179.788 72.1673 179.401 71.9923C179.044 71.8316 178.65 71.8173 178.291 71.953C177.902 72.1004 177.6 72.4013 177.437 72.8013C177.263 73.2309 177.278 73.7211 177.477 74.1479L178.646 76.6438L178.625 76.6536V76.6545Z" fill="#FCD9D8"/>
<path d="M187.119 80.2096C187.842 83.5484 186.012 86.7783 183.029 87.4248C180.046 88.0713 177.043 85.8889 176.319 82.5501C175.596 79.2113 177.427 75.9814 180.409 75.3349C183.392 74.6884 186.396 76.8708 187.119 80.2096Z" fill="#B295C6"/>
<path d="M187.117 80.2115C187.785 83.2922 186.274 86.2881 183.687 87.2329C183.475 87.3124 183.256 87.3767 183.027 87.4258C180.047 88.0714 177.041 85.8872 176.318 82.5511C175.594 79.2096 177.427 75.9824 180.407 75.3367C180.636 75.2876 180.862 75.2546 181.087 75.2394C183.833 75.0287 186.447 77.1254 187.116 80.2106L187.117 80.2115Z" fill="#BF7840"/>
<path d="M187.117 80.213C187.421 81.6194 187.272 83.0178 186.766 84.2019C186.603 84.5966 186.397 84.9672 186.156 85.311C186.152 85.3119 186.147 85.3128 186.148 85.3181C185.53 86.1905 184.69 86.8638 183.685 87.2317C180.941 87.4425 178.324 85.3458 177.656 82.2633C176.987 79.1763 178.501 76.1839 181.087 75.24C181.846 75.182 182.596 75.2972 183.295 75.5633C183.544 75.6597 183.788 75.7723 184.025 75.9053C185.523 76.7376 186.698 78.2815 187.117 80.213Z" fill="#FA9B1B"/>
<g style="mix-blend-mode:screen" opacity="0.68">
<path d="M184.273 86.2879C182.026 86.7746 179.686 84.7931 179.053 81.873C178.42 78.953 179.731 76.1848 181.978 75.6982C182.67 75.5481 183.368 75.6303 184.025 75.9062C183.788 75.7732 183.544 75.6606 183.295 75.5642C182.855 75.4847 182.403 75.4856 181.953 75.583C179.65 76.0821 178.3 78.912 178.946 81.8972C179.593 84.8824 181.995 86.904 184.298 86.4049C185.017 86.2486 185.643 85.8655 186.147 85.319C186.146 85.3146 186.151 85.3137 186.155 85.3119C186.396 84.9681 186.603 84.5975 186.765 84.2028C186.235 85.2753 185.362 86.0522 184.272 86.2888L184.273 86.2879Z" fill="#B295C6"/>
</g>
<path d="M170.817 94.5031L170.812 94.2129C173.871 94.1673 178.017 93.5163 180.387 90.6758C181.801 88.9809 181.914 87.2816 181.915 87.2646L182.205 87.2807C182.2 87.3531 182.089 89.0792 180.621 90.8472C178.183 93.7842 173.943 94.4557 170.817 94.5031Z" fill="#231F20"/>
<path d="M170.873 93.2664C170.27 93.2646 169.78 93.7513 169.778 94.354C169.776 94.9568 170.263 95.447 170.866 95.4488C171.468 95.4506 171.959 94.9639 171.96 94.3611C171.962 93.7584 171.476 93.2681 170.873 93.2664Z" fill="#231F20"/>
<path d="M169.055 135.688H114.827V137.715H169.055V135.688Z" fill="#FED152"/>
<path d="M114.306 137.715H151.511L143.173 111.615H105.966L114.306 137.715Z" fill="#F3E19F"/>
<path d="M143.173 111.615L151.511 137.715H149.975L141.656 111.615H143.173Z" fill="#FED152"/>
<path d="M125.246 123.738C124.794 122.105 125.209 120.781 126.173 120.781C127.138 120.781 128.286 122.105 128.739 123.739C129.192 125.372 128.776 126.698 127.812 126.698C126.848 126.698 125.699 125.373 125.246 123.739V123.738Z" fill="#FED152"/>
<path d="M64.3378 81.5202C64.712 80.3308 65.1933 79.1619 65.9219 78.1493C66.7471 77.0054 67.8704 76.0945 69.1259 75.4462C69.6796 75.1596 70.2618 74.931 70.8574 74.7497C70.6654 73.9085 70.5386 73.0522 70.4922 72.1905C70.4502 71.3993 70.4698 70.6046 70.5529 69.8161C70.6083 69.2919 70.5475 67.8096 71.3253 68.1471C73.7328 69.1919 75.5544 71.3743 76.4403 73.8451C76.6215 74.3497 76.7564 74.8667 76.8662 75.3891C77.7449 77.8724 77.7074 80.6639 76.7519 83.1195C76.317 84.2331 75.6893 85.3618 75.8661 86.5414C76.0179 87.5692 76.7617 88.4095 77.5922 89.0319C78.4226 89.6543 79.3638 90.1151 80.1782 90.7527C82.6125 92.6663 83.5947 96.2292 82.4812 99.1189L80.6033 99.1287C80.7399 97.7928 80.5524 96.4257 80.0568 95.1809C79.8389 96.5275 79.5147 97.8536 79.0549 99.1341L64.5289 99.1948C63.4404 93.2985 62.5599 87.2451 64.3369 81.5202H64.3378Z" fill="#352683"/>
<path d="M42.4234 98.7365L44.6353 98.7615C44.6657 97.3042 44.9791 96.0237 45.4506 94.611C45.5774 96.0335 45.881 97.4355 46.3462 98.7767L52.8194 98.8428L53.7758 98.8526L54.2562 98.858L54.8384 98.8633L55.5822 98.8731L56.5538 98.883L61.5696 98.9339C61.6402 98.5142 61.7161 98.0989 61.792 97.6837C61.9384 96.9193 62.0956 96.1657 62.2322 95.4057C62.2527 95.3048 62.2679 95.2084 62.2876 95.1075C62.3688 94.6574 62.4394 94.2011 62.5001 93.7457C62.5608 93.3055 62.6117 92.8599 62.6465 92.4098V92.4045C62.8537 89.6255 62.7528 86.8368 62.8742 84.0534C62.8894 83.7596 62.9046 83.4667 62.9198 83.1729C62.9859 82.0951 63.0814 81.0218 63.193 79.9484C63.2439 79.4778 63.2993 79.0072 63.3547 78.5366C63.3752 78.3393 63.4002 78.1419 63.4207 77.9446C63.5065 77.2463 63.5931 76.5524 63.6788 75.8541C63.9771 73.4753 64.2762 71.1018 64.57 68.7273C64.6405 68.1603 64.712 67.5888 64.7825 67.0218C64.8432 66.5664 64.9138 65.9136 64.9745 65.4626C64.4075 65.518 63.8458 65.5939 63.2841 65.6904C62.7073 65.7868 62.1304 65.9029 61.5634 66.0449C60.1667 66.3842 58.805 66.8548 57.5039 67.462C56.1832 68.0746 54.9277 68.8283 53.7686 69.7346C50.5441 72.2555 48.1304 75.9952 47.4973 80.1458C47.2598 81.6942 47.1937 83.4462 46.0748 84.4883C45.5131 85.0142 44.7585 85.2625 44.1415 85.7134C42.9422 86.5787 42.3395 88.0977 42.0002 89.58C41.3117 92.5911 41.4635 95.8058 42.4198 98.7356L42.4234 98.7365Z" fill="#352683"/>
<path d="M66.3408 87.8086C66.3408 87.8086 65.9023 100.124 66.2291 101.427C66.5578 102.729 70.2886 103.795 73.0372 104.344C73.0372 104.344 63.4761 119.442 55.2938 119.205C47.1106 118.97 50.0396 108.157 48.7555 106.282C48.7555 106.282 55.2527 103.787 55.4572 101.576C55.701 98.9279 55.5697 87.7202 55.5697 87.7202L66.3399 87.8077L66.3408 87.8086Z" fill="#FAB8C2"/>
<path d="M54.7634 86.9639L66.3416 87.8095C66.3416 87.8095 66.0997 97.7644 66.1827 101.43C63.377 101.43 54.9286 97.3732 54.7634 86.9639Z" fill="#F48E90"/>
<path d="M52.9417 79.5254C52.4872 87.4059 57.6968 93.487 60.7008 95.7471C63.0609 97.5224 63.3234 97.542 65.2379 97.6849C70.2788 98.0617 74.3954 93.2602 75.1455 82.1901C76.05 68.8366 71.3378 67.3891 64.8549 66.9051C56.4359 66.2764 53.4677 70.4403 52.9426 79.5263L52.9417 79.5254Z" fill="#FAB8C2"/>
<mask id="mask5_1181_3465" style="mask-type:luminance" maskUnits="userSpaceOnUse" x="52" y="66" width="24" height="32">
<path d="M52.9417 79.5254C52.4872 87.4059 57.6968 93.487 60.7008 95.7471C63.0609 97.5224 63.3234 97.542 65.2379 97.6849C70.2788 98.0617 74.3954 93.2602 75.1455 82.1901C76.05 68.8366 71.3378 67.3891 64.8549 66.9051C56.4359 66.2764 53.4677 70.4403 52.9426 79.5263L52.9417 79.5254Z" fill="white"/>
</mask>
<g mask="url(#mask5_1181_3465)">
<path d="M76.4242 91.0112C77.0087 89.5272 76.2796 87.8504 74.7957 87.2659C73.3117 86.6813 71.6349 87.4104 71.0503 88.8944C70.4658 90.3783 71.1949 92.0552 72.6789 92.6397C74.1628 93.2242 75.8396 92.4951 76.4242 91.0112Z" fill="#F38891"/>
<path d="M59.9965 90.7034C61.5753 90.4776 62.6722 89.0146 62.4464 87.4357C62.2205 85.8569 60.7575 84.76 59.1787 84.9859C57.5998 85.2117 56.503 86.6747 56.7288 88.2535C56.9546 89.8324 58.4176 90.9293 59.9965 90.7034Z" fill="#F38891"/>
</g>
<path d="M72.129 84.7776C72.0594 85.709 72.3076 86.4859 72.6835 86.5145C73.0595 86.5422 73.4211 85.8108 73.4908 84.8803C73.5605 83.9499 73.3122 83.173 72.9354 83.1453C72.5594 83.1176 72.1987 83.849 72.129 84.7785V84.7776Z" fill="#231F20"/>
<path d="M62.7421 84.0715C62.6724 85.0002 62.9216 85.7744 63.2975 85.803C63.6735 85.8307 64.0342 85.102 64.1039 84.1733C64.1735 83.2464 63.9244 82.4722 63.5484 82.4436C63.1725 82.416 62.8117 83.1446 62.7421 84.0715Z" fill="#231F20"/>
<path d="M69.0607 84.0474L68.6214 89.0623C68.6214 89.0623 70.06 89.1569 70.2868 88.9917C70.5145 88.8256 69.0607 84.0483 69.0607 84.0483V84.0474Z" fill="#F48E90"/>
<path d="M71.5611 81.281C72.7425 80.1836 74.3873 80.3756 74.9177 82.0025C74.0444 80.5917 72.9425 80.5291 71.5611 81.281Z" fill="#231F20"/>
<path d="M69.9287 91.8386C69.9287 91.8386 68.708 94.3559 67.6043 94.2192C66.5006 94.0826 65.905 90.7402 65.905 90.7402C65.905 90.7402 66.7328 91.2046 67.9276 91.5528C68.9956 91.8636 69.9278 91.8386 69.9278 91.8386H69.9287Z" fill="#9F0526"/>
<mask id="mask6_1181_3465" style="mask-type:luminance" maskUnits="userSpaceOnUse" x="65" y="90" width="5" height="5">
<path d="M69.9287 91.8386C69.9287 91.8386 68.708 94.3559 67.6043 94.2192C66.5006 94.0826 65.905 90.7402 65.905 90.7402C65.905 90.7402 66.7328 91.2046 67.9276 91.5528C68.9956 91.8636 69.9278 91.8386 69.9278 91.8386H69.9287Z" fill="white"/>
</mask>
<g mask="url(#mask6_1181_3465)">
<path d="M68.5053 94.9282C68.108 95.8015 66.9364 96.123 65.888 95.6461C64.8397 95.1693 64.312 94.0754 64.7093 93.2021C65.1067 92.3287 66.2783 92.0073 67.3266 92.4841C68.375 92.961 68.9027 94.0549 68.5053 94.9282Z" fill="#D31539"/>
<path d="M65.6211 91.3386C65.6211 91.3386 68.0901 92.9129 70.4476 92.0709C70.6413 90.8904 70.3797 90.4858 70.3797 90.4858L69.0081 90.1483L67.0704 89.5964L65.847 89.9608L65.6211 91.3377V91.3386Z" fill="white"/>
</g>
<path d="M61.5768 79.8006C62.7582 78.7031 64.403 78.8951 64.9335 80.5221C64.0601 79.1121 62.9582 79.0487 61.5768 79.8006Z" fill="#231F20"/>
<path d="M55.2661 82.0274C55.2661 82.0274 55.5742 80.1852 52.9096 80.1433C50.3342 80.1022 49.7056 86.2771 51.8398 87.5906C53.9749 88.9051 55.2697 86.2262 55.2697 86.2262L55.2661 82.0274Z" fill="#FAB8C2"/>
<path d="M75.4973 71.2029C77.8101 74.8828 76.2581 81.6855 75.2803 79.0521C74.4605 76.8438 74.7427 76.2741 72.429 72.5942C70.1162 68.9142 64.6245 68.7419 67.0024 67.2471C69.3804 65.7522 73.1836 67.523 75.4973 71.2029Z" fill="#352683"/>
<path d="M49.5663 80.8844C49.8244 80.8942 50.1182 80.9094 50.437 80.9246C50.5227 80.9344 50.6093 80.9398 50.7004 80.9451C51.3737 80.9907 52.1274 81.0514 52.8971 81.1023C53.2712 81.1228 53.6463 81.1425 54.016 81.1577C55.0786 81.1979 56.0912 81.188 56.8449 81.0514C56.8851 81.0461 56.9208 81.0416 56.9565 81.0309C58.6416 80.1602 60.2516 79.0976 61.5473 77.6849C62.0938 77.0982 62.5849 76.4446 63.0002 75.7159C62.9903 76.4249 62.9189 77.1331 62.7876 77.8269C62.6966 78.3028 62.5805 78.7681 62.4385 79.2235C62.818 79.0467 63.193 78.8538 63.5618 78.6565C63.7538 78.5502 63.9414 78.4439 64.1289 78.3323C65.6166 77.4465 66.9685 76.3481 68.0008 74.9667C68.0463 74.9113 68.0865 74.8506 68.1276 74.7899C68.3857 74.4354 68.6187 74.0559 68.8205 73.6665C69.2152 72.9075 69.509 72.0878 69.6707 71.2475C69.676 71.2225 69.6805 71.1966 69.6858 71.1716C69.9189 69.9214 69.7466 68.7775 69.2206 67.8408C68.6437 66.8085 67.6463 66.0182 66.3051 65.6137C64.7816 65.153 63.2127 65.077 61.6786 65.3048H61.6687C60.9954 65.411 60.3373 65.5726 59.6899 65.7852C56.6074 66.8076 53.8695 69.0347 52.2854 71.8181C51.4398 73.3058 51.0147 74.8953 50.7522 76.5758C50.4941 78.2109 49.4868 79.2226 49.5681 80.8826L49.5663 80.8844Z" fill="#352683"/>
<path d="M66.0898 100.684C66.0898 100.684 65.6442 115.446 55.9278 99.9385L54.358 101.211L55.0018 138.845H72.8094L70.235 101.795L66.0898 100.685V100.684Z" fill="white"/>
<path d="M77.3002 105.526C77.3002 105.526 79.0853 106.144 81.0766 115.482C83.0679 124.819 88.4918 149.744 88.4918 149.744L78.5361 150.431L73.5238 111.5L77.3002 105.526Z" fill="#F47E3E"/>
<path d="M68.2589 100.935L72.8889 154.716L83.3956 152.133C83.3956 152.133 79.8327 108.811 77.6967 105.921C75.2633 102.627 68.258 100.935 68.258 100.935H68.2589Z" fill="#F47E3E"/>
<path d="M70.3654 125.583L70.1895 125.496L74.0257 117.704L70.7547 111.281L73.5944 107.673L68.183 100.996L68.3348 100.873L73.8453 107.671L70.9869 111.304L74.2453 117.704L70.3654 125.583Z" fill="#E25F29"/>
<path d="M78.787 138.67L77.6869 128.98L77.6886 128.967C77.6967 128.917 78.4887 124.056 78.4887 122.216C78.4887 120.375 76.9939 114.906 76.9787 114.851L77.168 114.8C77.2297 115.025 78.6852 120.354 78.6852 122.216C78.6852 124.078 77.9315 128.699 77.8851 128.985L78.9817 138.648L78.787 138.67V138.67Z" fill="#E25F29"/>
<path d="M85.1656 213.271C89.8189 215.322 105.716 219.325 105.943 218.018C106.138 216.903 100.067 210.476 96.8198 206.92C95.6956 205.683 94.9097 204.793 94.8437 204.589C94.5793 203.787 95.108 198.877 95.108 198.877L85.6836 197.473L85.0076 203.231L84.0744 211.183C83.9682 212.082 84.42 212.947 85.1656 213.273V213.271Z" fill="#FAB8C2"/>
<path d="M85.1655 213.271C89.8187 215.322 105.715 219.325 105.943 218.018C106.138 216.903 100.066 210.476 96.8196 206.92C96.7312 207.037 96.6321 207.142 96.5258 207.229C96.0186 207.647 95.3766 207.785 94.7551 207.839C92.6432 208.028 90.5242 207.354 88.6579 206.222C87.3318 205.416 86.1272 204.383 85.0065 203.23L84.0734 211.182C83.9671 212.081 84.4189 212.946 85.1646 213.272L85.1655 213.271Z" fill="#3B2049"/>
<path d="M85.1655 213.271C89.8187 215.322 105.715 219.325 105.943 218.018C106.138 216.903 100.066 210.476 96.8196 206.92C96.7312 207.037 96.6321 207.142 96.5258 207.229C96.0186 207.647 95.3766 207.785 94.7551 207.839C92.6432 208.028 90.5242 207.354 88.6579 206.222C87.3318 205.416 86.1272 204.383 85.0065 203.23L84.0734 211.182C83.9671 212.081 84.4189 212.946 85.1646 213.272L85.1655 213.271Z" fill="#A92E42"/>
<path d="M105.375 218.069C105.143 218.069 104.837 218.059 104.449 218.027C103.493 217.947 101.831 217.714 99.3423 217.053C94.5836 215.787 87.0389 213.624 86.963 213.603L86.9755 213.558C87.0514 213.58 94.5952 215.743 99.3539 217.008C101.836 217.668 103.495 217.901 104.448 217.98C105.481 218.066 105.934 217.996 105.939 217.995L105.946 218.04C105.946 218.04 105.763 218.069 105.374 218.069H105.375Z" fill="#FCD9D8"/>
<path d="M96.5347 211.719C96.5347 211.719 96.5267 211.718 96.5231 211.716C96.5124 211.71 96.508 211.696 96.5142 211.685C97.4777 209.988 99.294 209.615 99.3119 209.612C99.3244 209.609 99.3369 209.617 99.3387 209.629C99.3414 209.642 99.3333 209.654 99.3208 209.657C99.303 209.661 97.5072 210.03 96.5544 211.708C96.5499 211.715 96.5419 211.72 96.5339 211.72L96.5347 211.719Z" fill="#FCD9D8"/>
<path d="M94.9015 209.888C94.9015 209.888 94.8935 209.887 94.8899 209.885C94.8792 209.879 94.8747 209.864 94.881 209.854C95.8445 208.157 97.6608 207.784 97.6786 207.779C97.6911 207.777 97.7036 207.785 97.7054 207.797C97.7081 207.81 97.7001 207.822 97.6876 207.825C97.6697 207.828 95.8739 208.198 94.9211 209.876C94.9167 209.883 94.9086 209.888 94.9006 209.888H94.9015Z" fill="#FCD9D8"/>
<path d="M92.7843 152.522C92.7843 152.522 98.5359 155.794 99.7861 164.898C101.036 174.002 95.7847 202.166 95.7847 202.166L83.1563 200.46L79.4049 167.174L92.7834 152.523L92.7843 152.522Z" fill="#073374"/>
<path d="M71.9031 138.013C71.9031 138.013 49.1627 138.866 49.1466 138.867C48.8662 138.878 48.0688 141.208 47.9652 141.461C47.107 143.559 46.4034 145.75 45.9265 148.001C45.0032 152.362 45.1452 157.38 47.1794 161.329C49.7663 166.352 54.8232 167.296 59.4934 168.082C64.5557 168.933 69.7322 168.818 74.7793 167.886L75.9045 189.649L88.6579 191.499C88.6579 191.499 97.3849 151.457 91.4082 143.562C87.5318 138.441 71.9022 138.015 71.9022 138.015L71.9031 138.013Z" fill="#0C48B8"/>
<path d="M73.9658 151.271C73.9578 151.271 73.9489 151.269 73.9417 151.264L66.5024 146.73C66.4863 146.721 66.4774 146.702 66.4809 146.683L66.6997 145.332C66.7042 145.307 66.7274 145.289 66.7533 145.294C66.7783 145.298 66.7962 145.321 66.7917 145.347L66.5783 146.668L73.9917 151.185C74.0132 151.199 74.0203 151.227 74.0069 151.249C73.998 151.263 73.9828 151.271 73.9676 151.271H73.9658Z" fill="#3B2049"/>
<path d="M88.2203 191.473C88.2203 191.473 88.2159 191.473 88.2141 191.473L75.8982 189.695C75.8759 189.691 75.8598 189.673 75.8589 189.651L73.9212 148.933C73.9203 148.907 73.9399 148.886 73.9649 148.885C73.9908 148.885 74.0123 148.904 74.0132 148.929L75.9491 189.608L88.1855 191.374C90.8385 180.384 93.4004 153.253 93.4263 152.98C93.429 152.954 93.4513 152.936 93.4772 152.938C93.5031 152.941 93.5219 152.963 93.5192 152.989C93.4933 153.262 90.9251 180.466 88.2668 191.437C88.2614 191.458 88.2426 191.473 88.2221 191.473H88.2203Z" fill="#3B2049"/>
<path d="M75.0918 196.405C75.0918 197.257 84.8431 218.061 86.6246 214.861C87.7783 212.788 87.5166 203.512 87.1898 197.231C87.0103 193.813 86.8112 191.282 86.8112 191.282L78.3708 190.216L78.2092 191.035L77.9047 192.565C77.9047 192.565 75.0909 195.553 75.0909 196.405H75.0918Z" fill="#FAB8C2"/>
<path d="M75.0918 196.405C75.0918 197.236 84.3627 217.03 86.4745 215.057C86.5299 215.007 86.5808 214.94 86.6254 214.861C87.4514 213.377 87.5515 208.209 87.4264 203.09V203.065C87.397 202.042 87.3639 201.022 87.3202 200.032C87.3202 199.965 87.3166 199.894 87.313 199.823C87.2764 198.925 87.2362 198.051 87.1916 197.232C85.7485 197.805 84.0037 197.446 82.6705 196.51C80.9586 195.311 79.7692 193.364 78.6709 191.45C78.5717 191.278 78.4574 191.091 78.2815 191.044C78.2592 191.036 78.2333 191.036 78.2119 191.036L77.9074 192.566C77.9074 192.566 76.4349 194.133 75.6151 195.32C75.5749 195.382 75.5303 195.445 75.4901 195.508C75.2517 195.884 75.0936 196.206 75.0936 196.406L75.0918 196.405Z" fill="#CB4150"/>
<path d="M75.4892 195.507C78.0565 201.59 80.7453 207.833 84.4181 213.286C85.1378 214.351 85.8138 214.936 86.4746 215.057C86.5299 215.007 86.5808 214.94 86.6255 214.861C85.9754 214.811 85.2994 214.246 84.5645 213.156C80.8846 207.695 78.1923 201.423 75.6134 195.318C75.5732 195.381 75.5285 195.443 75.4883 195.507H75.4892Z" fill="#F5CFC4"/>
<path d="M84.1993 203.642C84.2118 203.642 84.2243 203.64 84.2359 203.633C85.1931 203.162 86.2879 202.999 87.3202 203.175C87.3729 203.184 87.4166 203.144 87.4247 203.088C87.4318 203.031 87.3979 202.978 87.3479 202.969C86.2826 202.788 85.1512 202.956 84.1627 203.442C84.1162 203.466 84.0948 203.527 84.1153 203.58C84.1305 203.619 84.1644 203.642 84.1993 203.642Z" fill="#F5CFC4"/>
<path d="M83.9725 200.712C83.985 200.712 83.9966 200.709 84.0091 200.703C85.0458 200.197 86.1906 199.964 87.3157 200.033C87.3657 200.033 87.4095 199.991 87.4122 199.934C87.4149 199.877 87.3756 199.828 87.3247 199.824C86.1718 199.754 84.9994 199.993 83.9358 200.512C83.8894 200.534 83.868 200.596 83.8876 200.649C83.9019 200.689 83.9367 200.713 83.9716 200.713L83.9725 200.712Z" fill="#F5CFC4"/>
<path d="M55.8609 99.8662L61.3928 155.049C61.3928 155.049 51.3558 159.425 41.4474 156.296C40.8831 156.118 44.4746 133.679 44.9202 130.029C45.3658 126.379 43.2494 106 43.2494 106C43.2494 106 51.3201 100.668 55.8609 99.8662Z" fill="#F47E3E"/>
<path d="M58.546 127.672L51.3897 114.433L54.4089 111.147L49.953 105.265L55.7939 99.7952L55.9278 99.9389L50.2155 105.288L54.6634 111.159L51.6282 114.462L58.7184 127.579L58.546 127.672Z" fill="#E25F29"/>
<path d="M48.8359 148.305C48.8305 148.305 48.8261 148.303 48.8216 148.3C48.8118 148.292 48.81 148.278 48.8171 148.268L54.0437 141.481C54.0517 141.471 54.066 141.468 54.0758 141.476C54.0856 141.484 54.0874 141.498 54.0803 141.508L48.8537 148.296C48.8493 148.302 48.8421 148.305 48.835 148.305H48.8359Z" fill="#FFF4EB"/>
<path d="M58.3719 125.008C58.3719 125.008 51.8344 104.302 47.733 106C41.1045 108.746 45.0425 131.11 45.0425 131.11L42.352 145.458L61.1847 151.736L58.3719 125.007V125.008Z" fill="#E25F29"/>
<path d="M75.1472 130.89C75.4535 130.869 75.6776 130.769 75.7625 130.732C77.5207 129.955 79.1861 129.541 81.8097 128.267C81.8097 128.267 82.1633 128.096 82.7384 127.93C83.167 127.806 83.4242 127.774 83.6885 127.804C83.9564 127.834 84.1457 127.919 84.2144 127.945C84.6118 128.094 85.4226 128.335 87.23 128.742C87.6917 128.745 88.0453 128.692 88.2873 128.642C88.4328 128.612 88.5463 128.582 88.7186 128.578C89.0954 128.572 89.3767 128.704 89.4794 128.75C89.5723 128.791 90.3304 128.991 91.8467 129.389C93.3076 129.773 93.8835 129.823 93.9318 130.131C93.9594 130.309 93.7933 130.471 93.6987 130.563C93.2308 131.018 92.4637 130.935 91.3662 130.801C90.9466 130.75 90.5974 130.684 90.3483 130.63C90.4581 130.783 92.1253 133.096 92.7137 134.05C92.7816 134.16 92.9236 134.396 92.837 134.582C92.7262 134.822 92.2896 134.868 91.9967 134.828C91.6279 134.776 91.3725 134.57 91.235 134.45C90.4563 133.773 89.8187 132.699 89.5839 132.286C89.9295 133.278 90.2554 134.054 90.4885 134.578C90.8153 135.313 91.0859 135.837 90.8662 136.098C90.6662 136.335 90.175 136.217 90.1482 136.21C89.4776 136.041 89.2696 135.288 88.4391 133.813C88.1328 133.271 87.8587 132.836 87.6676 132.542C87.7533 132.838 87.8363 133.195 87.8917 133.604C87.9685 134.177 87.9078 134.234 87.9819 134.833C88.073 135.568 88.2025 135.776 88.0578 135.925C87.8738 136.116 87.4274 136.024 87.1496 135.853C87.0425 135.787 86.8425 135.636 86.6299 135.134C86.5005 134.828 86.3254 134.297 86.3361 133.57C86.1763 133.313 86.0165 133.055 85.8557 132.798C85.3503 133.107 84.5949 133.559 83.6608 134.08C81.1909 135.456 79.938 135.898 79.0593 136.15C79.0593 136.15 77.9235 136.478 76.4438 136.426C75.9295 136.408 75.716 136.32 75.6134 136.271C75.316 136.128 75.2151 135.958 74.8382 135.8C74.657 135.724 74.498 135.687 74.3043 135.653C73.7837 135.561 72.6567 135.431 71.1815 135.303C71.1387 134.335 71.1744 133.168 71.4039 131.869C71.5155 131.235 71.6593 130.652 71.8155 130.126C73.1202 130.462 74.1033 130.707 74.5579 130.826C74.648 130.85 74.8642 130.906 75.1463 130.887L75.1472 130.89Z" fill="#FAB8C2"/>
<path d="M83.6224 129.099C83.6197 129.126 83.6358 129.154 83.6635 129.165C84.418 129.448 85.1681 129.75 85.9557 130.086C86.2165 130.198 86.6103 130.367 86.9005 130.756C86.9353 130.802 86.9996 130.889 87.1853 131.287C87.3505 131.64 87.5032 132.01 87.6408 132.387C87.6524 132.42 87.689 132.437 87.722 132.424C87.7551 132.412 87.772 132.375 87.7595 132.343C87.6211 131.963 87.4666 131.59 87.2996 131.234C87.1086 130.824 87.0389 130.73 87.0014 130.68C86.6906 130.263 86.2781 130.086 86.0057 129.97C85.2155 129.633 84.4645 129.33 83.7081 129.047C83.6751 129.034 83.6394 129.051 83.6269 129.083C83.6251 129.089 83.6242 129.094 83.6233 129.099H83.6224Z" fill="#EA9373"/>
<path d="M84.8172 128.674C84.8145 128.703 84.8306 128.731 84.8592 128.741C85.82 129.083 87.4577 129.687 87.5711 129.728C87.6926 129.772 87.9435 129.863 88.1721 130.093C88.2855 130.208 88.3498 130.313 88.3811 130.363C88.7418 130.952 89.4062 132.116 89.4124 132.128C89.4294 132.158 89.4687 132.169 89.4991 132.151C89.5294 132.134 89.5392 132.095 89.5223 132.064C89.516 132.053 88.857 130.895 88.4882 130.296C88.4552 130.242 88.3855 130.128 88.2614 130.003C88.0123 129.752 87.7435 129.655 87.6149 129.608C87.5006 129.566 85.862 128.961 84.9012 128.619C84.8681 128.608 84.8324 128.624 84.8199 128.658C84.8181 128.662 84.8172 128.667 84.8163 128.672L84.8172 128.674Z" fill="#EA9373"/>
<path d="M87.1211 128.813C87.1175 128.845 87.1389 128.875 87.1711 128.882C88.0605 129.071 88.6882 129.231 88.8936 129.292C88.9972 129.323 89.1195 129.368 89.2463 129.467C89.3151 129.52 89.3589 129.57 89.3776 129.592C89.5071 129.74 89.7518 130.007 90.1965 130.487C90.2197 130.513 90.2599 130.514 90.2858 130.491C90.3117 130.467 90.3126 130.428 90.2893 130.402C89.8455 129.922 89.6018 129.656 89.4741 129.51C89.4517 129.485 89.4026 129.428 89.3249 129.368C89.1812 129.254 89.0383 129.202 88.9302 129.17C88.7231 129.109 88.0909 128.948 87.1979 128.758C87.1639 128.751 87.13 128.772 87.1229 128.806C87.1229 128.809 87.1229 128.81 87.122 128.812L87.1211 128.813Z" fill="#EA9373"/>
<path d="M78.1164 133.141C78.1164 133.141 78.1164 133.149 78.1164 133.154C78.1199 133.188 78.1503 133.213 78.1851 133.211C79.0379 133.128 79.8514 132.882 80.6051 132.479C81.3936 132.059 82.0999 131.464 82.6527 130.758C82.8741 130.899 83.1108 131.016 83.3563 131.107C83.7242 131.243 84.11 131.319 84.5047 131.335C84.6949 131.619 84.9083 131.891 85.1387 132.144C85.303 132.324 85.4789 132.498 85.662 132.661C85.6879 132.684 85.728 132.681 85.7513 132.655C85.7736 132.629 85.7718 132.589 85.7459 132.566C85.5664 132.406 85.3932 132.236 85.2316 132.059C84.9985 131.802 84.7833 131.527 84.5913 131.237C84.5797 131.22 84.5609 131.21 84.5404 131.209C84.1484 131.197 83.7644 131.123 83.3992 130.988C83.1447 130.893 82.9 130.77 82.6723 130.62C82.6446 130.601 82.608 130.608 82.5875 130.634C82.0401 131.347 81.3337 131.946 80.5444 132.368C79.8059 132.762 79.0075 133.004 78.1717 133.085C78.1414 133.087 78.1182 133.112 78.1155 133.141H78.1164Z" fill="#EA9373"/>
<path d="M74.5909 132.168C74.5739 132.331 74.5695 132.496 74.5784 132.661C74.5802 132.695 74.6096 132.722 74.6445 132.72C74.6793 132.719 74.7061 132.691 74.7043 132.654C74.6909 132.397 74.7105 132.139 74.7623 131.886C74.8106 131.652 74.8873 131.422 74.9909 131.204C75.0061 131.173 74.9918 131.135 74.9606 131.12C74.9293 131.105 74.8909 131.118 74.8766 131.151C74.7695 131.377 74.6891 131.617 74.6382 131.861C74.6177 131.963 74.6016 132.066 74.5909 132.169V132.168Z" fill="#EA9373"/>
<path d="M75.5223 129.678C74.6052 131.295 72.9514 133.598 73.6193 136.452L69.1438 136.095C69.1438 136.095 67.3551 131.354 70.8868 128.848C71.2771 128.566 75.5223 129.678 75.5223 129.678Z" fill="#EA8923"/>
<path d="M44.4263 105.837C41.5903 104.992 40.5571 113.144 41.893 118.67C44.5076 129.471 45.5283 130.741 47.5633 133.171C51.2174 137.516 70.0546 136.692 70.0546 136.692L72.6317 128.966C72.6317 128.966 58.8791 125.877 58.371 125.008C56.852 122.421 53.3641 113.403 52.1925 109.797C50.1324 103.459 44.4263 105.836 44.4263 105.836V105.837Z" fill="#F47E3E"/>
<path d="M40.9411 111.382C42.485 115.303 42.6859 127.344 50.3691 134.793C52.6077 136.961 46.3668 132.513 44.1486 126.475C41.534 119.345 40.9411 111.382 40.9411 111.382Z" fill="#EA8923"/>
<path d="M68.75 226.496C68.0079 226.496 67.3158 226.026 67.0685 225.283L39.4703 142.431C39.1614 141.502 39.6632 140.499 40.5919 140.19C41.5197 139.881 42.5243 140.382 42.8333 141.311L70.4314 224.164C70.7413 225.092 70.2385 226.096 69.3098 226.405C69.1241 226.467 68.9348 226.496 68.75 226.496Z" fill="#DB701C"/>
<path d="M25.6168 226.496C25.431 226.496 25.2426 226.467 25.0569 226.405C24.1282 226.096 23.6263 225.092 23.9353 224.164L51.5335 141.311C51.8433 140.382 52.8461 139.881 53.7748 140.19C54.7035 140.499 55.2054 141.502 54.8964 142.431L27.2982 225.283C27.0509 226.026 26.3588 226.496 25.6168 226.496Z" fill="#FAA35C"/>
<path d="M210.139 226.496C209.396 226.496 208.704 226.026 208.457 225.283L180.859 142.431C180.55 141.502 181.052 140.499 181.98 140.19C182.909 139.881 183.913 140.382 184.222 141.311L211.82 224.164C212.129 225.092 211.627 226.096 210.698 226.405C210.513 226.467 210.323 226.496 210.139 226.496Z" fill="#DB701C"/>
<path d="M167.004 226.496C166.819 226.496 166.63 226.467 166.445 226.405C165.516 226.096 165.014 225.092 165.323 224.164L192.921 141.311C193.23 140.382 194.234 139.881 195.162 140.19C196.091 140.499 196.593 141.502 196.284 142.431L168.686 225.283C168.439 226.026 167.746 226.496 167.004 226.496Z" fill="#FAA35C"/>
<path d="M214.658 137.061V141.416C214.658 141.64 214.627 141.858 214.566 142.07C214.485 142.359 214.352 142.634 214.171 142.892C213.354 144.067 211.591 144.88 209.548 144.88H28.9511C26.908 144.88 25.1444 144.068 24.33 142.892C24.1505 142.634 24.0148 142.359 23.9353 142.07C23.8746 141.858 23.8434 141.64 23.8434 141.416V137.061H214.658Z" fill="#FAA35C"/>
<path d="M214.566 142.07C214.485 142.359 214.352 142.634 214.171 142.892H24.33C24.1505 142.634 24.0148 142.36 23.9353 142.07H214.566Z" fill="#FF8549"/>
</svg>
