<svg width="70" height="70" viewBox="0 0 70 70" fill="none" xmlns="http://www.w3.org/2000/svg">
<path d="M65.869 11.1222C65.3811 9.26933 64.2523 8.00426 62.4345 7.36459C61.7533 7.12455 61.0513 7.11417 60.3442 7.11417H9.6701C9.408 7.11417 9.14591 7.11677 8.88381 7.12974C7.31902 7.21019 6.06174 7.89138 5.09639 9.10974C4.29972 10.1153 4 11.2792 4 12.5533C4.00779 24.0765 4.00389 35.5996 4.00389 47.1228C4.00389 47.2434 4.0026 47.3641 4.00779 47.4861C4.05579 48.947 4.60075 50.1901 5.67638 51.1852C6.71827 52.1493 7.96388 52.5658 9.37686 52.5645C14.6694 52.5567 19.9619 52.5593 25.2544 52.5619C25.8344 52.5619 26.4144 52.5632 26.9944 52.5632C27.058 52.5632 27.1215 52.558 27.1864 52.5554C27.2552 52.5515 27.3253 52.5502 27.3953 52.5554H43.6518V52.5606H50.2418C53.7528 52.5606 57.2639 52.571 60.7749 52.5567C63.3544 52.5463 65.3668 50.8777 65.8975 48.3567C65.917 48.2607 65.965 48.1711 66 48.0777V11.5088C65.8651 11.4115 65.9027 11.2545 65.869 11.1222ZM63.9396 44.2838H6.15256C6.02022 44.1177 6.06693 43.9504 6.06693 43.796C6.06433 33.3419 6.06303 22.8892 6.06563 12.4365C6.06563 10.8588 6.95053 9.66507 8.37389 9.27193C8.75017 9.16812 9.13423 9.17851 9.5157 9.17851C13.935 9.17591 18.3543 9.17721 22.7736 9.17721H60.3675C60.7711 9.17721 61.1759 9.15775 61.5716 9.25636C62.9132 9.59111 63.8643 10.7498 63.9331 12.1368C63.9422 12.3172 63.9383 12.5001 63.9383 12.6805C63.9396 22.9723 63.9396 33.2641 63.9396 43.5559V44.2838ZM44.054 56.7139C43.4883 55.9938 43.0458 55.2062 42.7409 54.3447H27.2643C26.9542 55.2075 26.5104 56.0055 25.9304 56.7373C25.331 57.4937 24.8859 58.328 24.7471 59.2869C24.6174 60.1873 24.6615 61.1008 24.7056 62.0064C24.7289 62.4865 25.0871 62.8044 25.5723 62.8667C25.7319 62.8874 25.8941 62.8848 26.0563 62.8848C32.0093 62.8862 37.9622 62.8862 43.9152 62.8848C44.0968 62.8848 44.2811 62.8887 44.4588 62.8628C44.9116 62.7992 45.2724 62.4852 45.2918 62.0376C45.3346 61.0722 45.393 60.1017 45.223 59.1403C45.0622 58.2229 44.6223 57.4366 44.054 56.7139Z" fill="black"/>
<path d="M55.6744 15.6608C55.6692 14.715 55.2891 14.3322 54.3497 14.327C52.8173 14.3192 51.2837 14.3257 49.75 14.3244C49.5476 14.3244 49.3478 14.3335 49.1532 14.3984C48.6848 14.5554 48.4006 14.9874 48.4486 15.4714C48.494 15.932 48.8275 16.2966 49.2959 16.3615C49.5346 16.3939 49.7786 16.3861 50.0212 16.3874C50.6764 16.39 51.333 16.3874 51.9415 16.3874C49.0636 19.2666 46.1923 22.138 43.2936 25.0353C43.0666 24.7356 42.7863 24.3697 42.5099 24.0025C42.0493 23.3901 41.5952 22.7725 41.1281 22.1652C40.5663 21.4334 40.0226 21.3763 39.3388 21.9602C39.2934 22.0004 39.2493 22.042 39.2052 22.0822C37.2135 23.8507 35.2232 25.6192 33.2315 27.3877C32.523 28.0157 31.8146 28.6424 31.0802 29.2924C30.9453 29.1004 30.8272 28.9421 30.7182 28.7786C29.2961 26.6481 27.8767 24.5176 26.4559 22.3871C26.1653 21.9511 25.8876 21.5048 25.5788 21.0831C25.135 20.4759 24.5551 20.3928 23.9517 20.8275C23.8531 20.8989 23.7649 20.9819 23.6715 21.0598C19.7517 24.3269 15.8345 27.5979 11.9057 30.8546C11.4464 31.2348 11.2349 31.6604 11.244 32.2585C11.2673 33.9738 11.2543 35.6878 11.2491 37.4031C11.2491 37.6185 11.2997 37.8443 11.1947 38.0402C10.9883 38.1544 10.782 38.1064 10.5848 38.1103C10.1009 38.1194 9.61559 38.0986 9.13291 38.1245C8.5659 38.1544 8.17276 38.5488 8.13773 39.073C8.10529 39.5829 8.46729 40.0423 9.01484 40.1383C9.27045 40.1824 9.53644 40.1746 9.79724 40.1746C24.1827 40.1759 38.5681 40.1759 52.9523 40.1759C53.1145 40.1759 53.2766 40.1824 53.4375 40.1733C53.5764 40.1642 53.7191 40.1513 53.854 40.1149C54.364 39.9774 54.665 39.5414 54.617 39.0289C54.5703 38.5436 54.2199 38.1777 53.7113 38.1323C53.3506 38.0999 52.986 38.1142 52.6227 38.1129C51.9402 38.1103 51.2577 38.1129 50.5402 38.1129C50.5194 37.9624 50.5026 37.9027 50.5026 37.843C50.5013 32.3351 50.5026 26.8272 50.4935 21.3193C50.4935 21.0494 50.5882 20.8677 50.7712 20.6874C51.6029 19.8661 52.4268 19.0331 53.2572 18.2091C53.3467 18.1222 53.4116 17.96 53.614 18.0405C53.614 18.2351 53.6127 18.4362 53.614 18.6373C53.6179 19.3029 53.5984 19.9699 53.6335 20.6342C53.662 21.1674 54.0694 21.5295 54.5793 21.5567C55.0659 21.5814 55.4824 21.2855 55.6122 20.7977C55.6576 20.6251 55.6731 20.4395 55.6744 20.2605C55.6783 18.7268 55.6835 17.1945 55.6744 15.6608ZM17.411 38.0752H13.3848C13.2784 37.8884 13.3122 37.7236 13.3122 37.5666C13.3096 35.994 13.3096 34.4202 13.3109 32.8476C13.3109 32.6089 13.2901 32.3844 13.5198 32.1949C14.7965 31.1479 16.0603 30.0852 17.411 28.959V38.0752ZM23.5884 38.0843H19.5934C19.4533 37.9299 19.5039 37.7612 19.5039 37.6081C19.5 34.2995 19.5052 30.9922 19.4948 27.6848C19.4935 27.3527 19.5869 27.1321 19.8503 26.918C20.948 26.0292 22.0223 25.1145 23.107 24.2114C23.2446 24.0972 23.3653 23.9558 23.5884 23.8909V38.0843ZM29.8229 37.7781C29.8229 37.8573 29.8061 37.9364 29.7918 38.0467C29.2105 38.1349 26.3015 38.1349 25.776 38.0545C25.6696 37.6042 25.6294 26.1654 25.7306 25.1573C25.9226 25.1897 25.9616 25.3701 26.0459 25.4959C27.2227 27.2528 28.3931 29.0148 29.5686 30.7716C29.7165 30.9922 29.832 31.2062 29.8307 31.4904C29.8203 33.5859 29.8255 35.6826 29.8229 37.7781ZM35.9874 38.0843H32.0118C31.8626 37.9585 31.8912 37.8093 31.8912 37.673C31.8886 35.6995 31.8912 33.726 31.8873 31.7525C31.886 31.4995 31.9288 31.2958 32.1377 31.1128C33.3807 30.0255 34.6107 28.9239 35.846 27.8301C35.8732 27.8068 35.9173 27.8029 35.9537 27.7912C36.0652 28.2181 36.1029 37.1826 35.9874 38.0843ZM42.2427 37.8443C42.2427 37.9027 42.2206 37.9611 42.1972 38.0804H38.21C38.0634 37.8884 38.1127 37.7016 38.1114 37.5251C38.1088 33.7935 38.1153 30.0619 38.101 26.3302C38.0997 25.9501 38.2113 25.6919 38.5045 25.4531C39.0171 25.0366 39.4971 24.5825 40.0174 24.1206C40.7427 25.0859 41.4304 26.0045 42.122 26.9206C42.2258 27.0581 42.2478 27.2099 42.2478 27.376C42.2453 30.865 42.2453 34.3553 42.2427 37.8443ZM48.4071 38.0843H44.403C44.259 37.9105 44.3122 37.7223 44.3109 37.5485C44.3083 34.2437 44.3096 30.9377 44.3083 27.6329C44.3083 27.3695 44.3148 27.1347 44.534 26.9193C45.7563 25.7191 46.9617 24.502 48.1736 23.2915C48.2281 23.237 48.2799 23.1656 48.4071 23.1851V38.0843Z" fill="black"/>
<path d="M58.2344 27.7536C57.4897 27.7536 56.7462 27.7536 56.0014 27.7536C55.8405 27.7536 55.6783 27.7588 55.52 27.7367C55.0607 27.6757 54.7143 27.3241 54.6455 26.8661C54.5794 26.4301 54.8363 25.9721 55.2644 25.7996C55.4111 25.7412 55.5745 25.6996 55.7315 25.6983C57.4014 25.6906 59.07 25.6932 60.7399 25.6945C60.8398 25.6945 60.941 25.7061 61.0383 25.7295C61.5444 25.8515 61.8895 26.2926 61.8648 26.7766C61.8376 27.2995 61.4406 27.7121 60.8891 27.7419C60.387 27.7679 59.8836 27.7523 59.3814 27.7536C58.9987 27.7536 58.6172 27.7536 58.2344 27.7536Z" fill="black"/>
<path d="M58.2448 31.8874C57.5001 31.8874 56.7566 31.8887 56.0118 31.8874C55.8315 31.8874 55.6472 31.8887 55.4708 31.8602C55.0179 31.7849 54.6819 31.4087 54.6391 30.9506C54.6001 30.5354 54.8583 30.0982 55.2528 29.9321C55.4591 29.8452 55.6784 29.8231 55.9028 29.8231C57.4715 29.8257 59.0402 29.8257 60.6089 29.8231C60.8126 29.8231 61.0124 29.8426 61.2018 29.9139C61.6274 30.0735 61.9077 30.5225 61.861 30.9597C61.8117 31.419 61.4769 31.7875 61.0189 31.8602C60.8411 31.8887 60.6582 31.8861 60.4778 31.8861C59.7331 31.8887 58.9896 31.8861 58.2448 31.8861V31.8874Z" fill="black"/>
<path d="M60.3377 33.944C60.5842 33.966 60.8281 33.966 61.063 34.0153C61.5431 34.1166 61.8713 34.5395 61.8648 35.0105C61.8583 35.4867 61.5301 35.8993 61.0409 35.9889C60.544 36.0797 60.038 36.0836 59.5423 35.9785C59.0908 35.8825 58.7781 35.4712 58.7677 35.0196C58.7573 34.5525 59.0895 34.1153 59.5644 34.0192C59.8187 33.9673 60.0834 33.9686 60.339 33.9453L60.3377 33.944Z" fill="black"/>
</svg>
