<svg width="70" height="70" viewBox="0 0 70 70" fill="none" xmlns="http://www.w3.org/2000/svg">
<path d="M18.4997 28.7812C19.4255 28.7812 20.2617 28.7812 21.0979 28.7812C21.291 28.7812 21.4859 28.7692 21.679 28.7916C22.2376 28.8537 22.6255 29.2864 22.6255 29.8312C22.6255 30.3743 22.2393 30.8261 21.6807 30.8692C21.21 30.9054 20.7359 30.8829 20.2617 30.8829C19.7048 30.8829 19.1479 30.8829 18.5807 30.8829C18.4514 31.1519 18.5031 31.4123 18.5031 31.6623C18.4997 40.4794 18.5014 49.2984 18.4997 58.1156C18.4997 58.3311 18.51 58.5466 18.4945 58.7604C18.4514 59.3656 18.0307 59.7793 17.4635 59.788C16.8945 59.7966 16.4445 59.3966 16.4066 58.7931C16.3721 58.2535 16.3083 57.7242 16.148 57.2087C15.4014 54.8139 13.1704 53.4759 10.929 53.6121C8.55317 53.757 6.67904 55.5035 6.19973 57.8363C5.70663 60.2328 7.29111 63.631 11.0428 63.8776C11.279 63.8931 11.5152 63.8845 11.7532 63.8845C28.8513 63.8845 45.9495 63.8845 63.046 63.8845C63.3011 63.8845 63.558 63.9207 63.8425 63.8397C63.927 63.6035 63.8891 63.3448 63.8891 63.0948C63.8908 52.1915 63.8908 41.2863 63.8908 30.383C63.8908 30.1674 63.8787 29.9519 63.9011 29.7381C63.9598 29.1778 64.3908 28.7899 64.9356 28.7864C65.4804 28.783 65.9166 29.1692 65.9822 29.7261C66.0029 29.8967 65.9925 30.0692 65.9925 30.2416C65.9925 41.6622 65.9925 53.0811 65.9925 64.5017C65.9925 64.6741 66.0011 64.8466 65.9839 65.0172C65.9287 65.5552 65.5615 65.9224 65.0253 65.9793C64.877 65.9948 64.7253 65.9879 64.5735 65.9879C46.8736 65.9879 29.1737 65.9741 11.4738 66C8.17731 66.0052 5.31526 63.9535 4.35664 60.9586C4.09975 60.1518 4.00492 59.3276 4.00492 58.4828C4.01354 53.8156 4.00837 49.1484 4.00837 44.4811C4.00837 38.2657 4.01354 32.0502 4.00492 25.8347C4.00319 24.1175 4.47043 22.5537 5.56525 21.2313C7.51007 18.883 10.017 17.9503 12.9859 18.6916C15.9773 19.4382 17.7548 21.4382 18.3859 24.4588C18.4928 24.9709 18.4962 25.483 18.4979 25.9985C18.5014 26.8985 18.4979 27.7985 18.4979 28.7795L18.4997 28.7812ZM16.3807 53.588C16.3893 53.3897 16.3962 53.3052 16.3962 53.219C16.3962 44.0812 16.3962 34.9433 16.3962 25.8054C16.3962 25.4606 16.3617 25.1209 16.2911 24.7813C15.8514 22.664 14.5859 21.2675 12.5083 20.7399C10.4014 20.2054 8.60317 20.8571 7.21697 22.5399C6.42042 23.5071 6.10835 24.6537 6.10835 25.8968C6.10835 34.9278 6.10835 43.957 6.10835 52.988C6.10835 53.157 6.10835 53.3259 6.10835 53.6018C7.60835 52.2415 9.27213 51.4949 11.2325 51.4932C13.1945 51.4897 14.8687 52.2121 16.379 53.588H16.3807Z" fill="black"/>
<path d="M59.7615 16.4606H57.7632V40.1381C58.1063 40.1381 58.4236 40.1381 58.7391 40.1381C59.0546 40.1381 59.3753 40.1381 59.7598 40.1381V39.3932C59.7598 34.3174 59.7598 29.2433 59.7598 24.1675C59.7598 23.9744 59.7494 23.7795 59.7667 23.5864C59.8167 22.9899 60.2529 22.583 60.8236 22.5899C61.3925 22.5968 61.8115 23.0071 61.858 23.6123C61.8701 23.7623 61.8632 23.914 61.8632 24.064C61.8632 29.6347 61.8632 35.2036 61.8667 40.7743C61.8667 41.1898 61.8011 41.576 61.646 41.9639C60.3632 45.1518 59.0943 48.3432 57.8201 51.5346C57.765 51.6742 57.7046 51.8121 57.6391 51.9466C57.4408 52.3501 57.1167 52.5673 56.6632 52.5604C56.2081 52.5535 55.8977 52.3173 55.7081 51.9121C55.6443 51.7759 55.5874 51.6363 55.5322 51.4966C54.2667 48.326 53.0029 45.1536 51.7305 41.9863C51.584 41.6208 51.4977 41.2605 51.4977 40.8639C51.5029 30.3261 51.5115 19.7882 51.4943 9.25203C51.4908 6.70032 53.3391 4.55378 55.6977 4.09344C58.3874 3.56931 61.1098 5.30206 61.727 7.98997C61.8132 8.36756 61.8649 8.74859 61.8649 9.13824C61.8615 12.5141 61.8649 15.8917 61.8632 19.2675C61.8632 20.0813 61.4839 20.5433 60.8322 20.5537C60.1529 20.5658 59.7684 20.0951 59.7649 19.2399C59.7615 18.3365 59.7649 17.4347 59.7649 16.4623L59.7615 16.4606ZM53.6581 16.4503C53.5253 17.6037 53.577 39.6726 53.7133 40.1381C54.0288 40.1381 54.3512 40.1501 54.6719 40.1346C54.9839 40.1208 55.3081 40.207 55.5908 40.0725V16.4503H53.6581ZM53.6133 10.1296C54.5581 10.2589 59.3046 10.2227 59.758 10.0848C59.758 9.76927 59.7684 9.44686 59.7563 9.12445C59.696 7.52963 58.5081 6.25205 56.9374 6.11757C55.3788 5.98481 53.9753 7.07791 53.6788 8.55376C53.5753 9.06928 53.615 9.57962 53.6115 10.1296H53.6133ZM59.7391 12.3537C58.6701 12.2296 54.0581 12.271 53.6529 12.3951V14.2848H59.7391V12.3537ZM54.1477 42.2587C54.377 42.9518 54.6443 43.5967 54.9339 44.2449H58.4443C58.7063 43.5898 58.9649 42.9432 59.2374 42.2587H54.146H54.1477ZM57.5787 46.4173H55.777C56.1046 47.1466 56.3081 47.8587 56.7081 48.588C57.0167 47.8191 57.2874 47.1449 57.5787 46.4173Z" fill="black"/>
<path d="M28.8789 24.6226C29.1324 24.664 29.3789 24.6588 29.672 24.6226C29.6272 24.1278 29.5927 23.664 29.5393 23.202C29.2996 21.0899 29.0548 18.9778 28.8134 16.8658C28.7996 16.7382 28.7927 16.6089 28.7944 16.4796C28.8048 15.6813 29.4134 15.1951 30.1789 15.4158C30.9203 15.6296 31.653 15.8796 32.3789 16.1468C32.7651 16.2899 33.1168 16.2865 33.5013 16.1468C34.1651 15.902 34.841 15.6882 35.5168 15.4744C36.5047 15.1623 37.1582 15.6503 37.0668 16.6796C36.9496 18.0054 36.7772 19.3261 36.6289 20.6502C36.4841 21.952 36.3392 23.252 36.1927 24.5692C36.4409 24.7071 36.6978 24.6347 36.934 24.6399C37.0944 24.5192 37.0582 24.3537 37.0444 24.214C36.9823 23.6175 37.2444 23.2002 37.6892 22.8244C38.522 22.1209 39.1444 21.252 39.5616 20.2382C40.4047 18.1899 40.3168 16.1761 39.353 14.1917C39.2599 13.9986 39.1444 13.8141 39.0685 13.6141C38.8823 13.1244 39.0806 12.5951 39.5271 12.3382C39.9547 12.0934 40.4771 12.1727 40.8151 12.5555C40.9409 12.6986 41.0357 12.8727 41.1271 13.0417C43.084 16.6296 42.4392 21.0744 39.5444 23.9864C39.2984 24.2347 39.1777 24.514 39.1823 24.8244C40.4185 25.4019 41.2013 26.3347 41.203 27.7588C41.2047 29.1812 40.434 30.1209 39.1702 30.714C39.122 31.1674 39.1237 31.6157 39.034 32.0605C38.5306 34.5588 36.5875 36.4898 34.0685 36.9622C33.7289 37.026 33.4341 37.1105 33.1892 37.4157C31.6875 39.2915 29.7444 40.4898 27.4203 41.0777C26.9203 41.2036 26.422 41.3346 25.922 41.4587C24.5617 41.795 23.5531 43.1105 23.6772 44.5949C23.8065 46.138 25.0272 47.2897 26.5807 47.357C27.2031 47.3846 27.8272 47.3622 28.4513 47.3656C28.6237 47.3656 28.7979 47.3553 28.9669 47.3811C29.4858 47.4622 29.8496 47.8949 29.8513 48.4122C29.8513 48.9277 29.4893 49.4277 28.972 49.4397C27.772 49.4656 26.5617 49.6018 25.3755 49.3104C23.2221 48.7794 21.6428 46.776 21.5479 44.588C21.4428 42.1536 23.0772 40.0898 25.122 39.4898C25.76 39.3019 26.4082 39.1484 27.0513 38.9812C28.3203 38.6519 29.4548 38.0639 30.4582 37.2226C30.603 37.1019 30.7737 36.9967 30.8582 36.7588C28.2272 35.6295 26.7979 33.6467 26.6927 30.7157C25.4893 30.1329 24.6738 29.2261 24.6634 27.795C24.6548 26.3657 25.4238 25.4295 26.6548 24.8382C26.8082 24.5123 26.6582 24.3088 26.4393 24.0968C25.0876 22.7899 24.2462 21.2054 23.8307 19.3727C22.9272 15.3934 24.9927 10.9848 28.6531 9.18134C31.4737 7.79169 34.3116 7.75721 37.1478 9.14686C37.3409 9.24169 37.534 9.33996 37.7065 9.46582C38.1737 9.80892 38.3013 10.3606 38.0409 10.8348C37.7685 11.3296 37.1996 11.5262 36.6547 11.2624C35.9772 10.9348 35.303 10.6141 34.5651 10.4365C30.5324 9.46755 26.4686 12.1727 25.8358 16.2744C25.4479 18.7951 26.191 20.9537 28.0479 22.6916C28.5737 23.183 28.9341 23.6709 28.8289 24.4123C28.8203 24.4692 28.8548 24.5313 28.8772 24.6226H28.8789ZM36.9875 30.9433C36.4272 30.8605 29.4962 30.8571 28.8893 30.9398C28.722 32.5553 30.2013 34.9605 32.9323 34.9605C35.6806 34.9605 37.1358 32.5588 36.9875 30.9433ZM32.8703 28.7795C34.4806 28.7795 36.0927 28.7795 37.703 28.7795C37.8961 28.7795 38.0944 28.7881 38.2806 28.7485C38.7754 28.645 39.122 28.2054 39.1047 27.7347C39.0892 27.283 38.753 26.883 38.2823 26.783C38.1168 26.7485 37.9409 26.7537 37.7703 26.7537C34.5479 26.7537 31.3272 26.7537 28.1048 26.7537C27.891 26.7537 27.6772 26.7399 27.4686 26.8174C27.06 26.9709 26.7841 27.3226 26.7686 27.733C26.7513 28.1623 27.0341 28.5502 27.4669 28.714C27.6755 28.7933 27.8893 28.7795 28.1031 28.7795C29.6927 28.7812 31.2824 28.7795 32.872 28.7795H32.8703ZM34.053 24.6209C34.2875 22.3899 34.5823 20.2106 34.7651 17.9589C34.2668 18.1192 33.8548 18.2347 33.4548 18.3847C33.091 18.5209 32.7496 18.5072 32.3892 18.3744C31.9961 18.2296 31.591 18.114 31.0806 17.952C31.3341 20.2278 31.5772 22.4123 31.8237 24.6209H34.0513H34.053Z" fill="black"/>
<path d="M48.7495 49.7725C48.3133 49.5035 47.8667 49.2484 47.4254 48.9863V47.8398C47.8461 47.5966 48.2754 47.3553 48.696 47.1035C49.4409 46.657 49.5909 46.1294 49.1616 45.3708C48.5495 44.2863 47.9236 43.2087 47.2909 42.1363C46.853 41.3932 46.3685 41.2639 45.6219 41.6674C45.1702 41.9105 44.7254 42.1708 44.2788 42.4243C43.9771 42.2553 43.6978 42.0984 43.4202 41.9398C43.3857 41.9191 43.3581 41.8846 43.3271 41.8553C43.315 41.8156 43.2909 41.7743 43.2909 41.7346C43.284 41.2829 43.2857 40.8312 43.2788 40.3812C43.2685 39.4881 42.9099 39.1122 42.0392 39.107C40.7926 39.1001 39.5444 39.1346 38.2978 39.0932C37.5771 39.0708 36.9892 39.5519 37.0392 40.3708C37.0685 40.8794 37.1013 41.3967 36.9978 41.8881C36.6754 42.0725 36.3789 42.2432 36.0582 42.426C35.6116 42.1743 35.1668 41.9156 34.7151 41.6708C33.9634 41.2639 33.4789 41.3881 33.0427 42.126C32.4099 43.1984 31.7858 44.2777 31.172 45.3622C30.7324 46.1363 30.8686 46.6294 31.6272 47.0898C32.0461 47.3449 32.4754 47.5863 32.9254 47.8484C32.891 48.2449 32.972 48.626 32.8772 49.0156C32.4065 49.288 31.9358 49.5449 31.4823 49.8311C31.0168 50.1259 30.853 50.5104 30.9548 50.9742C30.9755 51.0708 31.0065 51.1587 31.0444 51.2397C31.0479 51.2466 31.053 51.2552 31.0582 51.2656C31.1824 51.5052 31.5565 52.2139 31.9858 52.9621C32.3617 53.6208 32.8444 54.3914 33.0892 54.7776C33.1772 54.9173 33.2341 55.007 33.2461 55.0242C33.2479 55.0259 33.2479 55.0276 33.2479 55.0276C33.3841 55.1845 33.5703 55.2914 33.7927 55.3604C34.103 55.4552 34.3858 55.3518 34.6547 55.1983C35.1203 54.9363 35.5858 54.6707 36.0547 54.4052C36.3892 54.5966 36.703 54.7776 37.0478 54.9759C37.0478 55.4483 37.0789 55.9225 37.0427 56.3897C36.9685 57.3328 37.603 57.7673 38.3564 57.7397C39.5599 57.6931 40.7668 57.6931 41.9685 57.7397C42.7478 57.769 43.3495 57.3087 43.2909 56.3914C43.2599 55.9069 43.2168 55.4087 43.3357 54.9397C43.6581 54.757 43.9547 54.5897 44.2788 54.407C44.7409 54.669 45.2012 54.9449 45.6736 55.1949C46.3512 55.5552 46.8633 55.4225 47.2581 54.757C47.9167 53.6483 48.5616 52.5328 49.1909 51.4087C49.584 50.707 49.4357 50.1984 48.7495 49.7725ZM40.172 51.5294C38.4444 51.5294 37.053 50.1415 37.0513 48.4225C37.0496 46.6967 38.434 45.3053 40.1582 45.3036C41.8823 45.3001 43.2702 46.6829 43.2771 48.4104C43.2857 50.1328 41.8909 51.5328 40.172 51.5294Z" fill="black"/>
<path d="M33.2461 55.0242C33.1823 54.9518 33.1289 54.8708 33.0892 54.7776C33.1772 54.9173 33.2341 55.007 33.2461 55.0242Z" fill="black"/>
<path d="M47.5668 61.8569C45.5685 61.8569 43.5719 61.8569 41.5737 61.8569C41.4013 61.8569 41.2271 61.8673 41.0582 61.8448C40.5116 61.769 40.1323 61.3138 40.1496 60.7724C40.1651 60.2552 40.5392 59.8362 41.0633 59.769C41.253 59.7449 41.4495 59.7569 41.6426 59.7569C45.4875 59.7569 49.3323 59.7569 53.1771 59.7569C53.3909 59.7569 53.6098 59.7673 53.8202 59.738C54.8598 59.5949 55.5891 58.7811 55.6271 57.7104C55.6477 57.1311 55.6305 56.5501 55.6322 55.9707C55.6322 55.8207 55.6236 55.669 55.6426 55.5207C55.715 54.9707 56.1615 54.5897 56.7046 54.6001C57.2201 54.6104 57.7012 54.9811 57.7098 55.5018C57.727 56.5501 57.8546 57.6087 57.6167 58.6466C57.1822 60.538 55.565 61.8293 53.6219 61.8586C53.5788 61.8586 53.5357 61.8586 53.4926 61.8586C51.5167 61.8586 49.5409 61.8586 47.565 61.8586L47.5668 61.8569Z" fill="black"/>
<path d="M22.5945 57.6863C22.5945 55.9983 23.9789 54.6018 25.66 54.5932C27.4255 54.5845 28.8272 55.9725 28.8203 57.7242C28.8134 59.4449 27.4151 60.8259 25.6893 60.819C23.972 60.8121 22.5945 59.4173 22.5945 57.6845V57.6863ZM26.7151 57.6914C26.7031 57.1432 26.1996 56.6707 25.6582 56.7C25.1358 56.7276 24.6893 57.2052 24.6996 57.7242C24.71 58.2707 25.2169 58.7449 25.7565 58.7156C26.2789 58.6862 26.7255 58.2087 26.7151 57.6914Z" fill="black"/>
<path d="M40.1944 49.4225C39.6513 49.4415 39.1565 48.9587 39.1565 48.4122C39.1582 47.8932 39.6116 47.426 40.134 47.407C40.6478 47.388 41.1323 47.8311 41.1702 48.3535C41.2082 48.8915 40.7392 49.4053 40.1944 49.4225Z" fill="black"/>
<path d="M45.8098 30.8829C45.0598 30.8829 44.3081 30.8829 43.5581 30.8829C43.3874 30.8829 43.2116 30.8916 43.0461 30.8571C42.5374 30.7554 42.1926 30.2985 42.215 29.7847C42.2357 29.295 42.5857 28.8847 43.0754 28.8019C43.2426 28.7726 43.4167 28.783 43.5892 28.783C45.0909 28.783 46.5926 28.783 48.0926 28.783C48.1995 28.783 48.3081 28.7795 48.415 28.7864C49.0546 28.8278 49.4788 29.2554 49.4702 29.8485C49.4615 30.4381 49.0322 30.8485 48.384 30.8829C48.234 30.8898 48.084 30.8847 47.934 30.8847C47.2253 30.8847 46.5184 30.8847 45.8098 30.8847V30.8829Z" fill="black"/>
<path d="M32.9341 6.10032C32.3461 6.10032 31.8806 5.62446 31.8892 5.03481C31.8979 4.44516 32.3789 3.98826 32.9686 4.00723C33.5306 4.02447 33.9737 4.47619 33.9823 5.03998C33.9892 5.62791 33.522 6.10205 32.9341 6.10205V6.10032Z" fill="black"/>
<path d="M26.7151 5.67275C27.3134 5.66068 27.7841 6.11067 27.7893 6.70377C27.7944 7.28998 27.3203 7.77101 26.7376 7.76756C26.1807 7.76411 25.7169 7.31412 25.6962 6.75722C25.6738 6.1624 26.122 5.68481 26.7169 5.67275H26.7151Z" fill="black"/>
<path d="M40.1771 6.71757C40.1771 7.30205 39.6927 7.77963 39.1134 7.76929C38.5323 7.75894 38.0668 7.26929 38.0841 6.68308C38.0996 6.11757 38.5478 5.68137 39.1151 5.67447C39.7116 5.66757 40.1789 6.12619 40.1771 6.71757Z" fill="black"/>
<path d="M22.2307 12.2951C21.6393 12.3072 21.1703 11.8469 21.1686 11.252C21.1669 10.6796 21.5928 10.2244 22.1583 10.2003C22.7445 10.1744 23.2427 10.6279 23.2652 11.2106C23.2876 11.7882 22.8152 12.2831 22.2324 12.2951H22.2307Z" fill="black"/>
<path d="M43.6564 12.2934C43.0702 12.2899 42.5961 11.8037 42.6099 11.2244C42.6237 10.6434 43.1168 10.1796 43.7013 10.2003C44.2685 10.2193 44.6995 10.6675 44.7047 11.2382C44.7099 11.8365 44.2513 12.2986 43.6564 12.2951V12.2934Z" fill="black"/>
<path d="M20.5773 18.4899C19.9893 18.5072 19.5083 18.0451 19.4997 17.4572C19.4928 16.8658 19.9566 16.3951 20.5462 16.3968C21.11 16.3968 21.5669 16.8348 21.5928 17.3968C21.6186 17.983 21.1617 18.4744 20.5773 18.4916V18.4899Z" fill="black"/>
<path d="M46.3719 17.4641C46.3599 18.0503 45.8719 18.5089 45.2857 18.4882C44.6995 18.4675 44.2495 17.9744 44.2789 17.3865C44.3064 16.8244 44.7668 16.3917 45.3323 16.3951C45.9202 16.3985 46.384 16.8744 46.3719 17.4641Z" fill="black"/>
<path d="M22.21 22.5899C22.7979 22.5899 23.2721 23.0692 23.2634 23.652C23.2531 24.2313 22.76 24.7019 22.179 24.6847C21.6117 24.6675 21.1755 24.2226 21.1686 23.652C21.1617 23.052 21.6152 22.5899 22.21 22.5882V22.5899Z" fill="black"/>
<path d="M43.6581 22.5899C44.253 22.5899 44.7099 23.0502 44.7047 23.6485C44.6995 24.2451 44.2288 24.7002 43.6357 24.6847C43.0806 24.6709 42.6219 24.2106 42.6099 23.6571C42.5978 23.0744 43.0719 22.5916 43.6581 22.5899Z" fill="black"/>
</svg>
