<svg width="24" height="24" viewBox="0 0 24 24" fill="none" xmlns="http://www.w3.org/2000/svg">

<g clip-path="url(#clip0_369_1251)">
<mask id="mask0_369_1251" style="mask-type:luminance" maskUnits="userSpaceOnUse" x="-5" y="-5" width="34" height="34">
<path d="M-4.79999 -4.79999H28.8V28.8H-4.79999V-4.79999Z" fill="white"/>
</mask>
<g mask="url(#mask0_369_1251)">
<path d="M24 12C24 5.37259 18.6274 -1.28172e-06 12 -1.28172e-06C5.37259 -1.28172e-06 0 5.37259 0 12C0 17.6278 3.87432 22.3499 9.10109 23.6466V15.667H6.62659V12H9.10109V10.4199C9.10109 6.33547 10.9495 4.44235 14.9594 4.44235C15.7196 4.44235 17.0314 4.59139 17.568 4.74048V8.06467C17.2848 8.03486 16.7929 8.01993 16.1817 8.01993C14.214 8.01993 13.4538 8.76528 13.4538 10.7031V12H17.3734L16.7001 15.667H13.4538V23.9121C19.3955 23.1945 24 18.1353 24 12Z" fill="#0866FF"/>
<path d="M16.7 15.667L17.3734 12H13.4538V10.7031C13.4538 8.76525 14.214 8.01995 16.1817 8.01995C16.7929 8.01995 17.2848 8.03483 17.568 8.06464V4.7405C17.0314 4.59141 15.7196 4.44232 14.9594 4.44232C10.9495 4.44232 9.10105 6.33549 9.10105 10.4199V12H6.62656V15.667H9.10105V23.6466C10.0295 23.8769 11.0003 24 12 24C12.4922 24 12.9771 23.9697 13.4538 23.9121V15.667H16.7Z" fill="white"/>
</g>
</g>
<defs>
<clipPath id="clip0_369_1251">
<rect width="24" height="24" fill="white"/>
</clipPath>
</defs>
</svg>
