<svg width="54" height="54" viewBox="0 0 54 54" fill="none" xmlns="http://www.w3.org/2000/svg">
<path d="M8.61295 51.4621V5.77805C8.12695 5.34605 7.91095 4.91405 7.91095 4.32005C7.91095 3.07805 8.55895 2.48405 9.90895 2.48405C11.3129 2.48405 11.9609 3.07805 11.9609 4.32005C11.9609 4.80605 11.7449 5.29205 11.3129 5.72405V9.66606C14.7689 6.69606 18.4949 5.18405 22.4369 5.18405C28.0529 5.18405 30.8609 7.61405 30.8609 12.4741V18.4141C36.5849 19.3861 41.6609 18.2521 46.0889 15.1201V39.3121C42.9029 41.7961 39.2309 43.0381 35.0729 43.0381C32.2109 43.0381 29.7269 42.6061 27.6209 41.7961C25.5149 40.9321 24.4889 39.9601 24.4889 38.8261V29.7001C23.5709 29.5921 22.9229 29.5381 22.5449 29.5381C18.3869 29.5381 14.6069 31.1041 11.3669 34.2901V51.5161H8.61295V51.4621ZM11.3129 32.3461C14.6069 29.5921 18.3869 28.1881 22.5989 28.1881C25.0829 28.1881 27.4049 28.6741 29.5109 29.5921V12.6901C29.5109 8.58605 27.1349 6.53405 22.3829 6.53405C18.6029 6.53405 14.8769 8.15406 11.2589 11.4481V32.3461H11.3129ZM44.7389 17.7121C41.3909 19.3321 38.1509 20.0881 34.9649 20.0881C33.4529 20.0881 32.0489 19.9801 30.8609 19.7641V32.4541C30.8609 33.9121 30.0509 34.9921 28.4849 35.6941L27.7289 36.0181C26.1629 36.7201 25.4069 37.4761 25.4069 38.1781C25.4069 39.0961 26.4329 39.9061 28.4309 40.6081C30.4289 41.3101 32.6969 41.6881 35.1809 41.6881C38.6909 41.6881 41.8769 40.7161 44.7389 38.7181V17.7121ZM25.8389 35.4781C28.5389 34.1821 29.8889 33.0481 29.8889 32.1841C29.8889 30.9961 28.5389 30.2401 25.8389 29.8621V35.4781Z" fill="black"/>
</svg>
