<svg width="18" height="18" viewBox="0 0 18 18" fill="none" xmlns="http://www.w3.org/2000/svg">
<g clip-path="url(#clip0_83_218)">
<mask id="mask0_83_218" style="mask-type:luminance" maskUnits="userSpaceOnUse" x="0" y="0" width="18" height="18">
<path d="M18 0.610352H0V17.6104H18V0.610352Z" fill="white"/>
</mask>
<g mask="url(#mask0_83_218)">
<path d="M18 4.95663C18 7.45987 16.4288 9.99061 13.2864 12.6039C11.1087 14.4194 8.40735 16.0699 5.18224 17.6104C5.2925 17.0052 5.34763 16.4 5.34763 15.8498C5.34763 14.3919 4.87902 13.0715 3.96937 11.8887C3.11485 10.9259 2.23277 9.99061 1.37825 9.05534C0.468606 7.9 0 6.63462 0 5.25922C0 3.91132 0.468606 2.811 1.37825 1.93074C2.2879 1.05048 3.41807 0.610352 4.76876 0.610352C5.70597 0.610352 6.56049 0.857924 7.35988 1.32556C8.21439 1.84822 8.7657 2.53592 9.01378 3.38867C9.97856 1.54563 11.3844 0.610352 13.2312 0.610352C14.4717 0.610352 15.5743 1.02297 16.5115 1.82071C17.5038 2.67346 18 3.71877 18 4.95663Z" fill="#151515"/>
</g>
</g>
<defs>
<clipPath id="clip0_83_218">
<rect width="18" height="18" fill="white"/>
</clipPath>
</defs>
</svg>
