<svg width="24" height="24" viewBox="0 0 24 24" fill="none" xmlns="http://www.w3.org/2000/svg">
<g clip-path="url(#clip0_369_1273)">
<path d="M12.0058 0.181808C7.07106 0.181808 5.62783 0.186899 5.34729 0.210171C4.3346 0.294351 3.70443 0.4538 3.01791 0.795608C2.48884 1.05833 2.07158 1.36286 1.65977 1.78976C0.909792 2.56828 0.455261 3.52607 0.29072 4.66458C0.210722 5.21729 0.18745 5.33002 0.182723 8.1532C0.180905 9.09427 0.182723 10.3328 0.182723 11.994C0.182723 16.9248 0.188178 18.3665 0.211813 18.6465C0.293629 19.6319 0.44817 20.2519 0.775433 20.9301C1.40087 22.2282 2.59538 23.2027 4.00261 23.5664C4.48987 23.6918 5.02803 23.7609 5.71892 23.7936C6.01164 23.8064 8.99518 23.8155 11.9805 23.8155C14.9659 23.8155 17.9513 23.8118 18.2367 23.7973C19.0367 23.7596 19.5012 23.6973 20.0148 23.5646C21.4312 23.1991 22.6039 22.2391 23.242 20.9228C23.5629 20.261 23.7256 19.6174 23.7993 18.6834C23.8153 18.4798 23.822 15.2332 23.822 11.9909C23.822 8.74809 23.8147 5.50747 23.7987 5.30384C23.7242 4.35477 23.5615 3.71661 23.2302 3.04209C22.9584 2.48992 22.6566 2.07757 22.2184 1.65595C21.4364 0.909059 20.4801 0.454527 19.3405 0.290169C18.7883 0.210353 18.6783 0.186717 15.853 0.181808H12.0058Z" fill="url(#paint0_radial_369_1273)"/>
<path d="M12.0058 0.181808C7.07106 0.181808 5.62783 0.186899 5.34729 0.210171C4.3346 0.294351 3.70443 0.4538 3.01791 0.795608C2.48884 1.05833 2.07158 1.36286 1.65977 1.78976C0.909792 2.56828 0.455261 3.52607 0.29072 4.66458C0.210722 5.21729 0.18745 5.33002 0.182723 8.1532C0.180905 9.09427 0.182723 10.3328 0.182723 11.994C0.182723 16.9248 0.188178 18.3665 0.211813 18.6465C0.293629 19.6319 0.44817 20.2519 0.775433 20.9301C1.40087 22.2282 2.59538 23.2027 4.00261 23.5664C4.48987 23.6918 5.02803 23.7609 5.71892 23.7936C6.01164 23.8064 8.99518 23.8155 11.9805 23.8155C14.9659 23.8155 17.9513 23.8118 18.2367 23.7973C19.0367 23.7596 19.5012 23.6973 20.0148 23.5646C21.4312 23.1991 22.6039 22.2391 23.242 20.9228C23.5629 20.261 23.7256 19.6174 23.7993 18.6834C23.8153 18.4798 23.822 15.2332 23.822 11.9909C23.822 8.74809 23.8147 5.50747 23.7987 5.30384C23.7242 4.35477 23.5615 3.71661 23.2302 3.04209C22.9584 2.48992 22.6566 2.07757 22.2184 1.65595C21.4364 0.909059 20.4801 0.454527 19.3405 0.290169C18.7883 0.210353 18.6783 0.186717 15.853 0.181808H12.0058Z" fill="url(#paint1_radial_369_1273)"/>
<path d="M12.0003 3.27263C9.63024 3.27263 9.33279 3.28299 8.40191 3.32535C7.47285 3.3679 6.83869 3.51499 6.2838 3.7308C5.70981 3.9537 5.22292 4.25187 4.73784 4.73713C4.2524 5.22221 3.95423 5.7091 3.7306 6.2829C3.51424 6.83798 3.36697 7.47232 3.32516 8.40102C3.28352 9.3319 3.27261 9.62953 3.27261 11.9996C3.27261 14.3697 3.28316 14.6663 3.32534 15.5972C3.36807 16.5262 3.51515 17.1604 3.73078 17.7153C3.95387 18.2893 4.25204 18.7762 4.7373 19.2612C5.22219 19.7467 5.70909 20.0456 6.2827 20.2685C6.83796 20.4843 7.4723 20.6314 8.40119 20.6739C9.33207 20.7163 9.62933 20.7266 11.9993 20.7266C14.3696 20.7266 14.6661 20.7163 15.597 20.6739C16.526 20.6314 17.1609 20.4843 17.7162 20.2685C18.29 20.0456 18.7761 19.7467 19.261 19.2612C19.7465 18.7762 20.0447 18.2893 20.2683 17.7155C20.4828 17.1604 20.6301 16.526 20.6737 15.5973C20.7155 14.6665 20.7264 14.3697 20.7264 11.9996C20.7264 9.62953 20.7155 9.33208 20.6737 8.4012C20.6301 7.47214 20.4828 6.83798 20.2683 6.28308C20.0447 5.7091 19.7465 5.22221 19.261 4.73713C18.7756 4.25169 18.2902 3.95352 17.7156 3.7308C17.1593 3.51499 16.5248 3.3679 15.5957 3.32535C14.6648 3.28299 14.3685 3.27263 11.9976 3.27263H12.0003ZM11.2175 4.84531C11.4498 4.84494 11.7091 4.84531 12.0003 4.84531C14.3305 4.84531 14.6066 4.85367 15.5268 4.89549C16.3777 4.9344 16.8395 5.07657 17.1471 5.19603C17.5544 5.3542 17.8447 5.54329 18.15 5.84873C18.4554 6.15418 18.6445 6.44508 18.8031 6.85234C18.9225 7.1596 19.0649 7.62141 19.1036 8.47229C19.1454 9.39226 19.1545 9.66862 19.1545 11.9976C19.1545 14.3267 19.1454 14.603 19.1036 15.523C19.0647 16.3739 18.9225 16.8357 18.8031 17.1429C18.6449 17.5502 18.4554 17.8402 18.15 18.1455C17.8445 18.4509 17.5545 18.64 17.1471 18.7982C16.8398 18.9182 16.3777 19.06 15.5268 19.0989C14.6068 19.1407 14.3305 19.1498 12.0003 19.1498C9.67006 19.1498 9.39388 19.1407 8.47391 19.0989C7.62303 19.0596 7.16122 18.9174 6.85341 18.798C6.44615 18.6398 6.15525 18.4507 5.84981 18.1453C5.54436 17.8398 5.35528 17.5497 5.19674 17.1422C5.07729 16.8349 4.93493 16.3731 4.8962 15.5223C4.85438 14.6023 4.84602 14.3259 4.84602 11.9955C4.84602 9.66498 4.85438 9.39008 4.8962 8.47011C4.93511 7.61923 5.07729 7.15742 5.19674 6.84979C5.35491 6.44253 5.54436 6.15163 5.84981 5.84619C6.15525 5.54074 6.44615 5.35166 6.85341 5.19312C7.16104 5.07312 7.62303 4.93131 8.47391 4.89222C9.27898 4.85585 9.59097 4.84495 11.2175 4.84313V4.84531ZM16.6588 6.29436C16.0806 6.29436 15.6115 6.76289 15.6115 7.34123C15.6115 7.9194 16.0806 8.38847 16.6588 8.38847C17.2369 8.38847 17.706 7.9194 17.706 7.34123C17.706 6.76307 17.2369 6.29399 16.6588 6.29399V6.29436ZM12.0003 7.51795C9.52533 7.51795 7.51867 9.52462 7.51867 11.9996C7.51867 14.4747 9.52533 16.4804 12.0003 16.4804C14.4754 16.4804 16.4813 14.4747 16.4813 11.9996C16.4813 9.52462 14.4754 7.51795 12.0003 7.51795ZM12.0003 9.09063C13.6068 9.09063 14.9094 10.393 14.9094 11.9996C14.9094 13.6061 13.6068 14.9086 12.0003 14.9086C10.3937 14.9086 9.09135 13.6061 9.09135 11.9996C9.09135 10.393 10.3937 9.09063 12.0003 9.09063Z" fill="white"/>
</g>
<defs>
<radialGradient id="paint0_radial_369_1273" cx="0" cy="0" r="1" gradientUnits="userSpaceOnUse" gradientTransform="translate(6.46134 25.6357) rotate(-90) scale(23.4227 21.7909)">
<stop stop-color="#FFDD55"/>
<stop offset="0.1" stop-color="#FFDD55"/>
<stop offset="0.5" stop-color="#FF543E"/>
<stop offset="1" stop-color="#C837AB"/>
</radialGradient>
<radialGradient id="paint1_radial_369_1273" cx="0" cy="0" r="1" gradientUnits="userSpaceOnUse" gradientTransform="translate(-3.77793 1.88434) rotate(78.6776) scale(10.4701 43.1693)">
<stop stop-color="#3771C8"/>
<stop offset="0.128" stop-color="#3771C8"/>
<stop offset="1" stop-color="#6600FF" stop-opacity="0"/>
</radialGradient>
<clipPath id="clip0_369_1273">
<rect width="24" height="23.9993" fill="white"/>
</clipPath>
</defs>
</svg>
