<svg width="70" height="70" viewBox="0 0 70 70" fill="none" xmlns="http://www.w3.org/2000/svg">
<g clip-path="url(#clip0_136_659)">
<path d="M65.7949 35.1577C65.289 32.1375 63.8683 29.521 61.5942 27.3483C61.3275 27.0925 61.2273 26.8336 61.2337 26.4823C61.2531 25.5022 61.2564 24.5207 61.2354 23.5406C61.203 22.0398 60.6357 20.73 59.5625 19.6375C58.2711 18.3231 56.6694 17.682 54.7687 17.6897C51.402 17.7036 48.0337 17.6944 44.667 17.6897C44.4342 17.6897 44.1821 17.7606 43.9364 17.5603C43.9364 16.5849 43.951 15.5864 43.9316 14.5894C43.9009 12.9976 43.2802 11.6169 42.0906 10.5198C40.8574 9.38105 39.3414 8.81707 37.6055 8.81707C34.3002 8.8217 30.9933 8.82016 27.6864 8.81707C26.749 8.81553 25.8487 8.97733 24.9824 9.32096C22.7099 10.2224 21.2909 12.4259 21.286 14.5601C21.2828 15.4246 21.2876 16.2906 21.2812 17.155C21.2795 17.3215 21.3329 17.5033 21.181 17.6497C20.9482 17.7283 20.7042 17.6913 20.4649 17.6913C17.1177 17.6944 13.7704 17.6928 10.4247 17.6928C9.96081 17.6928 9.50178 17.7082 9.04438 17.8053C6.75736 18.2845 5.21705 19.5912 4.3378 21.6361C4.21012 21.935 4.11152 22.2463 4 22.5514V51.5023C4.03071 51.5516 4.0792 51.5979 4.08728 51.6487C4.56731 54.3222 7.27456 56.4811 10.3196 56.4749C14.5736 56.4672 18.8277 56.4734 23.0817 56.4734C23.2239 56.4734 23.3662 56.4811 23.5052 56.4626C24.0094 56.3902 24.3359 56.0327 24.3424 55.5627C24.3488 55.0603 24.0175 54.689 23.4874 54.6212C23.329 54.5996 23.1657 54.6104 23.0041 54.6104H19.6164C16.4307 54.6088 13.2451 54.6212 10.0594 54.6027C8.75022 54.5934 7.71904 54.0017 6.87858 53.071C6.08499 52.1896 5.84416 51.1279 5.84093 50.0169C5.82639 44.5574 5.83285 39.0979 5.8377 33.6383C5.8377 33.5166 5.7779 33.3764 5.92013 33.2516C7.88875 35.7402 10.4909 37.1702 13.7122 37.4922C13.8269 37.7187 13.7865 37.9144 13.7881 38.1024C13.793 38.9099 13.7784 39.7173 13.793 40.5248C13.8415 43.1952 16.5148 44.5343 18.6466 43.6359C19.8265 43.1382 20.5393 42.2629 20.7219 41.0009C20.8545 40.0794 20.785 39.161 20.8189 38.2411C20.8254 38.0362 20.764 37.8189 20.8933 37.6294C21.4412 37.5138 35.249 37.5199 35.7403 37.6355C35.8389 37.7727 35.8017 37.9298 35.8082 38.0808C35.8421 38.8867 35.9682 39.6803 36.1298 40.4708C36.487 42.2075 37.2079 43.8054 38.2067 45.2893C38.3716 45.5374 38.3441 45.6992 38.1372 45.8903C37.7041 46.2909 37.2774 46.6993 36.8555 47.1122C36.6891 47.2756 36.508 47.3572 36.2656 47.3449C35.4639 47.3002 34.8433 47.63 34.2889 48.1647C32.0035 50.3636 29.7084 52.5532 27.402 54.7306C26.5243 55.5611 26.0734 56.518 26.1106 57.7153C26.1494 58.9882 26.7797 59.9343 27.8303 60.5984C29.3577 61.563 31.357 61.2918 32.5902 60.093C34.9904 57.76 37.4309 55.4641 39.8537 53.1542C39.9394 53.0725 40.0283 52.9939 40.1075 52.9061C40.3887 52.5887 40.6021 52.2312 40.5455 51.8059C40.4744 51.2696 40.6958 50.8937 41.1128 50.5608C41.4361 50.3035 41.7157 49.9938 42.0163 49.7102C42.1294 49.6054 42.228 49.4729 42.4026 49.4529C47.9642 52.6981 53.5581 52.7012 59.1843 49.6131C59.451 50.4345 59.2651 51.7427 58.7253 52.5286C57.8008 53.8661 56.5417 54.6227 54.8026 54.6165C50.227 54.5981 45.6497 54.6104 41.0724 54.6104C40.8704 54.6104 40.6651 54.5996 40.4695 54.6304C40.0154 54.7013 39.6452 55.0865 39.6129 55.4887C39.5838 55.8431 39.8602 56.2623 40.219 56.4117C40.4307 56.5011 40.6554 56.4718 40.8752 56.4734C45.5123 56.4749 50.1494 56.4718 54.7881 56.4749C55.8758 56.4764 56.907 56.2669 57.8638 55.7661C60.0005 54.6489 61.1174 52.9138 61.2337 50.6009C61.2693 49.9105 61.2564 49.2171 61.2337 48.5253C61.2208 48.1524 61.3323 47.8781 61.62 47.6115C63.0714 46.2693 64.135 44.6791 64.9027 42.8962C65.9775 40.3953 66.2361 37.7973 65.7949 35.1577ZM38.1324 17.6635H27.1191C26.9624 17.5295 26.9898 17.3877 26.9898 17.2567C26.9866 16.4878 26.9818 15.7204 26.9898 14.9515C26.9963 14.369 27.1143 14.2612 27.7527 14.2596C29.1427 14.255 30.5327 14.2596 31.9227 14.2596C33.7572 14.2596 35.59 14.2581 37.4245 14.2596C38.1372 14.2596 38.2278 14.349 38.231 15.0255C38.2358 15.7374 38.2342 16.4478 38.231 17.1581C38.231 17.3091 38.2617 17.4663 38.1324 17.6651V17.6635ZM26.3643 10.8218C26.7134 10.7309 27.0674 10.677 27.4359 10.6785C30.8624 10.6862 34.2889 10.677 37.7154 10.6847C39.7648 10.6878 41.4377 11.9698 41.9096 13.8698C41.9226 13.9253 41.9452 13.9807 41.9549 14.0362C42.0098 14.3321 41.9824 17.2413 41.9145 17.6605C41.3455 17.7082 40.8106 17.719 40.2982 17.6605C40.1495 17.5033 40.1899 17.343 40.1883 17.1936C40.1851 16.3877 40.1657 15.5802 40.1915 14.7728C40.2303 13.5862 39.2832 12.4306 37.7106 12.3997C36.723 12.3812 35.7355 12.3951 34.7479 12.3951C32.3688 12.3951 29.9912 12.3966 27.6121 12.3951C27.0561 12.3951 26.5454 12.5122 26.0734 12.8173C25.3784 13.2657 25.0568 13.8914 25.039 14.6664C25.0212 15.4539 25.0374 16.2413 25.0325 17.0302C25.0309 17.2198 25.0665 17.4139 24.9582 17.662C24.4377 17.7221 23.8866 17.7051 23.3613 17.6666C23.19 17.491 23.2417 17.3091 23.2401 17.1427C23.2352 16.3168 23.2676 15.4893 23.232 14.6634C23.156 12.8466 24.6042 11.2826 26.3643 10.8234V10.8218ZM18.102 41.8022C17.5799 42.1396 16.9479 42.135 16.4097 41.7744C15.6711 41.2798 15.6824 40.5664 15.7955 39.7836H18.8309C18.9149 40.5956 18.8584 41.3137 18.102 41.8022ZM18.8632 37.8482H15.8731C15.7487 37.7465 15.7487 37.6463 15.7487 37.5523C15.7454 36.7264 15.739 35.8989 15.7487 35.073C15.7551 34.4951 16.0121 34.0482 16.5374 33.7354C17.47 33.1807 18.5739 33.9018 18.7355 34.5752C18.8034 34.8541 18.8713 35.1315 18.8665 35.4258C18.8551 36.2117 18.8632 36.9976 18.8632 37.8482ZM35.9391 54.3145C34.4311 55.7568 32.9199 57.1945 31.4136 58.6353C31.2115 58.8279 30.9869 58.9758 30.7428 59.1176C29.8636 59.6246 28.8647 59.1962 28.4509 58.6877C27.8448 57.9419 27.8513 57.1606 28.4881 56.3686C28.5738 56.2623 28.6837 56.1744 28.7839 56.0804C30.2369 54.6951 31.6883 53.3098 33.143 51.9261C33.2836 51.792 33.4064 51.6348 33.5891 51.5486C34.4651 52.3914 35.3104 53.2051 36.209 54.068C36.201 54.1312 36.049 54.2097 35.9391 54.3145ZM38.3926 51.9739C38.1777 52.1957 37.9449 52.4038 37.7574 52.5825C36.8685 51.7381 36.0183 50.9306 35.1374 50.0924C35.3346 49.7642 35.6805 49.5084 36.0684 49.174C36.3933 49.476 36.6794 49.741 36.9622 50.0092C37.4326 50.456 37.9061 50.8983 38.3684 51.3529C38.6545 51.6348 38.6545 51.7042 38.3926 51.9739ZM39.2557 49.6101C38.9308 49.268 38.5833 48.9012 38.2665 48.5669C38.6997 48.14 39.1684 47.6777 39.6614 47.1939C40.0574 47.4851 40.4049 47.8688 40.7653 48.2263C40.2546 48.6932 39.7842 49.1262 39.2557 49.6101ZM60.3771 46.2077C57.7943 48.7317 54.6135 50.0662 50.5906 50.0107C43.8395 50.171 37.6976 44.4218 37.7477 37.4321C37.7978 30.5734 43.7198 24.9044 50.9543 24.9783C54.5715 25.0138 57.6472 26.2373 60.2171 28.675C62.7789 31.1051 64.0331 34.0744 64.0671 37.4645C64.1026 40.8268 62.8403 43.8008 60.3771 46.2077Z" fill="black"/>
<path d="M50.9252 46.0536C54.5472 45.9981 57.1963 44.3925 58.9435 41.4C59.2668 40.8468 59.4801 40.2427 59.6433 39.6248C59.687 39.4584 59.7274 39.2858 59.8034 39.1302C59.9714 38.785 60.4321 38.5585 60.8006 38.6186C61.2628 38.6941 61.5602 38.9854 61.5942 39.4353C61.6087 39.6233 61.6023 39.8252 61.5505 40.0054C60.9735 42.0102 59.9634 43.7807 58.3406 45.1922C56.7712 46.5575 54.9254 47.4497 52.8372 47.7856C49.5707 48.3126 46.5903 47.5991 43.9978 45.616C41.8013 43.9364 40.4954 41.7236 40.0703 39.0809C39.5741 35.9913 40.4243 33.2022 42.4931 30.803C44.2322 28.789 46.5111 27.5578 49.2297 27.1726C52.3717 26.7288 55.2325 27.4392 57.7248 29.3253C59.6595 30.7892 60.9396 32.6845 61.5263 34.9866C61.5635 35.1346 61.5974 35.2871 61.599 35.4381C61.6023 35.9097 61.3081 36.2733 60.862 36.3735C60.4579 36.4644 59.9698 36.2117 59.7823 35.8064C59.7339 35.7016 59.6983 35.5891 59.6692 35.4782C59.2296 33.8155 58.3649 32.3825 57.0508 31.2175C55.7061 30.0264 54.1173 29.2929 52.2909 29.0094C50.4161 28.7197 48.6268 28.9816 46.9508 29.7768C44.2791 31.0434 42.6079 33.1083 42.0454 35.902C41.546 38.3798 42.1262 40.6727 43.7231 42.6959C45.2408 44.619 47.3096 45.6745 49.7776 46.0428C50.151 46.0983 50.5421 46.0505 50.9252 46.0505V46.0536Z" fill="black"/>
</g>
<defs>
<clipPath id="clip0_136_659">
<rect width="70" height="70" fill="white"/>
</clipPath>
</defs>
</svg>
