<svg width="60" height="50" viewBox="0 0 60 50" fill="none" >
<path d="M33.2929 43.5333H12.7177L4.17865 36.379C1.40802 34.0696 0 31.9415 0 29.9492C0 28.5455 0.54504 27.3682 1.68054 26.5078C2.81605 25.6475 4.2695 25.1947 6.0863 25.1947C8.26645 25.1947 10.4467 25.8286 12.7177 27.1418V26.5531C12.7177 24.1533 13.4444 22.0251 14.8524 20.2592C16.2604 18.4932 18.2135 17.2706 20.6208 16.682L37.0174 12.4709V8.93906L47.2369 6.31282V9.93524C48.1454 9.70884 49.0537 9.61827 49.9622 9.61827C52.642 9.61827 54.9585 10.6597 57.0025 12.6973C59.001 14.7349 60 17.1348 60 19.8516V36.7865L33.2929 43.5333ZM30.0681 42.4012L17.4867 31.9868C12.9901 28.2285 9.17485 26.372 6.1317 26.372C4.63285 26.372 3.45193 26.689 2.49811 27.3229C1.54429 27.9568 1.1355 28.7719 1.1355 29.768C1.1355 31.6245 2.86147 33.9338 6.3134 36.7865L13.2172 42.4465H30.0681V42.4012ZM13.3081 34.1602L12.4906 35.0206H9.0386L6.40425 32.8018L6.9947 31.8056L8.1756 32.7112H9.99245L10.7191 31.9868L13.3081 34.1602ZM30.9311 22.2062C28.9781 19.263 26.2528 17.814 22.8009 17.814C20.212 17.814 18.0772 18.6743 16.3967 20.3497C14.7161 22.0251 13.8532 24.1986 13.8532 26.7796V27.821C15.6245 28.953 17.1234 30.0397 18.3951 31.1717L19.3036 31.9415L22.8918 24.2438L30.9311 22.2062ZM32.1575 26.689C32.1575 25.6022 31.9304 24.4702 31.4762 23.2477L23.6185 25.1947L20.1665 32.666L24.2997 36.1526L26.0711 28.2738L32.1575 26.689ZM58.91 35.8809V19.8516C58.91 17.4065 58.0015 15.233 56.1845 13.3765C54.368 11.52 52.2785 10.6144 49.8259 10.6144C49.0992 10.6144 48.2362 10.7503 47.2369 10.9767V15.6405L40.6964 17.4518V31.1717L36.972 32.032V13.6935L25.1173 16.682C27.6609 17.4518 29.6139 18.7196 31.0219 20.4403C32.43 22.1609 33.1113 24.2438 33.1113 26.5984V42.356L58.91 35.8809ZM32.0666 38.326V28.0021L27.0704 29.2247L25.3444 36.877L28.2967 39.2316L32.0666 38.326ZM32.0666 42.4012V39.4128L29.296 40.1372L32.0666 42.4012Z" fill="currentColor"/>
</svg>
