<svg width="24" height="24" viewBox="0 0 24 24" fill="none" xmlns="http://www.w3.org/2000/svg">
<g clip-path="url(#clip0_369_1221)">
<path d="M12 0C5.241 0 0 4.953 0 11.64C0 15.138 1.434 18.162 3.768 20.25C3.963 20.424 4.083 20.67 4.089 20.934L4.155 23.07C4.15981 23.2272 4.20314 23.3807 4.2812 23.5172C4.35926 23.6537 4.46965 23.769 4.60267 23.8528C4.73569 23.9366 4.88726 23.9865 5.04408 23.9981C5.20089 24.0096 5.35814 23.9825 5.502 23.919L7.884 22.869C8.085 22.779 8.313 22.764 8.526 22.821C9.621 23.121 10.785 23.283 12 23.283C18.759 23.283 24 18.33 24 11.643C24 4.956 18.759 0 12 0Z" fill="url(#paint0_radial_369_1221)"/>
<path d="M4.79401 15.045L8.31901 9.45297C8.45162 9.24244 8.62643 9.06168 8.83242 8.92211C9.0384 8.78255 9.27109 8.6872 9.51578 8.6421C9.76047 8.59699 10.0119 8.60311 10.2541 8.66006C10.4963 8.71701 10.7241 8.82355 10.923 8.97297L13.728 11.076C13.8532 11.1697 14.0056 11.2201 14.162 11.2196C14.3184 11.2191 14.4704 11.1676 14.595 11.073L18.381 8.19897C18.885 7.81497 19.545 8.42097 19.209 8.95797L15.681 14.547C15.5484 14.7575 15.3736 14.9383 15.1676 15.0778C14.9616 15.2174 14.7289 15.3127 14.4842 15.3578C14.2395 15.403 13.9882 15.3968 13.746 15.3399C13.5037 15.2829 13.276 15.1764 13.077 15.027L10.272 12.924C10.1468 12.8302 9.99444 12.7798 9.83801 12.7803C9.68158 12.7809 9.52958 12.8324 9.40501 12.927L5.61901 15.801C5.11501 16.185 4.45501 15.582 4.79401 15.045Z" fill="white"/>
</g>
<defs>
<radialGradient id="paint0_radial_369_1221" cx="0" cy="0" r="1" gradientUnits="userSpaceOnUse" gradientTransform="translate(4.02 24) scale(26.4 26.4)">
<stop stop-color="#0099FF"/>
<stop offset="0.6" stop-color="#A033FF"/>
<stop offset="0.9" stop-color="#FF5280"/>
<stop offset="1" stop-color="#FF7061"/>
</radialGradient>
<clipPath id="clip0_369_1221">
<rect width="24" height="24" fill="white"/>
</clipPath>
</defs>
</svg>
