<svg width="70" height="70" viewBox="0 0 70 70" fill="none" xmlns="http://www.w3.org/2000/svg">
<g clip-path="url(#clip0_136_689)">
<path d="M22.625 40.8451C23.7358 39.3525 24.8072 37.9097 25.8837 36.4684C27.3104 34.5584 28.7251 32.6417 30.1707 30.7449C31.6215 28.8432 33.3041 27.1369 35.0708 25.5068C38.7449 22.1175 42.7538 19.1174 46.7954 16.1554C50.6138 13.3574 54.4854 10.6274 58.2299 7.73666C59.5176 6.74271 60.7829 5.72391 62.0122 4.6637C62.6612 4.10377 63.396 3.85529 64.2613 4.08555C65.9044 4.5262 66.5414 6.35672 65.4769 7.64555C64.8897 8.35622 64.2459 9.02051 63.6398 9.71627C61.1194 12.612 58.7827 15.6452 56.4254 18.6651C53.4775 22.4438 50.552 26.239 47.3946 29.8603C45.2571 32.3137 43.0148 34.671 40.5287 36.8047C39.0385 38.0836 37.4143 39.1952 35.7987 40.3167C33.2783 42.0644 30.7614 43.8154 28.2289 45.5465C27.8907 45.7784 27.7654 46.0103 27.7894 46.4112C27.8924 48.1473 27.8512 49.8801 27.5456 51.5997C26.8571 55.4678 25.2948 58.9085 22.2507 61.6104C19.9741 63.6314 17.2649 64.849 14.2689 65.4984C11.0858 66.1875 7.89924 66.1444 4.7144 65.505C4.57019 65.4752 4.41738 65.4404 4.29377 65.3659C3.95726 65.1654 3.9006 64.7364 4.17187 64.4564C4.25771 64.3686 4.37103 64.3007 4.48434 64.2443C6.18921 63.3796 7.21248 61.9715 7.88035 60.2801C8.49328 58.7263 8.77657 57.0995 9.02895 55.4661C9.34658 53.4053 9.53028 51.323 10.066 49.2987C10.7493 46.716 11.9854 44.4432 14.1728 42.7386C15.8227 41.4531 17.7181 40.7755 19.8402 40.6844C20.7605 40.6447 21.6756 40.696 22.6267 40.8451H22.625ZM26.3575 45.8016C26.1927 45.9159 26.1755 46.1048 26.1154 46.2721C25.4888 47.9999 24.6097 49.5968 23.4663 51.0563C23.377 51.1706 23.2912 51.2948 23.1796 51.3876C22.9426 51.5847 22.5752 51.5765 22.3537 51.3876C22.1357 51.2037 22.0739 50.9238 22.2215 50.6571C22.3211 50.4765 22.4602 50.3141 22.5855 50.1485C23.6569 48.7387 24.4981 47.213 25.0269 45.5399C25.348 44.5277 25.3926 44.8259 24.6389 44.0572C24.4209 43.8336 24.208 43.774 23.9007 43.8551C23.0439 44.0804 22.2593 44.4449 21.5434 44.9468C20.6351 45.5829 19.8694 46.3566 19.1775 47.2047C18.8839 47.5659 18.5268 47.6189 18.2315 47.4019C17.9396 47.1882 17.9018 46.8138 18.1783 46.4676C19.4247 44.9037 20.903 43.6182 22.8551 42.9142C22.9787 42.8695 23.1349 42.8545 23.2036 42.7452C22.8516 42.1406 22.3022 41.9732 21.6739 41.9467C21.4592 41.9368 21.2463 41.9136 21.0335 41.9004C18.4907 41.743 16.2571 42.4437 14.3977 44.15C12.8319 45.5879 11.9116 47.3886 11.3536 49.3732C10.8025 51.3313 10.6291 53.354 10.3269 55.3535C10.0883 56.9272 9.81529 58.491 9.31395 60.0118C8.77313 61.6518 7.97135 63.1344 6.62702 64.304C6.56865 64.3553 6.48967 64.4001 6.51027 64.5028C6.57551 64.6022 6.68883 64.6022 6.79184 64.6138C10.0505 64.9848 13.2456 64.7546 16.3378 63.6413C20.2746 62.225 23.1693 59.7086 24.8913 55.983C26.3558 52.8156 26.7747 49.4892 26.5069 46.0584C26.4983 45.9573 26.4949 45.8497 26.3575 45.8033V45.8016ZM27.2881 44.7232C30.7802 42.2897 34.3102 39.8495 37.8161 37.3779C39.0591 36.5016 40.1974 35.4977 41.2893 34.4441C40.23 31.0299 37.9671 28.8365 34.4389 27.8426C33.3693 28.9128 32.3409 29.9663 31.4584 31.1359C28.9397 34.4739 26.4451 37.8285 23.9436 41.1781C23.8818 41.2593 23.8028 41.3371 23.8045 41.3686C24.9806 42.5017 26.112 43.5901 27.2881 44.7248V44.7232ZM40.6215 26.1893C40.8241 26.1678 40.97 26.0021 41.1365 25.8779C43.3788 24.1865 45.6176 22.4918 47.8582 20.7988C48.7509 20.1246 49.6454 19.4504 50.5365 18.7745C50.7065 18.6453 50.9056 18.4962 50.7305 18.2642C50.5571 18.034 50.3562 18.1516 50.1777 18.2874C50.1107 18.3388 50.042 18.3868 49.9734 18.4382C46.8744 20.7806 43.7737 23.1213 40.6747 25.4654C40.5579 25.5532 40.4446 25.6493 40.345 25.7553C40.2661 25.8381 40.2678 25.9425 40.333 26.0402C40.3948 26.133 40.4807 26.186 40.6232 26.1877L40.6215 26.1893Z" fill="black"/>
<path d="M21.873 57.8381C21.8816 58.0038 21.7648 58.1032 21.6549 58.1993C21.3064 58.5041 20.9596 58.8106 20.599 59.1005C18.1525 61.0635 15.402 62.4782 12.3545 63.3546C12.212 63.396 12.0678 63.4407 11.9219 63.4672C11.7244 63.502 11.5837 63.4175 11.5321 63.2336C11.4858 63.0663 11.5905 62.9603 11.7399 62.899C11.8584 62.851 11.9803 62.8162 12.1039 62.7814C15.4844 61.8305 18.4632 60.1938 21.0575 57.9011C21.1828 57.7901 21.3081 57.6692 21.4558 57.5963C21.6446 57.5019 21.8661 57.646 21.873 57.8398V57.8381Z" fill="black"/>
<path d="M36.261 36.9075C36.2232 37.108 36.0429 37.1858 35.8781 37.2803C35.2549 37.6381 34.6282 37.9893 34.0101 38.357C32.501 39.2549 31.0639 40.2522 29.6698 41.3091C29.5376 41.4101 29.3968 41.5095 29.244 41.5758C29.1221 41.6271 28.9934 41.5791 28.9058 41.4665C28.8131 41.3472 28.832 41.2262 28.9281 41.1302C29.0449 41.0109 29.1771 40.9049 29.311 40.8022C31.2545 39.3162 33.3062 37.9843 35.4609 36.8015C35.6086 36.7203 35.7442 36.6127 35.9245 36.6027C36.1082 36.5928 36.273 36.7369 36.2593 36.9059L36.261 36.9075Z" fill="black"/>
</g>
<defs>
<clipPath id="clip0_136_689">
<rect width="70" height="70" fill="white"/>
</clipPath>
</defs>
</svg>
