<svg width="21" height="23" viewBox="0 0 21 23" fill="none" xmlns="http://www.w3.org/2000/svg">
<g clip-path="url(#clip0_191_866)">
<path d="M10.4812 12.1291C7.29675 12.1646 4.61568 9.40342 4.63623 6.03264C4.65677 2.73275 7.28648 -0.0283833 10.5531 -2.76637e-05C13.7238 0.0247836 16.3809 2.73984 16.3603 6.11771C16.3398 9.38216 13.7306 12.1752 10.4812 12.1291ZM15.1448 6.07163C15.0866 3.39202 13.0664 1.26889 10.4914 1.27243C7.92679 1.27598 5.87233 3.38493 5.86205 6.05745C5.85521 8.73352 7.92336 10.8637 10.4914 10.8673C13.0664 10.8673 15.09 8.74061 15.1448 6.07163Z" fill="black"/>
<path d="M10.4983 13.3095C11.885 13.3024 13.2273 13.5469 14.5285 14.0396C15.6789 14.4756 16.7267 15.0959 17.6786 15.8934C17.932 16.106 18.1785 16.3293 18.4011 16.5668C19.0517 17.258 19.6201 18.02 20.0515 18.8849C20.4384 19.6647 20.7295 20.4763 20.8767 21.3377C20.9315 21.6496 20.976 21.965 21 22.2805C21.0308 22.6456 20.7809 22.9433 20.4419 22.9858C20.1542 23.0213 19.8495 22.7519 19.8016 22.4187C19.7536 22.0784 19.7228 21.7382 19.6543 21.4015C19.5516 20.884 19.3838 20.3877 19.1818 19.9092C18.8805 19.2039 18.497 18.5482 18.0039 17.9704C17.6375 17.538 17.2438 17.1268 16.8021 16.7688C16.2371 16.3116 15.6379 15.904 14.9873 15.5921C14.1176 15.1738 13.2102 14.8796 12.2583 14.706C11.457 14.5606 10.6524 14.5429 9.84771 14.5677C9.33409 14.5855 8.8239 14.6741 8.32056 14.7839C7.35496 14.9931 6.43046 15.3369 5.56416 15.8225C5.06082 16.106 4.58144 16.4321 4.13973 16.8149C3.39328 17.46 2.73243 18.1866 2.23936 19.055C1.77368 19.8773 1.421 20.7457 1.29773 21.7027C1.26692 21.9402 1.22925 22.1777 1.20186 22.4152C1.16419 22.7732 0.931354 23 0.588944 22.9965C0.263654 22.9965 0.010271 22.7483 -1.30469e-06 22.3904C-0.0068495 22.1777 0.0273915 21.9615 0.0582084 21.7488C0.130114 21.2101 0.253382 20.6855 0.414315 20.168C0.578671 19.6434 0.808086 19.1436 1.06489 18.6616C1.28746 18.2469 1.54084 17.8534 1.82504 17.4813C2.24963 16.9248 2.73243 16.4286 3.24604 15.9643C3.68775 15.5673 4.16713 15.227 4.66705 14.9186C5.47856 14.4153 6.34828 14.0538 7.25224 13.7702C7.63574 13.6497 8.02609 13.5611 8.41643 13.4902C8.75884 13.43 9.10468 13.3839 9.45051 13.352C9.79977 13.3201 10.1456 13.313 10.4949 13.3059L10.4983 13.3095Z" fill="black"/>
</g>
<defs>
<clipPath id="clip0_191_866">
<rect width="21" height="23" fill="white"/>
</clipPath>
</defs>
</svg>
