<svg width="24" height="25" viewBox="0 0 24 25" fill="none" xmlns="http://www.w3.org/2000/svg">
<path d="M0 24L1.69541 17.8375C0.648007 16.0297 0.0978398 13.979 0.10037 11.892C0.103131 5.33466 5.46335 0 12.0503 0C15.2467 0.00161686 18.2469 1.23997 20.5033 3.48789C22.7597 5.73581 24.0011 8.72376 24 11.9015C23.9971 18.4584 18.636 23.794 12.0501 23.794H12.0449C10.0451 23.7932 8.08012 23.2938 6.33469 22.3463L0 24Z" fill="white"/>
<path d="M12.0039 2.00003C6.48785 2.00003 2.00197 6.48405 2.00001 11.9956C1.99729 13.8776 2.5273 15.722 3.52877 17.3155L3.76669 17.6937L2.7563 21.3822L6.54116 20.3899L6.90662 20.6064C8.4416 21.5173 10.2016 21.999 11.9964 22H12.0001C17.512 22 21.9978 17.5155 21.9999 12.0036C22.0041 10.6899 21.7476 9.38837 21.2453 8.17443C20.7431 6.96049 20.0049 5.85824 19.0737 4.93149C18.1477 3.99968 17.046 3.26079 15.8325 2.7576C14.6189 2.25441 13.3176 1.99692 12.0039 2.00003Z" fill="url(#paint0_linear_369_1267)"/>
<path fill-rule="evenodd" clipRule="evenodd" d="M9.05107 6.51096C8.82976 6.02508 8.59689 6.01524 8.38667 6.00683L7.82072 6C7.62382 6 7.30391 6.07302 7.03346 6.36508C6.76301 6.65715 6 7.36303 6 8.79876C6 10.2345 7.05803 11.6218 7.20546 11.8167C7.35289 12.0116 9.24796 15.0518 12.2491 16.2215C14.743 17.1936 15.2505 17.0003 15.7921 16.9517C16.3336 16.9031 17.5389 16.2458 17.7848 15.5644C18.0307 14.8829 18.0308 14.2991 17.9571 14.1771C17.8834 14.055 17.6865 13.9825 17.391 13.8364C17.0955 13.6904 15.6442 12.9845 15.3735 12.8871C15.1029 12.7896 14.9062 12.7412 14.7091 13.0332C14.5121 13.3253 13.9469 13.9823 13.7746 14.1771C13.6023 14.3718 13.4303 14.3963 13.1348 14.2504C12.8393 14.1045 11.8885 13.7963 10.7605 12.8021C9.88281 12.0286 9.29036 11.0734 9.11788 10.7815C8.94539 10.4896 9.09957 10.3315 9.24764 10.1861C9.38014 10.0553 9.54282 9.84528 9.69074 9.67496C9.83865 9.50464 9.88731 9.38289 9.9856 9.18845C10.0839 8.994 10.0349 8.8232 9.96103 8.67733C9.88715 8.53145 9.31349 7.08811 9.05107 6.51096Z" fill="white"/>
<defs>
<linearGradient id="paint0_linear_369_1267" x1="11.7964" y1="3.20022" x2="11.8978" y2="20.2914" gradientUnits="userSpaceOnUse">
<stop stop-color="#57D163"/>
<stop offset="1" stop-color="#23B33A"/>
</linearGradient>
</defs>
</svg>
