<svg width="117" height="50" viewBox="0 0 117 50" fill="none" xmlns="http://www.w3.org/2000/svg">
<path d="M27.5227 35.2692V43.3938H24.834V23.325H31.955C33.7638 23.325 35.2955 23.9042 36.5666 25.0626C37.8539 26.221 38.4894 27.6299 38.4894 29.2893C38.4894 30.9956 37.8539 32.4045 36.5666 33.5472C35.3281 34.69 33.7801 35.2536 31.955 35.2536H27.5227V35.2692ZM27.5227 25.7983V32.8115H32.0202C33.0957 32.8115 33.9756 32.4671 34.6763 31.7783C35.3933 31.0895 35.7518 30.2598 35.7518 29.3049C35.7518 28.3657 35.3933 27.5516 34.6763 26.8628C33.9756 26.1584 33.0957 25.7983 32.0202 25.7983H27.5227Z" fill="#777677"/>
<path d="M45.6756 29.211C47.6636 29.211 49.228 29.7276 50.3687 30.7451C51.5093 31.7627 52.096 33.1559 52.096 34.9405V43.4095H49.5213V41.4997H49.4072C48.2992 43.0651 46.8163 43.8478 44.9749 43.8478C43.3943 43.8478 42.0744 43.3938 41.0152 42.5015C39.956 41.6092 39.4182 40.4821 39.4182 39.1358C39.4182 37.7113 39.9723 36.5842 41.0967 35.7389C42.221 34.8935 43.7039 34.4709 45.5779 34.4709C47.1748 34.4709 48.4784 34.7526 49.5213 35.3162V34.7213C49.5213 33.829 49.1465 33.062 48.4132 32.4358C47.6799 31.8096 46.8 31.4965 45.8223 31.4965C44.3231 31.4965 43.1336 32.107 42.2699 33.3124L39.9071 31.8879C41.1944 30.1189 43.1173 29.211 45.6756 29.211ZM42.2047 39.1985C42.2047 39.8716 42.498 40.4352 43.101 40.8735C43.6876 41.3275 44.3883 41.5466 45.1868 41.5466C46.3111 41.5466 47.3214 41.1396 48.2014 40.3412C49.0813 39.5429 49.5213 38.588 49.5213 37.5078C48.6902 36.866 47.517 36.5529 46.0178 36.5529C44.926 36.5529 44.0135 36.8033 43.2965 37.3043C42.5632 37.8209 42.2047 38.4471 42.2047 39.1985Z" fill="#777677"/>
<path d="M55.1269 29.665H57.7015V31.9035H57.8156C58.6141 30.1503 60.2599 29.2736 62.7531 29.2736L63.3071 29.3362V32.0288L62.1175 31.9192C60.8791 31.9192 59.8525 32.2949 59.0377 33.0307C58.223 33.7664 57.8319 34.7057 57.8319 35.8484V43.4251H55.1432V29.665H55.1269ZM71.8784 43.6287C70.7051 43.6287 69.7437 43.2843 68.9779 42.5955C68.212 41.9067 67.8209 40.9361 67.7883 39.7151V32.0288H65.2788V29.6806H67.7883V25.4696H70.477V29.6806H73.9805V32.0288H70.477V38.8697C70.477 39.7933 70.6563 40.4039 71.0311 40.7326C71.4059 41.0613 71.8132 41.2179 72.2858 41.2179C72.4976 41.2179 72.7095 41.2022 72.9213 41.1553C73.1331 41.1083 73.3124 41.0457 73.4916 40.9674L74.339 43.2686C73.622 43.5034 72.8072 43.6287 71.8784 43.6287Z" fill="#777677"/>
<path d="M76.6855 29.6649H79.2602V31.5748H79.3742C79.7816 30.9016 80.4171 30.3381 81.2645 29.8998C82.1118 29.4458 82.9918 29.2266 83.9043 29.2266C85.6479 29.2266 87.0004 29.7119 87.9455 30.6668C88.8907 31.6217 89.3632 32.9993 89.3632 34.7683V43.4095H86.6745V34.9405C86.6093 32.7019 85.4361 31.5748 83.1384 31.5748C82.063 31.5748 81.1667 31.9974 80.4497 32.8271C79.7327 33.6568 79.3742 34.6587 79.3742 35.8171V43.4095H76.6855V29.6649Z" fill="#777677"/>
<path d="M98.9285 43.8478C96.8265 43.8478 95.0992 43.159 93.7304 41.7658C92.3616 40.3882 91.6935 38.6349 91.6935 36.5216C91.6935 34.4239 92.3616 32.6863 93.6815 31.293C95.0014 29.8998 96.6961 29.211 98.7656 29.211C100.884 29.211 102.579 29.8685 103.833 31.1834C105.088 32.4984 105.724 34.3456 105.724 36.7251L105.691 37.0069H94.4474C94.4799 38.3531 94.9525 39.4333 95.8488 40.263C96.745 41.0926 97.8205 41.4997 99.0589 41.4997C100.77 41.4997 102.106 40.67 103.084 39.0263L105.479 40.1534C104.844 41.3118 103.947 42.2198 102.807 42.8772C101.65 43.5191 100.363 43.8478 98.9285 43.8478ZM94.6429 34.8779H102.839C102.758 33.9229 102.351 33.1402 101.634 32.5141C100.9 31.8879 99.9226 31.5748 98.7004 31.5748C97.6901 31.5748 96.8102 31.8722 96.0932 32.4671C95.3599 33.062 94.871 33.876 94.6429 34.8779Z" fill="#777677"/>
<path d="M110.84 43.4095H108.152V29.665H110.726V31.9035H110.84C111.117 31.1678 111.671 30.5573 112.519 30.0407C113.366 29.5241 114.197 29.2736 115.012 29.2736C115.794 29.2736 116.446 29.3832 117 29.6024L116.185 32.0914C115.859 31.9662 115.322 31.8879 114.605 31.8879C113.594 31.8879 112.714 32.2793 111.965 33.062C111.215 33.8447 110.84 34.7683 110.84 35.8171V43.4095Z" fill="#777677"/>
<path d="M30.9121 11.5999V13.3532H35.2792C35.1326 14.4646 34.66 15.3256 33.8453 15.9361C33.0468 16.5467 32.0691 16.8441 30.9121 16.8441C29.5596 16.8441 28.4352 16.3901 27.5064 15.4822C26.5776 14.5899 26.1213 13.4784 26.1213 12.1791C26.1213 10.8798 26.5776 9.78397 27.5064 8.87602C28.4352 7.96807 29.5596 7.51409 30.9121 7.51409C32.1669 7.51409 33.2586 7.93676 34.2038 8.76644L35.4911 7.52974C34.2038 6.35567 32.672 5.7608 30.9121 5.7608C29.7226 5.7608 28.5982 6.05824 27.5227 6.63745C26.4635 7.21666 25.6324 7.99937 25.0295 9.00125C24.4266 9.98747 24.1333 11.0363 24.1333 12.1791C24.1333 13.3219 24.4266 14.3863 25.0295 15.3726C25.6324 16.3588 26.4635 17.1415 27.5227 17.7207C28.5819 18.2999 29.7063 18.5974 30.9121 18.5974C32.7209 18.5974 34.2038 18.0495 35.3933 16.9693C36.5666 15.8892 37.1532 14.4803 37.1532 12.6957C37.1532 12.273 37.1206 11.913 37.0554 11.5999H30.9121Z" fill="#487CBF"/>
<path d="M42.107 10.3318C40.8848 10.3318 39.8582 10.7232 39.0272 11.5216C38.1961 12.3043 37.7887 13.2905 37.7887 14.4646C37.7887 15.623 38.2124 16.6092 39.0435 17.4076C39.8745 18.206 40.8848 18.5973 42.107 18.5973C43.3291 18.5973 44.3394 18.206 45.1705 17.4076C46.0015 16.6092 46.4252 15.623 46.4252 14.4646C46.4252 13.2905 46.0015 12.3043 45.1705 11.5216C44.3557 10.7232 43.3291 10.3318 42.107 10.3318ZM43.818 16.2492C43.3454 16.7345 42.7751 16.9693 42.107 16.9693C41.4226 16.9693 40.8522 16.7345 40.3797 16.2492C39.9071 15.7639 39.679 15.169 39.679 14.4646C39.679 13.7288 39.9071 13.134 40.3797 12.68C40.8522 12.1947 41.4226 11.9599 42.107 11.9599C42.7914 11.9599 43.3617 12.1947 43.8343 12.68C44.3068 13.134 44.535 13.7288 44.535 14.4646C44.535 15.1534 44.3068 15.7483 43.818 16.2492Z" fill="#EF372C"/>
<path d="M68.049 6.1991H66.1588V18.3312H68.049V6.1991Z" fill="#00AC4E"/>
<path d="M51.5256 10.3318C50.3035 10.3318 49.2769 10.7232 48.4458 11.5216C47.6148 12.3043 47.2074 13.2905 47.2074 14.4646C47.2074 15.623 47.6311 16.6092 48.4621 17.4076C49.2932 18.206 50.3035 18.5973 51.5256 18.5973C52.7478 18.5973 53.7581 18.206 54.5891 17.4076C55.4202 16.6092 55.8439 15.623 55.8439 14.4646C55.8439 13.2905 55.4202 12.3043 54.5891 11.5216C53.7581 10.7232 52.7315 10.3318 51.5256 10.3318ZM53.2366 16.2492C52.7641 16.7345 52.1937 16.9693 51.5256 16.9693C50.8412 16.9693 50.2709 16.7345 49.7983 16.2492C49.3258 15.7639 49.0976 15.169 49.0976 14.4646C49.0976 13.7288 49.3258 13.134 49.7983 12.68C50.2709 12.1947 50.8412 11.9599 51.5256 11.9599C52.21 11.9599 52.7804 12.1947 53.2529 12.68C53.7255 13.134 53.9536 13.7288 53.9536 14.4646C53.9536 15.1534 53.7092 15.7483 53.2366 16.2492Z" fill="#FDB614"/>
<path d="M73.2146 16.9693C72.2695 16.9693 71.5688 16.5467 71.1288 15.717L76.8811 13.4314L76.6855 12.9618C76.5389 12.5705 76.3433 12.2261 76.0989 11.8973C75.8545 11.5686 75.5774 11.3025 75.2678 11.0676C74.9582 10.8328 74.5997 10.6606 74.2249 10.5354C73.8501 10.4102 73.4428 10.3475 73.0191 10.3475C71.8621 10.3475 70.9007 10.7389 70.1185 11.5216C69.3526 12.32 68.9616 13.3062 68.9616 14.4803C68.9616 15.6544 69.3689 16.6249 70.1837 17.4233C70.9985 18.2217 72.0088 18.613 73.2309 18.613C74.7464 18.613 75.9359 18.0025 76.8159 16.7815L75.3493 15.8422C74.7953 16.578 74.0946 16.9693 73.2146 16.9693ZM71.471 12.6174C71.9436 12.1634 72.4813 11.9286 73.068 11.9286C73.4428 11.9286 73.7687 12.0069 74.062 12.1634C74.3553 12.32 74.5508 12.5391 74.6649 12.7896L70.8192 14.3237C70.8029 13.6349 71.0148 13.0714 71.471 12.6174Z" fill="#EF372C"/>
<path d="M63.0627 11.2555H62.9975C62.4597 10.6449 61.6939 10.3318 60.7325 10.3318C59.6244 10.3318 58.663 10.7389 57.8319 11.5529C57.0171 12.3669 56.6097 13.3375 56.6097 14.4803C56.6097 15.6074 57.0171 16.5779 57.8319 17.392C58.663 18.1903 59.6407 18.5973 60.7325 18.5973C61.6939 18.5973 62.4597 18.2843 62.9975 17.6581H63.0627V18.0808C63.0627 19.8184 62.2968 20.6794 60.765 20.6794C60.2762 20.6794 59.8362 20.5385 59.4614 20.2724C59.0866 20.0062 58.7933 19.6462 58.5978 19.2079L56.952 19.8654C57.1149 20.2254 57.3267 20.5541 57.5712 20.8516C57.8156 21.149 58.1089 21.3995 58.4348 21.6186C58.7607 21.8378 59.1192 21.9943 59.5103 22.1196C59.9014 22.2448 60.3088 22.2918 60.7487 22.2918C62.0361 22.2918 63.0301 21.9161 63.7471 21.1803C64.4641 20.4289 64.8226 19.3801 64.8226 18.0025V10.598H63.0301V11.2555H63.0627ZM62.5249 16.2649C62.085 16.7345 61.5309 16.9693 60.8954 16.9693C60.2273 16.9693 59.657 16.7345 59.1844 16.2492C58.7281 15.7639 58.5 15.1847 58.5 14.4803C58.5 13.7758 58.7281 13.1809 59.2007 12.6957C59.6733 12.2104 60.2436 11.9599 60.8954 11.9599C61.5472 11.9599 62.085 12.1947 62.5249 12.68C62.9649 13.1653 63.193 13.7758 63.193 14.4803C63.193 15.169 62.9649 15.7639 62.5249 16.2649Z" fill="#487CBF"/>
<path d="M13.688 0H0V50H13.688V0Z" fill="#487CBF"/>
</svg>
