<?xml version="1.0" encoding="UTF-8"?>
<svg id="Layer_2" data-name="Layer 2" xmlns="http://www.w3.org/2000/svg" xmlns:xlink="http://www.w3.org/1999/xlink" viewBox="0 0 120 72">
  <defs>
    <style>
      .cls-1 {
        fill: #96989a;
      }

      .cls-2 {
        fill: #fff;
      }

      .cls-3 {
        fill: #009ee3;
      }

      .cls-4 {
        clip-path: url(#clippath);
      }

      .cls-5 {
        fill: none;
      }

      .cls-6 {
        fill: #eb5f11;
      }
    </style>
    <clipPath id="clippath">
      <rect class="cls-5" width="120" height="72"/>
    </clipPath>
  </defs>
  <g id="Layer_1-2" data-name="Layer 1">
    <g class="cls-4">
      <g>
        <rect class="cls-2" x="1.85" y="1.36" width="116.3" height="54.27"/>
        <path class="cls-6" d="M119.51,56.99H.49V0H119.51V56.99ZM3.21,54.27H116.79V2.71H3.21V54.27Z"/>
        <polygon class="cls-3" points="53.35 6.59 41.86 30.78 41.86 6.59 27.94 6.59 6.92 49.82 18.76 49.82 30.52 26.2 30.52 49.82 44.16 49.82 56.6 24.84 56.6 49.82 67.94 49.82 67.94 6.59 53.35 6.59"/>
        <path class="cls-3" d="M100.98,34.26c-.71,1.53-3.55,6.84-10.53,6.84s-11.77-6.35-11.77-12.93c0-6.17,4.2-12.7,11.71-12.7,6.03,0,9.34,3.84,10.59,7.08,0,0,10.31-3.79,10.33-3.76-2.88-6.23-9.79-13.07-20.86-13.07-14.31,0-22.95,11.4-22.95,22.52,0,11.75,9.34,22.63,23.06,22.63,9.48,0,17.68-5.47,21.11-14-.01,.09-10.71-2.6-10.71-2.6"/>
        <path class="cls-1" d="M2.47,70.39h1.1c.42,0,1.36-.01,1.36-1.33,0-.84-.31-1.35-1.31-1.35h-1.15v2.68Zm0-4.13h1.32c.43,0,1.03-.29,1.03-1.2,0-.69-.47-1.2-1.14-1.2h-1.21v2.4Zm-1.97,5.58v-9.44H4c1.5,0,2.75,.43,2.75,2.44,0,1.08-.54,1.87-1.61,2.08v.03c1.4,.2,1.77,1.1,1.77,2.39,0,2.39-2.08,2.5-2.91,2.5H.49Z"/>
        <polygon class="cls-1" points="8.45 71.84 8.45 62.41 13.6 62.41 13.6 63.85 10.43 63.85 10.43 66.18 13.36 66.18 13.36 67.63 10.43 67.63 10.43 70.39 13.71 70.39 13.71 71.84 8.45 71.84"/>
        <path class="cls-1" d="M20.45,72c-2.44,0-2.9-1.44-2.8-3.07h1.97c0,.9,.04,1.66,1.12,1.66,.67,0,.99-.43,.99-1.07,0-1.7-3.97-1.8-3.97-4.61,0-1.48,.7-2.66,3.11-2.66,1.92,0,2.87,.86,2.74,2.84h-1.92c0-.7-.12-1.43-.91-1.43-.64,0-1.02,.35-1.02,1.01,0,1.79,3.97,1.63,3.97,4.6,0,2.44-1.79,2.73-3.29,2.73"/>
        <path class="cls-1" d="M31.54,62.4v6.69c0,1.41-.8,2.9-3.2,2.9-2.17,0-3.22-1.12-3.22-2.9v-6.69h1.97v6.56c0,1.16,.5,1.62,1.22,1.62,.86,0,1.25-.58,1.25-1.62v-6.56h1.97Z"/>
        <path class="cls-1" d="M35.08,66.49h.87c.79,0,1.01-.79,1.01-1.39,0-.9-.38-1.24-1.01-1.24h-.87v2.63Zm0,5.36h-1.97v-9.44h3.65c1.34,0,2.21,.86,2.21,2.47,0,1.2-.47,2.1-1.75,2.31v.03c.43,.05,1.71,.16,1.71,1.86,0,.6,.04,2.38,.22,2.77h-1.94c-.26-.57-.21-1.22-.21-1.83,0-1.12,.1-2.08-1.41-2.08h-.51v3.91Z"/>
        <polygon class="cls-1" points="40.41 71.84 40.41 62.41 45.56 62.41 45.56 63.85 42.38 63.85 42.38 66.18 45.31 66.18 45.31 67.63 42.38 67.63 42.38 70.39 45.66 70.39 45.66 71.84 40.41 71.84"/>
        <rect class="cls-1" x="46.79" y="70.12" width="1.57" height="1.73"/>
        <path class="cls-1" d="M54.75,70.39h1.1c.42,0,1.36-.01,1.36-1.33,0-.84-.31-1.35-1.31-1.35h-1.15v2.68Zm0-4.13h1.32c.43,0,1.03-.29,1.03-1.2,0-.69-.47-1.2-1.14-1.2h-1.21v2.4Zm-1.97,5.58v-9.44h3.5c1.5,0,2.74,.43,2.74,2.44,0,1.08-.54,1.87-1.61,2.08v.03c1.4,.2,1.77,1.1,1.77,2.39,0,2.39-2.08,2.5-2.91,2.5h-3.49Z"/>
        <path class="cls-1" d="M67.11,62.4v6.69c0,1.41-.8,2.9-3.2,2.9-2.17,0-3.22-1.12-3.22-2.9v-6.69h1.97v6.56c0,1.16,.5,1.62,1.22,1.62,.86,0,1.25-.58,1.25-1.62v-6.56h1.97Z"/>
        <rect class="cls-1" x="68.72" y="62.41" width="1.97" height="9.44"/>
        <polygon class="cls-1" points="72.37 71.84 72.37 62.41 74.34 62.41 74.34 70.27 77.29 70.27 77.29 71.84 72.37 71.84"/>
        <path class="cls-1" d="M80.17,70.39h.95c1.2,0,1.44-.9,1.44-3.27,0-1.74,0-3.27-1.37-3.27h-1.02v6.54Zm-1.97-7.99h3.29c2.59,0,3.07,1.73,3.07,4.67,0,1.45,.22,4.77-3.15,4.77h-3.21v-9.44Z"/>
        <path class="cls-1" d="M91.6,72c-2.44,0-2.9-1.44-2.8-3.07h1.97c0,.9,.04,1.66,1.12,1.66,.67,0,1-.43,1-1.07,0-1.7-3.97-1.8-3.97-4.61,0-1.48,.7-2.66,3.11-2.66,1.92,0,2.87,.86,2.74,2.84h-1.92c0-.7-.12-1.43-.92-1.43-.64,0-1.02,.35-1.02,1.01,0,1.79,3.97,1.63,3.97,4.6,0,2.44-1.79,2.73-3.3,2.73"/>
        <path class="cls-1" d="M102.69,62.4v6.69c0,1.41-.8,2.9-3.2,2.9-2.17,0-3.22-1.12-3.22-2.9v-6.69h1.97v6.56c0,1.16,.5,1.62,1.22,1.62,.86,0,1.25-.58,1.25-1.62v-6.56h1.97Z"/>
        <path class="cls-1" d="M106.23,66.49h.87c.79,0,1.01-.79,1.01-1.39,0-.9-.38-1.24-1.01-1.24h-.87v2.63Zm0,5.36h-1.97v-9.44h3.65c1.34,0,2.21,.86,2.21,2.47,0,1.2-.47,2.1-1.75,2.31v.03c.43,.05,1.71,.16,1.71,1.86,0,.6,.04,2.38,.22,2.77h-1.94c-.26-.57-.21-1.22-.21-1.83,0-1.12,.1-2.08-1.41-2.08h-.51v3.91Z"/>
        <polygon class="cls-1" points="111.56 71.84 111.56 62.41 116.71 62.41 116.71 63.85 113.54 63.85 113.54 66.18 116.46 66.18 116.46 67.63 113.54 67.63 113.54 70.39 116.81 70.39 116.81 71.84 111.56 71.84"/>
        <rect class="cls-1" x="117.94" y="70.12" width="1.57" height="1.73"/>
      </g>
    </g>
  </g>
</svg>