<svg width="90" height="28" viewBox="0 0 90 28" fill="none" xmlns="http://www.w3.org/2000/svg">
<path d="M10.0873 11.1162V9.98201C8.21057 9.72563 6.30213 10.1078 4.66881 11.067C3.03549 12.0262 1.77217 13.5069 1.08195 15.2708C0.391736 17.0348 0.314723 18.9796 0.863295 20.7926C1.41187 22.6056 2.55415 24.1814 4.10651 25.2669L3.98897 25.1385C2.9312 23.9337 2.23796 22.4529 1.99023 20.8688C1.7425 19.2848 1.95048 17.6631 2.58989 16.1928C3.2293 14.7226 4.27375 13.4646 5.60132 12.5657C6.92888 11.6667 8.48475 11.164 10.0873 11.1162Z" fill="#25F4EE"/>
<path d="M10.2865 23.4042C11.2909 23.3969 12.254 23.0041 12.977 22.3069C13.7001 21.6098 14.1276 20.6616 14.1714 19.6582L14.1806 1.29595H17.5144L17.5069 1.25474C17.4374 0.875014 17.4028 0.489771 17.4031 0.10376H12.8068V18.501C12.7841 19.1531 12.5961 19.7886 12.2605 20.3482C11.9248 20.9076 11.4526 21.3727 10.888 21.6997C10.3235 22.0267 9.68507 22.2049 9.03277 22.2176C8.38046 22.2304 7.73562 22.0771 7.15874 21.7723C7.51407 22.2721 7.98278 22.6805 8.52646 22.9643C9.07014 23.2478 9.67333 23.3987 10.2865 23.4042Z" fill="#25F4EE"/>
<path d="M8.94728 14.4531C8.07711 14.4475 7.2305 14.7355 6.54424 15.2706C5.85798 15.8056 5.37216 16.5564 5.1653 17.4016C4.95846 18.2469 5.04264 19.1371 5.40427 19.9287C5.7659 20.7201 6.38384 21.3666 7.15823 21.7635C6.67951 21.1084 6.42023 20.3188 6.41748 19.5076C6.41474 18.6962 6.66867 17.9048 7.14294 17.2467C7.61723 16.5884 8.28754 16.0971 9.058 15.8429C9.82845 15.5886 10.6596 15.5847 11.4324 15.8315V11.1452C11.0551 11.0922 10.6746 11.0646 10.2936 11.0627C10.2265 11.0627 10.1608 11.0627 10.0937 11.0627H10.0631V14.6027C9.7015 14.4939 9.32482 14.4434 8.94728 14.4531Z" fill="#FE2C55"/>
<path d="M23.7851 7.50586H23.7607L23.75 11.0397C21.4596 11.0376 19.228 10.3138 17.3722 8.97129V18.3531C17.3647 19.8919 16.9375 21.3993 16.1365 22.7131C15.3356 24.027 14.1914 25.0975 12.8272 25.8092C11.463 26.5208 9.93043 26.8469 8.39462 26.752C6.85882 26.6573 5.378 26.1452 4.11165 25.2712C5.26652 26.5149 6.76941 27.3815 8.42425 27.7583C10.0791 28.1351 11.809 28.0044 13.3885 27.3832C14.9679 26.7622 16.3236 25.6795 17.2784 24.2764C18.2332 22.8734 18.7432 21.215 18.7415 19.5178V10.1787C20.6025 11.5159 22.8368 12.2342 25.1284 12.2319V7.64783C24.6768 7.64771 24.2267 7.60013 23.7851 7.50586Z" fill="#FE2C55"/>
<path d="M17.4037 18.3481V9.01972C19.2645 10.3573 21.4989 11.0756 23.7906 11.0729V7.50544C22.4361 7.21463 21.2126 6.492 20.3041 5.4462C19.5782 4.97409 18.956 4.35955 18.4748 3.6398C17.9934 2.92007 17.6634 2.11012 17.5045 1.25903H14.1461V19.6563C14.1175 20.4595 13.8383 21.2336 13.3477 21.8702C12.8571 22.5069 12.1796 22.974 11.4101 23.2061C10.6407 23.4384 9.81792 23.4242 9.05703 23.1653C8.29613 22.9065 7.63527 22.4161 7.16703 21.763C6.40245 21.3629 5.7941 20.7179 5.43924 19.9314C5.08439 19.1448 5.00354 18.2618 5.20959 17.424C5.41565 16.5859 5.89673 15.8413 6.57592 15.3089C7.2551 14.7767 8.09315 14.4875 8.95608 14.4876C9.34256 14.4887 9.72658 14.549 10.0948 14.6662V11.0683C8.4672 11.1055 6.88504 11.6126 5.53902 12.5284C4.193 13.4443 3.14054 14.7299 2.50845 16.2302C1.87636 17.7305 1.69163 19.3818 1.9765 20.9847C2.26137 22.5877 3.00371 24.0739 4.11405 25.2647C5.37921 26.1522 6.86375 26.6755 8.40584 26.7773C9.94795 26.8792 11.4884 26.5558 12.8593 25.8423C14.2302 25.1288 15.379 24.0526 16.1803 22.7311C16.9817 21.4096 17.4048 19.8935 17.4037 18.3481Z" fill="white"/>
<path d="M23.7852 7.58362V6.4876C22.548 6.48739 21.3378 6.12553 20.3033 5.44653C21.1995 6.47234 22.4099 7.27833 23.7852 7.58362Z" fill="#25F4EE"/>
<path d="M20.3053 5.4462C19.2917 4.28684 18.7336 2.79895 18.7345 1.25903H17.4736C17.6387 2.11189 17.9747 2.92252 18.4614 3.64211C18.9481 4.3617 19.5751 4.97538 20.3053 5.4462Z" fill="#FE2C55"/>
<path d="M29 2.00537H38.4825L37.6119 4.71695H35.1505V14.7442H32.0859V4.71695L29.0031 4.723L29 2.00537Z" fill="white"/>
<path d="M54.0078 2.00537H63.7062L62.8356 4.71695H60.1624V14.7442H57.0937V4.71695L54.0099 4.723L54.0078 2.00537Z" fill="white"/>
<path d="M39.0576 6.05664H42.097L42.094 14.7432H39.0757L39.0576 6.05664Z" fill="white"/>
<path d="M43.3018 1.96899H46.3372V7.89756L49.3433 4.94891H52.9749L49.1688 8.64206L53.4319 14.7431H50.0818L47.237 10.5123L46.3372 11.3869V14.7431H43.3018V1.96899Z" fill="white"/>
<path d="M75.4707 1.96899H78.5071V7.89756L81.5153 4.94487H85.1388L81.3337 8.63796L85.5958 14.7391H82.2487L79.405 10.5123L78.5051 11.3869V14.7431H75.4707V1.96899Z" fill="white"/>
<path d="M40.5762 5.06397C41.4208 5.06397 42.1055 4.37928 42.1055 3.53467C42.1055 2.69006 41.4208 2.00537 40.5762 2.00537C39.7316 2.00537 39.0469 2.69006 39.0469 3.53467C39.0469 4.37928 39.7316 5.06397 40.5762 5.06397Z" fill="white"/>
<path d="M63.3175 9.54296C63.3175 8.23506 63.8106 6.9752 64.6983 6.01471C65.5861 5.05423 66.8033 4.46369 68.1071 4.3609C67.972 4.35081 67.7884 4.34375 67.6512 4.34375C66.2847 4.36278 64.9806 4.91898 64.021 5.89205C63.0614 6.86512 62.5234 8.17686 62.5234 9.54346C62.5234 10.9101 63.0614 12.2219 64.021 13.1949C64.9806 14.168 66.2847 14.7242 67.6512 14.7432C67.7884 14.7432 67.972 14.7362 68.1071 14.7251C66.8033 14.6223 65.5861 14.0317 64.6983 13.0712C63.8106 12.1108 63.3175 10.8509 63.3175 9.54296Z" fill="#25F4EE"/>
<path d="M69.291 4.34377C69.1528 4.34377 68.9682 4.35083 68.832 4.36092C70.1357 4.46389 71.3527 5.05451 72.2403 6.01498C73.1279 6.97544 73.6209 8.23516 73.6209 9.54296C73.6209 10.8508 73.1279 12.1106 72.2403 13.071C71.3527 14.0315 70.1357 14.6221 68.832 14.7251C68.9682 14.7362 69.1528 14.7432 69.291 14.7432C69.9799 14.7528 70.6639 14.6254 71.3031 14.3684C71.9424 14.1114 72.5242 13.7299 73.0148 13.2462C73.5054 12.7624 73.8949 12.1859 74.1608 11.5503C74.4267 10.9146 74.5636 10.2325 74.5636 9.54346C74.5636 8.85446 74.4267 8.17236 74.1608 7.53676C73.8949 6.9011 73.5054 6.32464 73.0148 5.84085C72.5242 5.35706 71.9424 4.97558 71.3031 4.71858C70.6639 4.46157 69.9799 4.33417 69.291 4.34377Z" fill="#FE2C55"/>
<path d="M68.4688 4.34375C67.4403 4.34355 66.4347 4.64839 65.5794 5.21972C64.7241 5.79105 64.0574 6.60321 63.6637 7.55346C63.2699 8.50376 63.1669 9.54936 63.3675 10.5583C63.5681 11.5671 64.0634 12.4938 64.7907 13.2211C65.5181 13.9484 66.4447 14.4437 67.4536 14.6444C68.4624 14.845 69.5081 14.7419 70.4583 14.3482C71.4086 13.9545 72.2208 13.2878 72.7921 12.4325C73.3634 11.5771 73.6683 10.5716 73.6681 9.54296C73.6681 8.16406 73.1203 6.84161 72.1452 5.86656C71.1702 4.89152 69.8478 4.34375 68.4688 4.34375ZM68.4688 12.071C67.9689 12.071 67.4801 11.9227 67.0644 11.6449C66.6487 11.3672 66.3246 10.9723 66.1333 10.5104C65.942 10.0485 65.8919 9.54016 65.9894 9.04976C66.087 8.55936 66.3278 8.10896 66.6813 7.75536C67.0348 7.40186 67.4853 7.16106 67.9757 7.06355C68.466 6.96601 68.9743 7.01607 69.4363 7.20736C69.8982 7.39876 70.293 7.72276 70.5708 8.13846C70.8486 8.55426 70.9968 9.04296 70.9968 9.54296C70.9968 10.2135 70.7305 10.8565 70.2564 11.3306C69.7823 11.8046 69.1393 12.071 68.4688 12.071Z" fill="white"/>
<path d="M30.3399 19.2038H29.666L29 24.2593H29.7294L30.2289 20.4585L31.9494 23.7017H32.5996L34.3042 20.4585L34.8037 24.2593H35.5331L34.8671 19.2038H34.1932L32.2666 22.9166L30.3399 19.2038ZM39.852 24.2593V20.8327H39.1383V21.3463C38.9085 20.9721 38.3773 20.7593 37.8384 20.7593C37.3149 20.7593 36.8709 20.9208 36.5062 21.251C36.1415 21.5811 35.9591 22.0067 35.9591 22.5423C35.9591 23.0707 36.1415 23.5036 36.5062 23.8338C36.8709 24.164 37.3149 24.3327 37.8384 24.3327C38.3773 24.3327 38.8925 24.1126 39.1383 23.731V24.2593H39.852ZM39.1306 22.535C39.1306 22.8872 39.0118 23.1661 38.7737 23.3715C38.5357 23.5769 38.2426 23.6797 37.9016 23.6797C37.5607 23.6797 37.2753 23.5696 37.0453 23.3568C36.8154 23.144 36.6965 22.8652 36.6965 22.535C36.6965 22.2049 36.8075 21.9334 37.0374 21.7279C37.2672 21.5151 37.5607 21.4124 37.9016 21.4124C38.2266 21.4124 38.512 21.5151 38.7578 21.7132C39.0036 21.9113 39.1306 22.1902 39.1306 22.535ZM41.4641 23.012C41.4641 22.0434 41.805 21.3977 42.4786 21.3977C42.6689 21.3977 42.8514 21.4344 43.0257 21.5151L43.1368 20.8914C43.0021 20.8034 42.7881 20.7593 42.4946 20.7593C41.9871 20.7593 41.6461 21.0382 41.4641 21.6032V20.8327H40.7426V24.2593H41.4641V23.012ZM45.9558 24.2593H46.9071L44.9408 22.3149L46.5266 20.8327H45.5434L44.2672 22.0287V18.969H43.5535V24.2593H44.2672V22.5864L45.9558 24.2593ZM47.4594 22.2782C47.5468 21.7132 48.0065 21.361 48.6328 21.361C49.2354 21.361 49.6715 21.7132 49.7588 22.2782H47.4594ZM50.4721 22.535C50.4721 21.9994 50.2978 21.5738 49.9491 21.251C49.6082 20.9208 49.164 20.7593 48.6328 20.7593C48.0939 20.7593 47.6419 20.9208 47.2769 21.251C46.9205 21.5738 46.7379 21.9994 46.7379 22.535C46.7379 23.0707 46.9205 23.5036 47.2769 23.8338C47.6419 24.164 48.0939 24.3327 48.6328 24.3327C49.3701 24.3327 50.0283 24.0099 50.3374 23.4229L50.0361 23.3202C49.8936 23.2688 49.7903 23.2247 49.7192 23.2028C49.5208 23.5329 49.1084 23.731 48.6565 23.731C48.0224 23.731 47.5468 23.3642 47.4594 22.7992H50.4644C50.4721 22.7478 50.4721 22.6598 50.4721 22.535ZM52.0712 19.5413H51.3498V20.8327H50.6835V21.3977H51.3498V24.2593H52.0712V21.3977H52.8559V20.8327H52.0712V19.5413ZM54.0702 24.2593V20.8327H53.3566V24.2593H54.0702ZM53.3566 19.8788C53.555 20.0476 53.8718 20.0476 54.0621 19.8788C54.2605 19.7101 54.2605 19.4313 54.0621 19.2625C53.8718 19.0937 53.555 19.0937 53.3566 19.2625C53.1663 19.4313 53.1663 19.7101 53.3566 19.8788ZM55.681 22.4103C55.681 21.7352 56.1489 21.4124 56.7278 21.4124C57.2349 21.4124 57.5444 21.7573 57.5444 22.3223V24.2593H58.2659V22.2782C58.2659 21.3096 57.7584 20.7593 56.8385 20.7593C56.3869 20.7593 55.8954 20.9648 55.681 21.3463V20.8327H54.9596V24.2593H55.681V22.4103ZM59.3794 24.8904C59.2051 24.9784 59.1022 25.0298 59.0626 25.0445C59.4113 25.6315 60.0376 25.969 60.7353 25.969C62.0831 25.969 62.7572 25.2279 62.7572 23.7384V20.8327H62.0435V21.3684C61.8136 20.9868 61.2825 20.7593 60.7431 20.7593C60.2201 20.7593 59.7759 20.9281 59.4113 21.2583C59.0467 21.5885 58.8642 22.0214 58.8642 22.557C58.8642 23.0854 59.0467 23.5109 59.4113 23.8411C59.7759 24.1713 60.2201 24.3327 60.7431 24.3327C61.2825 24.3327 61.8296 24.0906 62.0435 23.7017C62.0435 23.7237 62.0517 23.7604 62.0517 23.7824C62.0517 24.817 61.6156 25.3379 60.7353 25.3379C60.3152 25.3379 59.8792 25.1252 59.6648 24.751L59.3794 24.8904ZM62.0357 22.5497C62.0357 22.8946 61.9088 23.1661 61.663 23.3715C61.4172 23.5769 61.1318 23.6797 60.8068 23.6797C60.4659 23.6797 60.1723 23.5769 59.9425 23.3715C59.7126 23.1661 59.6015 22.8946 59.6015 22.5497C59.6015 22.2195 59.7203 21.948 59.9506 21.7352C60.1805 21.5225 60.4659 21.4124 60.8068 21.4124C61.1477 21.4124 61.4409 21.5151 61.6789 21.7206C61.9169 21.9187 62.0357 22.1975 62.0357 22.5497ZM65.525 24.2593H66.2701V22.3663H67.7052C68.2446 22.3663 68.6488 22.2122 68.9182 21.9113C69.1959 21.6032 69.3306 21.2289 69.3306 20.7887C69.3306 20.3484 69.1959 19.9742 68.9182 19.6661C68.6488 19.3579 68.2446 19.2038 67.7052 19.2038H65.525V24.2593ZM67.6975 19.8422C68.2919 19.8422 68.5932 20.2677 68.5932 20.7887C68.5932 21.3096 68.2842 21.7279 67.6579 21.7279H66.2701V19.8422H67.6975ZM73.3811 24.2593V20.8327H72.6675V21.3463C72.4376 20.9721 71.9064 20.7593 71.3671 20.7593C70.8441 20.7593 70.3998 20.9208 70.0353 21.251C69.6707 21.5811 69.4881 22.0067 69.4881 22.5423C69.4881 23.0707 69.6707 23.5036 70.0353 23.8338C70.3998 24.164 70.8441 24.3327 71.3671 24.3327C71.9064 24.3327 72.4217 24.1126 72.6675 23.731V24.2593H73.3811ZM72.6597 22.535C72.6597 22.8872 72.5405 23.1661 72.3029 23.3715C72.0648 23.5769 71.7717 23.6797 71.4308 23.6797C71.0899 23.6797 70.8045 23.5696 70.5742 23.3568C70.3443 23.144 70.2255 22.8652 70.2255 22.535C70.2255 22.2049 70.3366 21.9334 70.5664 21.7279C70.7963 21.5151 71.0899 21.4124 71.4308 21.4124C71.7558 21.4124 72.0412 21.5151 72.2869 21.7132C72.5327 21.9113 72.6597 22.1902 72.6597 22.535ZM74.9932 23.012C74.9932 22.0434 75.3341 21.3977 76.0078 21.3977C76.198 21.3977 76.3805 21.4344 76.5549 21.5151L76.6659 20.8914C76.5312 20.8034 76.3173 20.7593 76.0237 20.7593C75.5162 20.7593 75.1753 21.0382 74.9932 21.6032V20.8327H74.2713V24.2593H74.9932V23.012ZM78.0812 19.5413H77.3598V20.8327H76.6939V21.3977H77.3598V24.2593H78.0812V21.3977H78.8664V20.8327H78.0812V19.5413ZM80.0884 22.4103C80.0884 21.7352 80.5559 21.4124 81.1349 21.4124C81.6424 21.4124 81.9514 21.7573 81.9514 22.3223V24.2593H82.6729V22.2782C82.6729 21.3096 82.1658 20.7593 81.2459 20.7593C80.7939 20.7593 80.3024 20.9648 80.0884 21.3463V20.8327H79.367V24.2593H80.0884V22.4103ZM83.9931 22.2782C84.08 21.7132 84.5402 21.361 85.1665 21.361C85.7691 21.361 86.2051 21.7132 86.2921 22.2782H83.9931ZM87.0058 22.535C87.0058 21.9994 86.8314 21.5738 86.4824 21.251C86.1414 20.9208 85.6976 20.7593 85.1665 20.7593C84.6271 20.7593 84.1751 20.9208 83.8105 21.251C83.4537 21.5738 83.2716 21.9994 83.2716 22.535C83.2716 23.0707 83.4537 23.5036 83.8105 23.8338C84.1751 24.164 84.6271 24.3327 85.1665 24.3327C85.9038 24.3327 86.562 24.0099 86.8711 23.4229L86.5697 23.3202C86.4268 23.2688 86.324 23.2247 86.2525 23.2028C86.0545 23.5329 85.6421 23.731 85.1901 23.731C84.5557 23.731 84.08 23.3642 83.9931 22.7992H86.998C87.0058 22.7478 87.0058 22.6598 87.0058 22.535ZM88.3273 23.012C88.3273 22.0434 88.6682 21.3977 89.3418 21.3977C89.5325 21.3977 89.7146 21.4344 89.8889 21.5151L90 20.8914C89.8653 20.8034 89.6513 20.7593 89.3578 20.7593C88.8503 20.7593 88.5094 21.0382 88.3273 21.6032V20.8327H87.6058V24.2593H88.3273V23.012Z" fill="white"/>
</svg>
