<svg width="165" height="50" viewBox="0 0 165 50" fill="none" xmlns="http://www.w3.org/2000/svg">
<path d="M17.6725 19.76V17.7249C14.2126 17.2649 10.6941 17.9505 7.68294 19.6718C4.67174 21.393 2.34267 24.0497 1.07019 27.2149C-0.202297 30.3801 -0.344278 33.8697 0.667073 37.1228C1.67842 40.376 3.78434 43.2036 6.64629 45.1513L6.42958 44.921C4.47946 42.7592 3.20141 40.102 2.7447 37.2597C2.28797 34.4174 2.67141 31.5074 3.85023 28.8693C5.02905 26.2311 6.95461 23.9738 9.40211 22.3609C11.8496 20.7479 14.718 19.8458 17.6725 19.76Z" fill="#25F4EE"/>
<path d="M18.0398 41.8091C19.8914 41.7961 21.6671 41.0912 23 39.8403C24.333 38.5894 25.1213 36.888 25.202 35.0875L25.2189 2.13921H31.3652L31.3512 2.06525C31.2232 1.3839 31.1593 0.692641 31.1599 0H22.6861V33.0112C22.6442 34.1812 22.2977 35.3216 21.6789 36.3257C21.0602 37.3295 20.1896 38.1639 19.1487 38.7506C18.1079 39.3374 16.9309 39.6573 15.7284 39.6801C14.5258 39.7029 13.3369 39.4278 12.2734 38.881C12.9285 39.7778 13.7926 40.5107 14.7949 41.0198C15.7973 41.5286 16.9093 41.7993 18.0398 41.8091Z" fill="#25F4EE"/>
<path d="M15.5708 25.7478C13.9665 25.7378 12.4057 26.2546 11.1405 27.2146C9.87531 28.1747 8.97965 29.5218 8.59829 31.0385C8.21695 32.5552 8.37215 34.1526 9.03885 35.573C9.70555 36.993 10.8448 38.153 12.2725 38.8652C11.3899 37.6898 10.9119 36.273 10.9068 34.8173C10.9017 33.3614 11.3699 31.9413 12.2443 30.7605C13.1187 29.5793 14.3545 28.6977 15.7749 28.2415C17.1953 27.7854 18.7275 27.7783 20.1523 28.2212V19.8122C19.4567 19.7171 18.7553 19.6677 18.0529 19.6643C17.9291 19.6643 17.8081 19.6643 17.6843 19.6643H17.628V26.0162C16.9612 25.8209 16.2668 25.7303 15.5708 25.7478Z" fill="#FE2C55"/>
<path d="M42.9258 13.2819H42.8809L42.8611 19.6229C38.6385 19.6191 34.5244 18.3204 31.103 15.9114V32.7456C31.0891 35.5068 30.3015 38.2117 28.8249 40.5691C27.3483 42.9267 25.2389 44.8475 22.7238 46.1245C20.2087 47.4014 17.3833 47.9866 14.5519 47.8163C11.7205 47.6464 8.9904 46.7275 6.65575 45.1592C8.78488 47.3909 11.5556 48.9459 14.6065 49.622C17.6573 50.2981 20.8467 50.0635 23.7586 48.9489C26.6704 47.8345 29.1697 45.8918 30.9301 43.3742C32.6904 40.8566 33.6306 37.881 33.6275 34.8356V18.078C37.0584 20.4774 41.1775 21.7662 45.4023 21.7621V13.5367C44.5698 13.5364 43.7399 13.4511 42.9258 13.2819Z" fill="#FE2C55"/>
<path d="M31.1611 32.7367V15.9983C34.5917 18.3984 38.7111 19.6872 42.9359 19.6824V13.2812C40.4388 12.7594 38.1832 11.4627 36.5082 9.58619C35.17 8.73906 34.0228 7.63635 33.1357 6.34487C32.2483 5.05342 31.6398 3.60008 31.3469 2.07294H25.1554V35.084C25.1026 36.5253 24.5879 37.9144 23.6834 39.0567C22.7789 40.199 21.5298 41.0372 20.1113 41.4537C18.6928 41.8705 17.1759 41.845 15.7731 41.3804C14.3703 40.9161 13.1519 40.0361 12.2887 38.8642C10.8791 38.1463 9.75753 36.989 9.1033 35.5777C8.44909 34.1663 8.30004 32.5819 8.67992 31.0785C9.0598 29.5748 9.94673 28.2386 11.1989 27.2834C12.451 26.3284 13.9961 25.8094 15.587 25.8097C16.2995 25.8117 17.0075 25.9198 17.6864 26.1301V19.6742C14.6857 19.7409 11.7688 20.6508 9.28726 22.2942C6.80572 23.9376 4.8654 26.2443 3.70008 28.9364C2.53476 31.6286 2.19419 34.5915 2.71938 37.4677C3.24457 40.344 4.61315 43.0109 6.66018 45.1475C8.99263 46.74 11.7295 47.679 14.5725 47.8617C17.4156 48.0444 20.2556 47.4642 22.783 46.184C25.3104 44.9037 27.4282 42.9726 28.9055 40.6014C30.383 38.2302 31.163 35.5098 31.1611 32.7367Z" fill="#1C2B33"/>
<path d="M42.9261 13.4216V11.4549C40.6452 11.4546 38.4139 10.8053 36.5068 9.58691C38.1589 11.4276 40.3905 12.8738 42.9261 13.4216Z" fill="#25F4EE"/>
<path d="M36.5104 9.58619C34.6418 7.50588 33.6129 4.83609 33.6146 2.07294H31.2899C31.5943 3.60326 32.2139 5.05781 33.1111 6.34902C34.0082 7.6402 35.1643 8.74137 36.5104 9.58619Z" fill="#FE2C55"/>
<path d="M52.5401 3.41211H70.0221L68.417 8.27764H63.8792V26.27H58.2293V8.27764L52.5458 8.28849L52.5401 3.41211Z" fill="#1C2B33"/>
<path d="M98.6446 3.41211H116.525L114.92 8.27764H109.991V26.27H104.334V8.27764L98.6485 8.28849L98.6446 3.41211Z" fill="#1C2B33"/>
<path d="M71.0824 10.6815H76.6858L76.6803 26.2682H71.1157L71.0824 10.6815Z" fill="#1C2B33"/>
<path d="M78.9069 3.34686H84.503V13.9848L90.045 8.69389H96.7403L89.7233 15.3207L97.5828 26.268H91.4065L86.1618 18.6765L84.503 20.2458V26.268H78.9069V3.34686Z" fill="#1C2B33"/>
<path d="M138.214 3.34686H143.812V13.9848L149.358 8.68664H156.038L149.023 15.3133L156.88 26.2609H150.71L145.467 18.6765L143.808 20.2458V26.268H138.214V3.34686Z" fill="#1C2B33"/>
<path d="M73.882 8.90031C75.4391 8.90031 76.7014 7.67174 76.7014 6.15621C76.7014 4.64068 75.4391 3.41211 73.882 3.41211C72.3249 3.41211 71.0625 4.64068 71.0625 6.15621C71.0625 7.67174 72.3249 8.90031 73.882 8.90031Z" fill="#1C2B33"/>
<path d="M115.808 16.9372C115.808 14.5904 116.717 12.3298 118.354 10.6063C119.99 8.88288 122.234 7.82325 124.638 7.63881C124.389 7.6207 124.051 7.60803 123.798 7.60803C121.278 7.64218 118.874 8.6402 117.105 10.3862C115.336 12.1323 114.344 14.486 114.344 16.9381C114.344 19.3903 115.336 21.7441 117.105 23.49C118.874 25.2361 121.278 26.2341 123.798 26.2682C124.051 26.2682 124.389 26.2557 124.638 26.2358C122.234 26.0513 119.99 24.9916 118.354 23.2681C116.717 21.5448 115.808 19.2841 115.808 16.9372Z" fill="#25F4EE"/>
<path d="M126.821 7.60802C126.566 7.60802 126.226 7.62069 125.975 7.6388C128.378 7.82356 130.622 8.88334 132.258 10.6068C133.895 12.3302 134.803 14.5905 134.803 16.9372C134.803 19.2839 133.895 21.5444 132.258 23.2677C130.622 24.9911 128.378 26.0509 125.975 26.2357C126.226 26.2556 126.566 26.2682 126.821 26.2682C128.091 26.2854 129.352 26.0568 130.53 25.5957C131.709 25.1345 132.782 24.45 133.686 23.582C134.591 22.7139 135.309 21.6795 135.799 20.539C136.289 19.3983 136.541 18.1744 136.541 16.9381C136.541 15.7018 136.289 14.4779 135.799 13.3374C135.309 12.1968 134.591 11.1624 133.686 10.2943C132.782 9.42622 131.709 8.74171 130.53 8.28056C129.352 7.8194 128.091 7.5908 126.821 7.60802Z" fill="#FE2C55"/>
<path d="M125.305 7.60803C123.409 7.60767 121.555 8.15466 119.978 9.17983C118.401 10.205 117.172 11.6623 116.446 13.3674C115.72 15.0726 115.53 16.9487 115.9 18.759C116.27 20.5692 117.183 22.232 118.524 23.537C119.865 24.8421 121.573 25.7308 123.433 26.091C125.293 26.4509 127.221 26.2659 128.973 25.5595C130.725 24.853 132.222 23.6567 133.275 22.122C134.329 20.5871 134.891 18.7829 134.89 16.9372C134.89 14.463 133.88 12.0901 132.083 10.3405C130.285 8.59092 127.847 7.60803 125.305 7.60803ZM125.305 21.4734C124.383 21.4734 123.482 21.2073 122.716 20.7088C121.949 20.2105 121.352 19.5019 120.999 18.6731C120.646 17.8443 120.554 16.9322 120.734 16.0523C120.914 15.1723 121.358 14.3641 122.009 13.7297C122.661 13.0954 123.492 12.6633 124.396 12.4883C125.3 12.3133 126.237 12.4031 127.089 12.7464C127.94 13.0898 128.668 13.6712 129.18 14.4171C129.692 15.1632 129.966 16.0401 129.966 16.9372C129.966 18.1404 129.475 19.2941 128.601 20.1448C127.726 20.9953 126.541 21.4734 125.305 21.4734Z" fill="#1C2B33"/>
<path d="M55.0103 34.2721H53.7679L52.5401 43.3436H53.8848L54.8056 36.5235L57.9776 42.343H59.1762L62.3189 36.5235L63.2398 43.3436H64.5845L63.3567 34.2721H62.1142L58.5623 40.9342L55.0103 34.2721ZM72.5469 43.3436V37.195H71.2311V38.1166C70.8074 37.4452 69.8281 37.0634 68.8345 37.0634C67.8695 37.0634 67.0509 37.353 66.3785 37.9455C65.7061 38.5379 65.37 39.3016 65.37 40.2627C65.37 41.2107 65.7061 41.9875 66.3785 42.5799C67.0509 43.1724 67.8695 43.4752 68.8345 43.4752C69.8281 43.4752 70.778 43.0802 71.2311 42.3956V43.3436H72.5469ZM71.2168 40.2495C71.2168 40.8815 70.9978 41.3819 70.559 41.7505C70.1201 42.1191 69.5797 42.3035 68.9512 42.3035C68.3227 42.3035 67.7965 42.106 67.3725 41.7242C66.9486 41.3423 66.7294 40.842 66.7294 40.2495C66.7294 39.6571 66.934 39.17 67.3579 38.8013C67.7814 38.4195 68.3227 38.2351 68.9512 38.2351C69.5503 38.2351 70.0765 38.4195 70.5296 38.775C70.9827 39.1304 71.2168 39.6307 71.2168 40.2495ZM75.5189 41.1054C75.5189 39.3674 76.1474 38.2088 77.3893 38.2088C77.7401 38.2088 78.0766 38.2747 78.398 38.4195L78.6027 37.3003C78.3543 37.1424 77.9599 37.0634 77.4187 37.0634C76.4831 37.0634 75.8545 37.5637 75.5189 38.5775V37.195H74.1888V43.3436H75.5189V41.1054ZM83.7999 43.3436H85.5537L81.9286 39.8546L84.8522 37.195H83.0396L80.6867 39.3411V33.8508H79.3709V43.3436H80.6867V40.3417L83.7999 43.3436ZM86.5719 39.7888C86.733 38.775 87.5805 38.143 88.7352 38.143C89.8462 38.143 90.6501 38.775 90.8112 39.7888H86.5719ZM92.1261 40.2495C92.1261 39.2884 91.8047 38.5248 91.1619 37.9455C90.5334 37.353 89.7144 37.0634 88.7352 37.0634C87.7416 37.0634 86.9083 37.353 86.2354 37.9455C85.5783 38.5248 85.2418 39.2884 85.2418 40.2495C85.2418 41.2107 85.5783 41.9875 86.2354 42.5799C86.9083 43.1724 87.7416 43.4752 88.7352 43.4752C90.0946 43.4752 91.308 42.896 91.8778 41.8426L91.3223 41.6583C91.0596 41.5661 90.8691 41.4871 90.7382 41.4477C90.3723 42.0401 89.6121 42.3956 88.7788 42.3956C87.6099 42.3956 86.733 41.7373 86.5719 40.7235H92.1119C92.1261 40.6314 92.1261 40.4734 92.1261 40.2495ZM95.0743 34.8778H93.7443V37.195H92.5158V38.2088H93.7443V43.3436H95.0743V38.2088H96.521V37.195H95.0743V34.8778ZM98.7597 43.3436V37.195H97.4439V43.3436H98.7597ZM97.4439 35.4834C97.8098 35.7862 98.3939 35.7862 98.7446 35.4834C99.1105 35.1806 99.1105 34.6803 98.7446 34.3775C98.3939 34.0746 97.8098 34.0746 97.4439 34.3775C97.0932 34.6803 97.0932 35.1806 97.4439 35.4834ZM101.729 40.0257C101.729 38.8144 102.592 38.2351 103.659 38.2351C104.594 38.2351 105.165 38.8539 105.165 39.8678V43.3436H106.495V39.7888C106.495 38.0508 105.559 37.0634 103.863 37.0634C103.031 37.0634 102.124 37.432 101.729 38.1166V37.195H100.399V43.3436H101.729V40.0257ZM108.548 44.4759C108.226 44.6339 108.037 44.726 107.964 44.7524C108.606 45.8056 109.761 46.4113 111.048 46.4113C113.532 46.4113 114.775 45.0815 114.775 42.4088V37.195H113.459V38.1562C113.035 37.4715 112.056 37.0634 111.062 37.0634C110.098 37.0634 109.279 37.3662 108.606 37.9587C107.934 38.5512 107.598 39.3279 107.598 40.2891C107.598 41.237 107.934 42.0007 108.606 42.5931C109.279 43.1856 110.098 43.4752 111.062 43.4752C112.056 43.4752 113.065 43.0408 113.459 42.343C113.459 42.3824 113.474 42.4483 113.474 42.4878C113.474 44.3442 112.67 45.279 111.048 45.279C110.273 45.279 109.469 44.8972 109.074 44.2257L108.548 44.4759ZM113.445 40.2759C113.445 40.8947 113.211 41.3819 112.758 41.7505C112.305 42.1191 111.778 42.3035 111.179 42.3035C110.551 42.3035 110.01 42.1191 109.586 41.7505C109.162 41.3819 108.957 40.8947 108.957 40.2759C108.957 39.6834 109.176 39.1963 109.601 38.8144C110.025 38.4326 110.551 38.2351 111.179 38.2351C111.808 38.2351 112.348 38.4195 112.787 38.7881C113.226 39.1436 113.445 39.6439 113.445 40.2759ZM119.878 43.3436H121.251V39.9467H123.897C124.892 39.9467 125.637 39.6703 126.134 39.1304C126.645 38.5775 126.894 37.906 126.894 37.116C126.894 36.3261 126.645 35.6546 126.134 35.1016C125.637 34.5486 124.892 34.2721 123.897 34.2721H119.878V43.3436ZM123.883 35.4176C124.979 35.4176 125.534 36.1812 125.534 37.116C125.534 38.0508 124.965 38.8013 123.81 38.8013H121.251V35.4176H123.883ZM134.361 43.3436V37.195H133.046V38.1166C132.622 37.4452 131.643 37.0634 130.648 37.0634C129.684 37.0634 128.865 37.353 128.193 37.9455C127.521 38.5379 127.184 39.3016 127.184 40.2627C127.184 41.2107 127.521 41.9875 128.193 42.5799C128.865 43.1724 129.684 43.4752 130.648 43.4752C131.643 43.4752 132.592 43.0802 133.046 42.3956V43.3436H134.361ZM133.031 40.2495C133.031 40.8815 132.812 41.3819 132.373 41.7505C131.935 42.1191 131.394 42.3035 130.766 42.3035C130.137 42.3035 129.611 42.106 129.186 41.7242C128.763 41.3423 128.544 40.842 128.544 40.2495C128.544 39.6571 128.748 39.17 129.172 38.8013C129.596 38.4195 130.137 38.2351 130.766 38.2351C131.365 38.2351 131.891 38.4195 132.344 38.775C132.797 39.1304 133.031 39.6307 133.031 40.2495ZM137.333 41.1054C137.333 39.3674 137.962 38.2088 139.204 38.2088C139.555 38.2088 139.891 38.2747 140.212 38.4195L140.417 37.3003C140.169 37.1424 139.774 37.0634 139.233 37.0634C138.298 37.0634 137.669 37.5637 137.333 38.5775V37.195H136.002V43.3436H137.333V41.1054ZM143.027 34.8778H141.696V37.195H140.469V38.2088H141.696V43.3436H143.027V38.2088H144.474V37.195H143.027V34.8778ZM146.727 40.0257C146.727 38.8144 147.589 38.2351 148.656 38.2351C149.592 38.2351 150.162 38.8539 150.162 39.8678V43.3436H151.492V39.7888C151.492 38.0508 150.557 37.0634 148.861 37.0634C148.028 37.0634 147.121 37.432 146.727 38.1166V37.195H145.397V43.3436H146.727V40.0257ZM153.926 39.7888C154.086 38.775 154.934 38.143 156.089 38.143C157.2 38.143 158.004 38.775 158.164 39.7888H153.926ZM159.48 40.2495C159.48 39.2884 159.158 38.5248 158.515 37.9455C157.886 37.353 157.068 37.0634 156.089 37.0634C155.094 37.0634 154.261 37.353 153.589 37.9455C152.931 38.5248 152.596 39.2884 152.596 40.2495C152.596 41.2107 152.931 41.9875 153.589 42.5799C154.261 43.1724 155.094 43.4752 156.089 43.4752C157.448 43.4752 158.662 42.896 159.231 41.8426L158.676 41.6583C158.412 41.5661 158.223 41.4871 158.091 41.4477C157.726 42.0401 156.966 42.3956 156.133 42.3956C154.963 42.3956 154.086 41.7373 153.926 40.7235H159.466C159.48 40.6314 159.48 40.4734 159.48 40.2495ZM161.916 41.1054C161.916 39.3674 162.545 38.2088 163.787 38.2088C164.138 38.2088 164.474 38.2747 164.795 38.4195L165 37.3003C164.752 37.1424 164.357 37.0634 163.816 37.0634C162.88 37.0634 162.252 37.5637 161.916 38.5775V37.195H160.586V43.3436H161.916V41.1054Z" fill="#1C2B33"/>
</svg>
