<svg width="40" height="21" viewBox="0 0 40 21" fill="none" xmlns="http://www.w3.org/2000/svg">
<path d="M6.40527 0.0135498C6.56343 0.0135498 6.69522 0.0407237 6.81384 0.0950714C6.91927 0.149419 7.01153 0.230941 7.07743 0.339636C7.14333 0.448331 7.19604 0.557027 7.20922 0.692896C7.23558 0.828765 7.24876 0.964635 7.24876 1.11409V2.37767C7.24876 2.64941 7.2224 2.85322 7.15651 3.01626C7.09061 3.1793 6.95881 3.32876 6.74794 3.4918L1.62109 7.30973V7.71734H6.89291C6.99835 7.71734 7.07743 7.7581 7.13015 7.82603C7.18286 7.90755 7.19604 7.98907 7.19604 8.09777V9.00809C7.19604 9.11679 7.16969 9.2119 7.13015 9.27983C7.07743 9.36135 6.99835 9.38853 6.89291 9.38853H0.830313C0.658978 9.38853 0.527183 9.36135 0.421746 9.30701C0.31631 9.25266 0.224053 9.17114 0.171334 9.07603C0.105436 8.98092 0.0658977 8.87222 0.0395386 8.73636C0.0131795 8.60049 0 8.46462 0 8.31516V7.09234C0 6.95647 -7.56105e-08 6.83419 0.0131795 6.72549C0.0263591 6.6168 0.0395387 6.52169 0.0658978 6.42658C0.092257 6.33147 0.144975 6.24995 0.210873 6.16843C0.276771 6.08691 0.369028 6.00538 0.474464 5.92386L5.62768 2.07876V1.69833H0.355848C0.250412 1.69833 0.171334 1.65757 0.118616 1.58963C0.0658978 1.50811 0.0527182 1.42659 0.0527182 1.31789V0.407571C0.0527182 0.298875 0.0790774 0.203767 0.118616 0.135832C0.171334 0.0543107 0.250412 0.0271368 0.355848 0.0271368H6.40527V0.0135498Z" fill="#4A3AFF"/>
<path d="M10.6755 0.0135498C10.715 0.0135498 10.7809 0.0407237 10.86 0.0814844C10.939 0.122245 10.9786 0.230941 10.9786 0.407571V9.00809C10.9786 9.18472 10.939 9.29342 10.86 9.33418C10.7809 9.37494 10.715 9.40211 10.6755 9.40211H9.66063C9.62109 9.40211 9.55519 9.37494 9.47611 9.33418C9.39704 9.29342 9.3575 9.18472 9.3575 9.00809V0.421158C9.3575 0.244528 9.39704 0.135832 9.47611 0.0950714C9.55519 0.0543106 9.62109 0.0271368 9.66063 0.0271368H10.6755V0.0135498Z" fill="#4A3AFF"/>
<path d="M19.0049 5.50271C19.0445 5.57065 19.1235 5.70652 19.2422 5.89674C19.3476 6.08695 19.4794 6.31793 19.6244 6.56249C19.7693 6.82065 19.9275 7.0788 20.0857 7.36412C20.2438 7.63586 20.3888 7.9076 20.5338 8.15217C20.6656 8.39673 20.7842 8.61412 20.8632 8.77716C20.9423 8.95379 20.995 9.06249 20.995 9.10325C20.995 9.18477 20.9819 9.25271 20.9423 9.32064C20.9028 9.37499 20.8369 9.41575 20.7446 9.41575H19.5321C19.4399 9.41575 19.374 9.40216 19.3212 9.3614C19.2685 9.32064 19.2158 9.26629 19.1763 9.18477L17.173 5.54348H14.8402V9.02173C14.8402 9.13042 14.8138 9.22553 14.7743 9.30705C14.7216 9.38858 14.6425 9.42934 14.5371 9.42934H13.5354C13.43 9.42934 13.3377 9.38858 13.2982 9.30705C13.2455 9.22553 13.2191 9.13042 13.2191 9.02173V4.22554C13.2191 4.11685 13.2455 4.02174 13.285 3.95381C13.3377 3.87228 13.4168 3.84511 13.5354 3.84511H18.346C18.5173 3.84511 18.6491 3.81794 18.7545 3.76359C18.86 3.70924 18.9259 3.62772 18.9786 3.53261C19.0313 3.4375 19.0708 3.31522 19.084 3.19294C19.0972 3.07066 19.1104 2.9212 19.1104 2.78533C19.1104 2.63587 19.0972 2.5 19.084 2.37772C19.0708 2.24185 19.0313 2.13316 18.9786 2.03805C18.9259 1.94294 18.8468 1.86142 18.7545 1.80707C18.6491 1.75272 18.5173 1.72555 18.346 1.72555H13.5354C13.4168 1.72555 13.3377 1.68479 13.285 1.61685C13.2323 1.53533 13.2191 1.45381 13.2191 1.34512V0.448379C13.2191 0.339684 13.2455 0.244575 13.285 0.163054C13.3377 0.0815322 13.4168 0.0407715 13.5354 0.0407715H18.6227C19.0445 0.0407715 19.3871 0.108706 19.6639 0.258162C19.9407 0.407618 20.1516 0.597835 20.3097 0.855987C20.4679 1.10055 20.5865 1.39946 20.6524 1.73914C20.7183 2.07881 20.7578 2.43207 20.7578 2.8125C20.7578 3.125 20.7315 3.45109 20.6919 3.75C20.6392 4.0625 20.5601 4.33424 20.4283 4.5788C20.2965 4.82337 20.1252 5.04076 19.9011 5.2038C19.6507 5.33967 19.3608 5.44837 19.0049 5.50271Z" fill="#4A3AFF"/>
<path d="M28.1647 0.0135498C28.7446 0.0135498 29.2059 0.108658 29.5618 0.285288C29.9176 0.461918 30.1944 0.706483 30.3921 1.01898C30.5898 1.33148 30.7216 1.71192 30.7875 2.1467C30.8534 2.58148 30.8929 3.05702 30.8929 3.57332V5.82875C30.8929 6.34506 30.8534 6.8206 30.7875 7.25538C30.7216 7.69016 30.5898 8.0706 30.3921 8.38309C30.1944 8.69559 29.9176 8.95375 29.5618 9.13038C29.2059 9.30701 28.7315 9.40211 28.1516 9.40211H25.4498C24.8699 9.40211 24.4086 9.30701 24.0527 9.13038C23.6969 8.95375 23.4201 8.69559 23.2224 8.38309C23.0247 8.0706 22.8929 7.69016 22.827 7.25538C22.7611 6.8206 22.7216 6.34506 22.7216 5.84234V3.58691C22.7216 3.08419 22.7611 2.60865 22.827 2.17387C22.8929 1.73909 23.0247 1.35866 23.2224 1.04616C23.4201 0.733657 23.6969 0.475505 24.0527 0.298875C24.4086 0.122245 24.8699 0.0271368 25.4498 0.0271368H28.1647V0.0135498ZM29.2455 3.38311C29.2455 3.15213 29.2323 2.92115 29.2191 2.71735C29.2059 2.51354 29.1664 2.33691 29.0873 2.18746C29.0214 2.038 28.9028 1.91572 28.7446 1.8342C28.5865 1.75268 28.3756 1.69833 28.0988 1.69833H25.5156C25.2389 1.69833 25.028 1.73909 24.8699 1.8342C24.7117 1.91572 24.6063 2.038 24.5272 2.18746C24.4481 2.33691 24.4086 2.51354 24.3954 2.71735C24.3822 2.92115 24.369 3.13854 24.369 3.38311V6.03256C24.369 6.26354 24.3822 6.49451 24.3954 6.69832C24.4086 6.90212 24.4481 7.07875 24.5272 7.22821C24.6063 7.37766 24.7117 7.49994 24.8699 7.58147C25.028 7.66299 25.2389 7.71734 25.5156 7.71734H28.0988C28.3756 7.71734 28.5997 7.67657 28.7446 7.58147C28.9028 7.49994 29.0082 7.37766 29.0873 7.22821C29.1532 7.07875 29.2059 6.90212 29.2191 6.69832C29.2323 6.49451 29.2455 6.27712 29.2455 6.03256V3.38311Z" fill="#4A3AFF"/>
<path d="M39.0115 0.0135868C39.117 0.0135868 39.196 0.0543477 39.2488 0.135869C39.3015 0.217391 39.3147 0.312499 39.3147 0.421195V12.1331V13.913L34.5832 2.14673V9.02172C34.5832 9.13041 34.5568 9.22552 34.5173 9.30704C34.4646 9.38856 34.3855 9.42932 34.2801 9.42932H33.2916C33.1862 9.42932 33.0939 9.38856 33.0412 9.30704C32.9885 9.22552 32.9621 9.13041 32.9621 9.02172V1.49456C32.9621 1.31793 32.9753 1.12771 32.9885 0.951085C33.0016 0.774455 33.0544 0.624998 33.1203 0.489129C33.1862 0.35326 33.2784 0.244565 33.4102 0.149456C33.542 0.0679345 33.7002 0.0135868 33.9242 0.0135868H34.7018C34.8863 0.0135868 35.0313 0.0271738 35.1499 0.0543476C35.2685 0.0815215 35.3608 0.135869 35.4399 0.203804C35.5189 0.271738 35.5848 0.35326 35.6507 0.461955C35.7166 0.570651 35.7957 0.692933 35.8748 0.855976L37.654 5.36683H37.7068V0.407608C37.7068 0.298912 37.7331 0.203804 37.7727 0.122282C37.8122 0.0407607 37.9044 0 38.0099 0H39.0115V0.0135868Z" fill="#4A3AFF"/>
<path d="M8.54036 12.3044C8.76442 12.3044 8.92257 12.3452 9.04119 12.4403C9.1598 12.5218 9.23888 12.6305 9.2916 12.7664C9.34431 12.9023 9.37068 13.0381 9.38385 13.2012C9.39703 13.3642 9.39704 13.5137 9.39704 13.6631V20.6196C9.39704 20.7147 9.37068 20.8099 9.33114 20.8778C9.27842 20.9457 9.21252 20.9865 9.10708 20.9865H8.22405C8.11862 20.9865 8.05272 20.9457 8 20.8778C7.96046 20.8099 7.9341 20.7147 7.9341 20.6196V14.2745H7.88138L6.10214 18.7582C6.03624 18.9213 5.97035 19.0707 5.90445 19.2338C5.83855 19.3832 5.7463 19.5191 5.65404 19.6278C5.5486 19.7501 5.42998 19.8316 5.27183 19.9131C5.12685 19.9811 4.92916 20.0218 4.70511 20.0218C4.54695 20.0218 4.3888 20.0082 4.27018 19.9811C4.13839 19.9539 4.01977 19.8859 3.91433 19.8044C3.8089 19.7229 3.70346 19.587 3.59802 19.424C3.50577 19.2609 3.40033 19.0436 3.29489 18.7718L1.51565 14.2881H1.46293V20.6332C1.46293 20.7283 1.43657 20.8234 1.39704 20.8914C1.3575 20.9593 1.27842 21.0001 1.17298 21.0001H0.289952C0.184516 21.0001 0.118616 20.9593 0.0658978 20.8914C0.0131796 20.8234 0 20.7283 0 20.6332V13.6631C0 13.5001 0.0131812 13.3235 0.0263607 13.1604C0.0395403 12.9974 0.0790774 12.8479 0.131796 12.7256C0.184514 12.6034 0.276774 12.4947 0.382211 12.4267C0.500827 12.3452 0.658979 12.3044 0.869852 12.3044H1.8056C1.99012 12.3044 2.13509 12.3316 2.24053 12.3724C2.34596 12.4131 2.43822 12.4811 2.50412 12.5762C2.57002 12.6577 2.62274 12.7664 2.66227 12.8887C2.70181 13.011 2.75453 13.1468 2.82043 13.2963L4.63921 17.9974H4.75783L6.60296 13.2963C6.66886 13.1468 6.72158 13.011 6.76112 12.8887C6.80066 12.7664 6.85338 12.6577 6.91927 12.5762C6.98517 12.4947 7.07743 12.4267 7.18287 12.3724C7.2883 12.318 7.43328 12.3044 7.61779 12.3044H8.54036Z" fill="#962DFF"/>
<path d="M17.4893 12.3044C17.5288 12.3044 17.5815 12.3316 17.6606 12.3724C17.7397 12.4131 17.7792 12.5218 17.7792 12.6713V13.4865C17.7792 13.6495 17.7397 13.7447 17.6606 13.7854C17.5815 13.8262 17.5288 13.8534 17.4893 13.8534H11.6112C11.5717 13.8534 11.5189 13.8398 11.4399 13.799C11.374 13.7582 11.3344 13.6631 11.3344 13.5001V12.6849C11.3344 12.5218 11.374 12.4131 11.4399 12.3724C11.5058 12.3316 11.5717 12.3044 11.6112 12.3044H17.4893Z" fill="#4A3AFF"/>
<path d="M12.8633 18.4593C12.8633 18.8125 12.9555 19.0707 13.14 19.2065C13.3246 19.3424 13.5618 19.4239 13.8781 19.4239H17.4761C17.5816 19.4239 17.6606 19.4647 17.7002 19.5326C17.7397 19.6006 17.7661 19.6821 17.7661 19.7908V20.6196C17.7661 20.7147 17.7397 20.7962 17.7002 20.8777C17.6606 20.9593 17.5816 20.9864 17.4761 20.9864H13.8517C13.3641 20.9864 12.9555 20.9185 12.626 20.769C12.2965 20.6196 12.0461 20.4158 11.8484 20.1576C11.6639 19.8859 11.519 19.5734 11.4399 19.193C11.3608 18.8125 11.3213 18.3913 11.3213 17.9294V16.5299C11.3213 16.4484 11.3344 16.3533 11.3608 16.2718C11.3872 16.1902 11.4399 16.1087 11.4926 16.0408C11.5585 15.9729 11.6376 15.9185 11.743 15.8777C11.8484 15.837 11.9802 15.8098 12.1384 15.8098H17.4102C17.5157 15.8098 17.5816 15.8506 17.6343 15.9185C17.6738 15.9864 17.7002 16.068 17.7002 16.1767V17.0055C17.7002 17.1006 17.6738 17.1957 17.6343 17.2636C17.5947 17.3316 17.5157 17.3723 17.4102 17.3723H12.8369V18.4593H12.8633Z" fill="#962DFF"/>
<path d="M23.9868 12.3044C24.5404 12.3044 24.9885 12.3996 25.3575 12.5762C25.7133 12.7528 25.9901 12.9974 26.201 13.3235C26.3987 13.636 26.5437 14.0164 26.6227 14.4376C26.7018 14.8724 26.7414 15.3343 26.7414 15.8235V17.4675C26.7414 17.9702 26.7018 18.4457 26.6227 18.8669C26.5437 19.3017 26.3987 19.6686 26.201 19.9811C25.9901 20.2936 25.7133 20.5381 25.3575 20.7147C25.0017 20.8914 24.5404 20.9865 23.9868 20.9865H20.5074C20.4152 20.9865 20.3097 20.9729 20.2043 20.9321C20.0989 20.8914 20.0066 20.837 19.9143 20.7691C19.8353 20.7012 19.7562 20.6196 19.7035 20.5245C19.6507 20.4294 19.6112 20.3207 19.6112 20.212V13.011C19.6112 12.7936 19.6903 12.6169 19.8484 12.4947C20.0066 12.3588 20.1911 12.3044 20.4152 12.3044H23.9868ZM23.9605 19.424C24.2504 19.424 24.4876 19.3832 24.6458 19.2881C24.8171 19.193 24.9358 19.0707 25.028 18.9077C25.1071 18.7446 25.173 18.5544 25.1862 18.337C25.2125 18.1196 25.2257 17.8887 25.2257 17.6305V15.6604C25.2257 15.4023 25.2125 15.1713 25.1862 14.9539C25.1598 14.7365 25.1071 14.5463 25.028 14.3832C24.9489 14.2202 24.8171 14.0979 24.6458 14.0028C24.4745 13.9077 24.2504 13.8669 23.9605 13.8669H21.1269V19.424H23.9605Z" fill="#962DFF"/>
<path d="M29.9045 12.3044C29.944 12.3044 29.9967 12.3316 30.0758 12.3724C30.1549 12.4131 30.1944 12.5218 30.1944 12.6713V20.6196C30.1944 20.7827 30.1549 20.8778 30.0758 20.9186C29.9967 20.9593 29.944 20.9865 29.9045 20.9865H28.9687C28.9292 20.9865 28.8633 20.9593 28.7974 20.9186C28.7183 20.8778 28.6788 20.7691 28.6788 20.6196V12.6713C28.6788 12.5082 28.7183 12.4131 28.7974 12.3724C28.8764 12.3316 28.9292 12.3044 28.9687 12.3044H29.9045Z" fill="#962DFF"/>
<path d="M35.8089 12.1821C35.9934 12.1821 36.1516 12.2093 36.2834 12.2637C36.4152 12.318 36.5338 12.3995 36.626 12.4946C36.7183 12.5897 36.8105 12.6984 36.8764 12.8343C36.9423 12.9702 37.0082 13.1196 37.0741 13.2827L39.9605 20.5788C39.9868 20.6468 40 20.7147 40 20.7555C40 20.8234 39.9736 20.8778 39.9341 20.9185C39.8946 20.9593 39.8287 20.9865 39.7628 20.9865H38.6689C38.5239 20.9865 38.4316 20.9049 38.3789 20.7555L35.8353 14.2066H35.7957L34.4646 17.6577H35.7298C35.8616 17.6577 35.9671 17.7256 36.0198 17.8751C36.0461 17.9294 36.0725 17.9973 36.112 18.106C36.1516 18.2011 36.2043 18.3098 36.2438 18.4185C36.2834 18.5272 36.3229 18.6223 36.3624 18.7174C36.3888 18.8125 36.4152 18.8805 36.4152 18.9348C36.4152 19.0299 36.3888 19.1115 36.3229 19.1794C36.257 19.2473 36.1779 19.2745 36.0857 19.2745H33.8451L33.2652 20.7827C33.2125 20.9321 33.1203 21 32.9753 21H31.855C31.6969 21 31.6178 20.9185 31.6178 20.7691C31.6178 20.7011 31.631 20.6332 31.6442 20.5924L34.5041 13.2827C34.6227 12.9702 34.7809 12.6984 34.9786 12.4946C35.1763 12.2908 35.4531 12.1821 35.8089 12.1821Z" fill="#962DFF"/>
</svg>
