<svg width="146" height="24" viewBox="0 0 146 24" fill="none" xmlns="http://www.w3.org/2000/svg">
<path d="M11.3906 0.0234375C11.6719 0.0234375 11.9063 0.0703126 12.1172 0.164063C12.3047 0.257813 12.4688 0.398438 12.5859 0.585938C12.7031 0.773438 12.7969 0.960938 12.8203 1.19531C12.8672 1.42969 12.8906 1.66406 12.8906 1.92188V4.10156C12.8906 4.57031 12.8438 4.92188 12.7266 5.20313C12.6094 5.48438 12.375 5.74219 12 6.02344L2.88281 12.6094V13.3125H12.2578C12.4453 13.3125 12.5859 13.3828 12.6797 13.5C12.7734 13.6406 12.7969 13.7813 12.7969 13.9688V15.5391C12.7969 15.7266 12.75 15.8906 12.6797 16.0078C12.5859 16.1484 12.4453 16.1953 12.2578 16.1953H1.47656C1.17187 16.1953 0.9375 16.1484 0.75 16.0547C0.5625 15.9609 0.398437 15.8203 0.304687 15.6563C0.1875 15.4922 0.117187 15.3047 0.0703123 15.0703C0.0234373 14.8359 0 14.6016 0 14.3438V12.2344C0 12 -1.3446e-07 11.7891 0.0234374 11.6016C0.0468749 11.4141 0.0703125 11.25 0.117188 11.0859C0.164063 10.9219 0.257812 10.7813 0.375 10.6406C0.492187 10.5 0.65625 10.3594 0.84375 10.2188L10.0078 3.58594V2.92969H0.632812C0.445312 2.92969 0.304687 2.85938 0.210937 2.74219C0.117187 2.60156 0.0937499 2.46094 0.0937499 2.27344V0.703125C0.0937499 0.515625 0.140625 0.351563 0.210937 0.234375C0.304687 0.0937501 0.445312 0.0468751 0.632812 0.0468751H11.3906V0.0234375Z" fill="#4A3AFF"/>
<path d="M18.9844 0.0234375C19.0547 0.0234375 19.1719 0.0703125 19.3125 0.140625C19.4531 0.210938 19.5234 0.398438 19.5234 0.703125V15.5391C19.5234 15.8437 19.4531 16.0312 19.3125 16.1016C19.1719 16.1719 19.0547 16.2187 18.9844 16.2187H17.1797C17.1094 16.2187 16.9922 16.1719 16.8516 16.1016C16.7109 16.0312 16.6406 15.8437 16.6406 15.5391V0.726562C16.6406 0.421875 16.7109 0.234375 16.8516 0.164063C16.9922 0.0937501 17.1094 0.0468751 17.1797 0.0468751H18.9844V0.0234375Z" fill="#4A3AFF"/>
<path d="M33.7969 9.49219C33.8672 9.60937 34.0078 9.84375 34.2188 10.1719C34.4063 10.5 34.6406 10.8984 34.8984 11.3203C35.1562 11.7656 35.4375 12.2109 35.7187 12.7031C36 13.1719 36.2578 13.6406 36.5156 14.0625C36.75 14.4844 36.9609 14.8594 37.1016 15.1406C37.2422 15.4453 37.3359 15.6328 37.3359 15.7031C37.3359 15.8438 37.3125 15.9609 37.2422 16.0781C37.1719 16.1719 37.0547 16.2422 36.8906 16.2422H34.7344C34.5703 16.2422 34.4531 16.2187 34.3594 16.1484C34.2656 16.0781 34.1719 15.9844 34.1016 15.8438L30.5391 9.5625H26.3906V15.5625C26.3906 15.75 26.3437 15.9141 26.2734 16.0547C26.1797 16.1953 26.0391 16.2656 25.8516 16.2656H24.0703C23.8828 16.2656 23.7187 16.1953 23.6484 16.0547C23.5547 15.9141 23.5078 15.75 23.5078 15.5625V7.28906C23.5078 7.10156 23.5547 6.9375 23.625 6.82031C23.7188 6.67969 23.8594 6.63281 24.0703 6.63281H32.625C32.9297 6.63281 33.1641 6.58594 33.3516 6.49219C33.5391 6.39844 33.6563 6.25781 33.75 6.09375C33.8438 5.92969 33.9141 5.71875 33.9375 5.50781C33.9609 5.29687 33.9844 5.03906 33.9844 4.80469C33.9844 4.54687 33.9609 4.3125 33.9375 4.10156C33.9141 3.86719 33.8438 3.67969 33.75 3.51562C33.6563 3.35156 33.5156 3.21094 33.3516 3.11719C33.1641 3.02344 32.9297 2.97656 32.625 2.97656H24.0703C23.8594 2.97656 23.7188 2.90625 23.625 2.78906C23.5312 2.64844 23.5078 2.50781 23.5078 2.32031V0.773438C23.5078 0.585937 23.5547 0.421875 23.625 0.28125C23.7188 0.140625 23.8594 0.0703125 24.0703 0.0703125H33.1172C33.8672 0.0703125 34.4766 0.1875 34.9688 0.445312C35.4609 0.703125 35.8359 1.03125 36.1172 1.47656C36.3984 1.89844 36.6094 2.41406 36.7266 3C36.8438 3.58594 36.9141 4.19531 36.9141 4.85156C36.9141 5.39062 36.8672 5.95313 36.7969 6.46875C36.7031 7.00781 36.5625 7.47656 36.3281 7.89844C36.0938 8.32031 35.7891 8.69531 35.3906 8.97656C34.9453 9.21094 34.4297 9.39844 33.7969 9.49219Z" fill="#4A3AFF"/>
<path d="M50.0859 0.0234375C51.1172 0.0234375 51.9375 0.1875 52.5703 0.492188C53.2031 0.796875 53.6953 1.21875 54.0469 1.75781C54.3984 2.29687 54.6328 2.95313 54.75 3.70313C54.8672 4.45313 54.9375 5.27344 54.9375 6.16406V10.0547C54.9375 10.9453 54.8672 11.7656 54.75 12.5156C54.6328 13.2656 54.3984 13.9219 54.0469 14.4609C53.6953 15 53.2031 15.4453 52.5703 15.75C51.9375 16.0547 51.0937 16.2187 50.0625 16.2187H45.2578C44.2266 16.2187 43.4063 16.0547 42.7734 15.75C42.1406 15.4453 41.6484 15 41.2969 14.4609C40.9453 13.9219 40.7109 13.2656 40.5938 12.5156C40.4766 11.7656 40.4062 10.9453 40.4062 10.0781V6.1875C40.4062 5.32031 40.4766 4.5 40.5938 3.75C40.7109 3 40.9453 2.34375 41.2969 1.80469C41.6484 1.26563 42.1406 0.820313 42.7734 0.515625C43.4063 0.210938 44.2266 0.0468751 45.2578 0.0468751H50.0859V0.0234375ZM52.0078 5.83594C52.0078 5.4375 51.9844 5.03906 51.9609 4.6875C51.9375 4.33594 51.8672 4.03125 51.7266 3.77344C51.6094 3.51562 51.3984 3.30469 51.1172 3.16406C50.8359 3.02344 50.4609 2.92969 49.9688 2.92969H45.375C44.8828 2.92969 44.5078 3 44.2266 3.16406C43.9453 3.30469 43.7578 3.51562 43.6172 3.77344C43.4766 4.03125 43.4062 4.33594 43.3828 4.6875C43.3594 5.03906 43.3359 5.41406 43.3359 5.83594V10.4063C43.3359 10.8047 43.3594 11.2031 43.3828 11.5547C43.4062 11.9062 43.4766 12.2109 43.6172 12.4687C43.7578 12.7266 43.9453 12.9375 44.2266 13.0781C44.5078 13.2187 44.8828 13.3125 45.375 13.3125H49.9688C50.4609 13.3125 50.8594 13.2422 51.1172 13.0781C51.3984 12.9375 51.5859 12.7266 51.7266 12.4687C51.8438 12.2109 51.9375 11.9062 51.9609 11.5547C51.9844 11.2031 52.0078 10.8281 52.0078 10.4063V5.83594Z" fill="#4A3AFF"/>
<path d="M69.375 0.0234374C69.5625 0.0234374 69.7031 0.09375 69.7969 0.234375C69.8906 0.375 69.9141 0.539062 69.9141 0.726562V20.9297V24L61.5 3.70313V15.5625C61.5 15.75 61.4531 15.9141 61.3828 16.0547C61.2891 16.1953 61.1484 16.2656 60.9609 16.2656H59.2031C59.0156 16.2656 58.8516 16.1953 58.7578 16.0547C58.6641 15.9141 58.6172 15.75 58.6172 15.5625V2.57812C58.6172 2.27344 58.6406 1.94531 58.6641 1.64062C58.6875 1.33594 58.7812 1.07812 58.8984 0.84375C59.0156 0.609375 59.1797 0.421875 59.4141 0.257812C59.6484 0.117187 59.9297 0.0234374 60.3281 0.0234374H61.7109C62.0391 0.0234374 62.2969 0.0468749 62.5078 0.0937499C62.7187 0.140625 62.8828 0.234375 63.0234 0.351563C63.1641 0.46875 63.2812 0.609375 63.3984 0.796875C63.5156 0.984375 63.6562 1.19531 63.7969 1.47656L66.9609 9.25781H67.0547V0.703125C67.0547 0.515625 67.1016 0.351562 67.1719 0.210937C67.2422 0.0703124 67.4062 0 67.5937 0H69.375V0.0234374Z" fill="#4A3AFF"/>
<path d="M89.1797 0.234375C89.5781 0.234375 89.8594 0.304688 90.0703 0.46875C90.2813 0.609375 90.4219 0.796875 90.5156 1.03125C90.6094 1.26562 90.6563 1.5 90.6797 1.78125C90.7031 2.0625 90.7031 2.32031 90.7031 2.57812V14.5781C90.7031 14.7422 90.6563 14.9063 90.5859 15.0234C90.4922 15.1406 90.375 15.2109 90.1875 15.2109H88.6172C88.4297 15.2109 88.3125 15.1406 88.2188 15.0234C88.1484 14.9063 88.1016 14.7422 88.1016 14.5781V3.63281H88.0078L84.8438 11.3672C84.7266 11.6484 84.6094 11.9063 84.4922 12.1875C84.375 12.4453 84.2109 12.6797 84.0469 12.8672C83.8594 13.0781 83.6484 13.2188 83.3672 13.3594C83.1094 13.4766 82.7578 13.5469 82.3594 13.5469C82.0781 13.5469 81.7969 13.5234 81.5859 13.4766C81.3516 13.4297 81.1406 13.3125 80.9531 13.1719C80.7656 13.0313 80.5781 12.7969 80.3906 12.5156C80.2266 12.2344 80.0391 11.8594 79.8516 11.3906L76.6875 3.65625H76.5938V14.6016C76.5938 14.7656 76.5469 14.9297 76.4766 15.0469C76.4063 15.1641 76.2656 15.2344 76.0781 15.2344H74.5078C74.3203 15.2344 74.2031 15.1641 74.1094 15.0469C74.0156 14.9297 73.9922 14.7656 73.9922 14.6016V2.57812C73.9922 2.29687 74.0156 1.99219 74.0391 1.71094C74.0625 1.42969 74.1328 1.17187 74.2266 0.960937C74.3203 0.75 74.4844 0.5625 74.6719 0.445312C74.8828 0.304687 75.1641 0.234375 75.5391 0.234375H77.2031C77.5313 0.234375 77.7891 0.28125 77.9766 0.351563C78.1641 0.421875 78.3281 0.539063 78.4453 0.703125C78.5625 0.84375 78.6563 1.03125 78.7266 1.24219C78.7969 1.45313 78.8906 1.6875 79.0078 1.94531L82.2422 10.0547H82.4531L85.7344 1.94531C85.8516 1.6875 85.9453 1.45313 86.0156 1.24219C86.0859 1.03125 86.1797 0.84375 86.2969 0.703125C86.4141 0.5625 86.5781 0.445313 86.7656 0.351563C86.9531 0.257813 87.2109 0.234375 87.5391 0.234375H89.1797Z" fill="#962DFF"/>
<path d="M105.094 0.234375C105.164 0.234375 105.258 0.28125 105.398 0.351563C105.539 0.421875 105.609 0.609375 105.609 0.867187V2.27344C105.609 2.55469 105.539 2.71875 105.398 2.78906C105.258 2.85938 105.164 2.90625 105.094 2.90625H94.6406C94.5703 2.90625 94.4766 2.88281 94.3359 2.8125C94.2188 2.74219 94.1484 2.57813 94.1484 2.29688V0.890625C94.1484 0.609375 94.2188 0.421875 94.3359 0.351563C94.4531 0.28125 94.5703 0.234375 94.6406 0.234375H105.094Z" fill="#4A3AFF"/>
<path d="M96.8672 10.8516C96.8672 11.4609 97.0312 11.9063 97.3594 12.1406C97.6875 12.375 98.1094 12.5156 98.6719 12.5156H105.07C105.258 12.5156 105.398 12.5859 105.469 12.7031C105.539 12.8203 105.586 12.9609 105.586 13.1484V14.5781C105.586 14.7422 105.539 14.8828 105.469 15.0234C105.398 15.1641 105.258 15.2109 105.07 15.2109H98.625C97.7578 15.2109 97.0312 15.0938 96.4453 14.8359C95.8594 14.5781 95.4141 14.2266 95.0625 13.7813C94.7344 13.3125 94.4766 12.7734 94.3359 12.1172C94.1953 11.4609 94.125 10.7344 94.125 9.9375V7.52344C94.125 7.38281 94.1484 7.21875 94.1953 7.07813C94.2422 6.9375 94.3359 6.79688 94.4297 6.67969C94.5469 6.5625 94.6875 6.46875 94.875 6.39844C95.0625 6.32813 95.2969 6.28125 95.5781 6.28125H104.953C105.141 6.28125 105.258 6.35156 105.352 6.46875C105.422 6.58594 105.469 6.72656 105.469 6.91406V8.34375C105.469 8.50781 105.422 8.67188 105.352 8.78906C105.281 8.90625 105.141 8.97656 104.953 8.97656H96.8203V10.8516H96.8672Z" fill="#962DFF"/>
<path d="M116.648 0.234375C117.633 0.234375 118.43 0.398438 119.086 0.703125C119.719 1.00781 120.211 1.42969 120.586 1.99219C120.937 2.53125 121.195 3.1875 121.336 3.91406C121.477 4.66406 121.547 5.46094 121.547 6.30469V9.14063C121.547 10.0078 121.477 10.8281 121.336 11.5547C121.195 12.3047 120.937 12.9375 120.586 13.4766C120.211 14.0156 119.719 14.4375 119.086 14.7422C118.453 15.0469 117.633 15.2109 116.648 15.2109H110.461C110.297 15.2109 110.109 15.1875 109.922 15.1172C109.734 15.0469 109.57 14.9531 109.406 14.8359C109.266 14.7188 109.125 14.5781 109.031 14.4141C108.937 14.25 108.867 14.0625 108.867 13.875V1.45313C108.867 1.07813 109.008 0.773437 109.289 0.5625C109.57 0.328125 109.898 0.234375 110.297 0.234375H116.648ZM116.602 12.5156C117.117 12.5156 117.539 12.4453 117.82 12.2813C118.125 12.1172 118.336 11.9063 118.5 11.625C118.641 11.3438 118.758 11.0156 118.781 10.6406C118.828 10.2656 118.852 9.86719 118.852 9.42188V6.02344C118.852 5.57813 118.828 5.17969 118.781 4.80469C118.734 4.42969 118.641 4.10156 118.5 3.82031C118.359 3.53906 118.125 3.32813 117.82 3.16406C117.516 3 117.117 2.92969 116.602 2.92969H111.563V12.5156H116.602Z" fill="#962DFF"/>
<path d="M127.172 0.234375C127.242 0.234375 127.336 0.28125 127.477 0.351563C127.617 0.421875 127.688 0.609375 127.688 0.867188V14.5781C127.688 14.8594 127.617 15.0234 127.477 15.0938C127.336 15.1641 127.242 15.2109 127.172 15.2109H125.508C125.437 15.2109 125.32 15.1641 125.203 15.0938C125.062 15.0234 124.992 14.8359 124.992 14.5781V0.867188C124.992 0.585937 125.062 0.421875 125.203 0.351563C125.344 0.28125 125.437 0.234375 125.508 0.234375H127.172Z" fill="#962DFF"/>
<path d="M137.672 0.0234375C138 0.0234375 138.281 0.0703126 138.516 0.164063C138.75 0.257813 138.961 0.398438 139.125 0.5625C139.289 0.726563 139.453 0.914063 139.57 1.14844C139.687 1.38281 139.805 1.64063 139.922 1.92188L145.055 14.5078C145.102 14.625 145.125 14.7422 145.125 14.8125C145.125 14.9297 145.078 15.0234 145.008 15.0938C144.937 15.1641 144.82 15.2109 144.703 15.2109H142.758C142.5 15.2109 142.336 15.0703 142.242 14.8125L137.719 3.51563H137.648L135.281 9.46875H137.531C137.766 9.46875 137.953 9.58594 138.047 9.84375C138.094 9.9375 138.141 10.0547 138.211 10.2422C138.281 10.4063 138.375 10.5938 138.445 10.7813C138.516 10.9688 138.586 11.1328 138.656 11.2969C138.703 11.4609 138.75 11.5781 138.75 11.6719C138.75 11.8359 138.703 11.9766 138.586 12.0938C138.469 12.2109 138.328 12.2578 138.164 12.2578H134.18L133.148 14.8594C133.055 15.1172 132.891 15.2344 132.633 15.2344H130.641C130.359 15.2344 130.219 15.0938 130.219 14.8359C130.219 14.7188 130.242 14.6016 130.266 14.5313L135.352 1.92188C135.562 1.38281 135.844 0.914063 136.195 0.5625C136.547 0.210938 137.039 0.0234375 137.672 0.0234375Z" fill="#962DFF"/>
<path d="M144.469 22.1719C144.609 22.1719 144.68 22.1016 144.68 22.0078V21.9844C144.68 21.8906 144.609 21.8203 144.469 21.8203C144.328 21.8203 144.258 21.8672 144.258 21.9844V22.0078C144.258 22.1016 144.328 22.1719 144.469 22.1719ZM144.352 21.5391H144.563L144.586 18.7969H144.328L144.352 21.5391ZM143.227 19.4531C142.5 19.4766 142.008 19.7578 141.773 20.25V19.5H141.516V22.1719H141.773V21.0937C141.773 20.2734 142.266 19.7109 143.297 19.7109C143.461 19.7109 143.578 19.7109 143.695 19.7344L143.719 19.4766C143.578 19.4531 143.438 19.4297 143.227 19.4531ZM138.984 20.7656C138.539 20.7656 137.977 20.7187 137.555 20.6484C137.602 20.0625 138 19.7109 138.984 19.7109C139.828 19.7109 140.203 19.9219 140.203 20.2266V20.3203C140.203 20.6484 139.641 20.7656 138.984 20.7656ZM138.914 22.2187C139.898 22.2187 140.484 21.8437 140.531 21.2109H140.25C140.18 21.7266 139.687 21.9844 138.914 21.9844C138 21.9844 137.508 21.6562 137.531 20.8828C138 20.9531 138.539 21 138.961 21C139.781 21 140.461 20.7891 140.461 20.2969V20.2031C140.461 19.7344 139.875 19.4531 138.961 19.4531C137.766 19.4531 137.25 19.9453 137.25 20.7422V20.9297C137.273 21.75 137.789 22.2187 138.914 22.2187ZM134.836 19.4531C134.063 19.4531 133.57 19.7578 133.336 20.2266V18.6328H133.078V22.1484H133.336V21.0703C133.336 20.25 133.828 19.6875 134.836 19.6875C135.656 19.6875 136.102 20.0156 136.102 20.7656V22.1719H136.383V20.7187C136.383 19.9219 135.867 19.4531 134.836 19.4531ZM132.305 21.8906C132.141 21.9375 131.977 21.9609 131.836 21.9609C131.273 21.9609 131.18 21.6328 131.18 21.2344V19.7344H132.305V19.5H131.18V18.9609H130.922V19.5H130.453V19.7344H130.922V21.2344C130.922 21.5859 130.945 22.1953 131.859 22.1953C132.047 22.1953 132.211 22.1719 132.398 22.1016L132.305 21.8906ZM128.297 20.7656C127.852 20.7656 127.289 20.7187 126.867 20.6484C126.914 20.0625 127.313 19.7109 128.297 19.7109C129.141 19.7109 129.516 19.9219 129.516 20.2266V20.3203C129.516 20.6484 128.953 20.7656 128.297 20.7656ZM128.227 22.2187C129.211 22.2187 129.797 21.8437 129.844 21.2109H129.586C129.516 21.7266 129.023 21.9844 128.25 21.9844C127.336 21.9844 126.844 21.6562 126.867 20.8828C127.336 20.9531 127.875 21 128.297 21C129.117 21 129.797 20.7891 129.797 20.2969V20.2031C129.797 19.7344 129.211 19.4531 128.297 19.4531C127.102 19.4531 126.586 19.9453 126.586 20.7422V20.9297C126.586 21.75 127.102 22.2187 128.227 22.2187ZM124.008 21.9609C123.094 21.9609 122.625 21.6328 122.625 20.9062V20.7187C122.625 20.0156 123.07 19.7109 124.008 19.7109C124.828 19.7109 125.391 20.0391 125.391 20.7422V20.9297C125.367 21.6328 124.828 21.9609 124.008 21.9609ZM125.367 19.5V20.0391C125.133 19.6641 124.687 19.4297 123.984 19.4297C122.859 19.4297 122.344 19.8984 122.344 20.6953V20.9062C122.344 21.7031 122.859 22.2187 123.984 22.2187C124.664 22.2187 125.133 22.0078 125.367 21.6094V21.8672C125.367 22.4766 124.922 22.7812 123.938 22.7812C123.375 22.7812 123 22.6641 122.742 22.4297L122.578 22.6641C122.883 22.8984 123.328 23.0625 123.961 23.0625C125.25 23.0625 125.648 22.5703 125.648 21.8672V19.5H125.367ZM119.906 21.9609C118.922 21.9609 118.477 21.6328 118.477 20.9297V20.7422C118.477 20.0391 118.922 19.7109 119.906 19.7109C120.891 19.7109 121.336 20.0156 121.336 20.7187V20.9062C121.336 21.6328 120.867 21.9609 119.906 21.9609ZM119.906 22.2187C121.078 22.2187 121.617 21.7266 121.617 20.9062V20.7187C121.617 19.9219 121.102 19.4531 119.906 19.4531C118.734 19.4531 118.195 19.9219 118.195 20.7422V20.9297C118.195 21.75 118.711 22.2187 119.906 22.2187ZM117.844 18.9609H114.445V19.2187H116.016V22.1719H116.297V19.2187H117.867V18.9609H117.844ZM110.109 21.9609C109.195 21.9609 108.727 21.6328 108.727 20.9062V20.7187C108.727 20.0156 109.172 19.7109 110.109 19.7109C110.93 19.7109 111.492 20.0391 111.492 20.7422V20.9297C111.492 21.6328 110.93 21.9609 110.109 21.9609ZM111.492 19.5V20.0391C111.258 19.6641 110.812 19.4297 110.109 19.4297C108.984 19.4297 108.469 19.8984 108.469 20.6953V20.9062C108.469 21.7031 108.984 22.2187 110.109 22.2187C110.789 22.2187 111.258 22.0078 111.492 21.6094V21.8672C111.492 22.4766 111.047 22.7812 110.063 22.7812C109.5 22.7812 109.125 22.6641 108.867 22.4297L108.703 22.6641C109.008 22.8984 109.453 23.0625 110.086 23.0625C111.375 23.0625 111.773 22.5703 111.773 21.8672V19.5H111.492ZM106.031 19.4531C105.258 19.4531 104.766 19.7578 104.531 20.2266V19.5H104.273V22.1719H104.531V21.0937C104.531 20.2734 105.023 19.7109 106.031 19.7109C106.852 19.7109 107.297 20.0391 107.297 20.7891V22.1953H107.578V20.7422C107.578 19.9219 107.062 19.4531 106.031 19.4531ZM102.937 22.1719H103.195V19.5H102.937V22.1719ZM103.078 19.125C103.219 19.125 103.266 19.0547 103.266 18.9609V18.9375C103.266 18.8437 103.195 18.7969 103.078 18.7969C102.961 18.7969 102.891 18.8437 102.891 18.9375V18.9609C102.891 19.0547 102.961 19.125 103.078 19.125ZM101.883 19.4531C101.156 19.4766 100.664 19.7578 100.43 20.25V19.5H100.172V22.1719H100.43V21.0937C100.43 20.2734 100.922 19.7109 101.953 19.7109C102.117 19.7109 102.234 19.7109 102.352 19.7344L102.375 19.4766C102.258 19.4531 102.117 19.4297 101.883 19.4531ZM97.6406 20.7656C97.1953 20.7656 96.6328 20.7187 96.2109 20.6484C96.2578 20.0625 96.6563 19.7109 97.6406 19.7109C98.4844 19.7109 98.8594 19.9219 98.8594 20.2266V20.3203C98.8594 20.6484 98.3203 20.7656 97.6406 20.7656ZM97.5937 22.2187C98.5781 22.2187 99.1641 21.8437 99.2109 21.2109H98.9297C98.8594 21.7266 98.3672 21.9844 97.5937 21.9844C96.6797 21.9844 96.1875 21.6562 96.2109 20.8828C96.6797 20.9531 97.2188 21 97.6406 21C98.4609 21 99.1406 20.7891 99.1406 20.2969V20.2031C99.1406 19.7344 98.5547 19.4531 97.6406 19.4531C96.4453 19.4531 95.9297 19.9453 95.9297 20.7422V20.9297C95.9297 21.75 96.4687 22.2187 97.5937 22.2187ZM95.1562 19.5L93.8437 21.8906L92.5312 19.5H92.2266L93.7031 22.1719H94.0078L95.4844 19.5H95.1562ZM90.0469 21.9609C89.0625 21.9609 88.6172 21.6328 88.6172 20.9297V20.7422C88.6172 20.0391 89.0625 19.7109 90.0469 19.7109C91.0312 19.7109 91.4766 20.0156 91.4766 20.7187V20.9062C91.4766 21.6328 91.0078 21.9609 90.0469 21.9609ZM90.0469 22.2187C91.2187 22.2187 91.7578 21.7266 91.7578 20.9062V20.7187C91.7578 19.9219 91.2422 19.4531 90.0469 19.4531C88.8516 19.4531 88.3359 19.9219 88.3359 20.7422V20.9297C88.3359 21.75 88.875 22.2187 90.0469 22.2187ZM87.5859 21.1172H87.3047C87.2344 21.7031 86.7656 21.9609 85.8984 21.9609C84.9141 21.9609 84.4687 21.6328 84.4687 20.9297V20.7422C84.4687 20.0391 84.9141 19.7109 85.8984 19.7109C86.7422 19.7109 87.2109 19.9453 87.3047 20.4375H87.5859C87.5156 19.8047 86.9297 19.4531 85.8984 19.4531C84.7266 19.4531 84.1875 19.9453 84.1875 20.7422V20.9297C84.1875 21.7266 84.7031 22.2187 85.8984 22.2187C86.9766 22.2187 87.5156 21.7969 87.5859 21.1172ZM83.4375 20.3906V20.2266C83.4375 19.6875 82.9453 19.4297 81.9844 19.4297C80.9766 19.4297 80.4609 19.6641 80.4609 20.0859V20.2031C80.4609 20.6719 80.8359 20.8125 81.8906 20.9297C82.9219 21.0234 83.1328 21.1406 83.1328 21.4219V21.4922C83.1328 21.7969 82.7109 21.9609 81.8906 21.9609C81.0937 21.9609 80.7187 21.7734 80.7187 21.3516V21.1641H80.4375V21.3516C80.4375 21.9375 80.9297 22.1953 81.8906 22.1953C82.8516 22.1953 83.3906 21.9609 83.3906 21.5156V21.4219C83.3906 20.9297 83.0156 20.7891 81.8906 20.6719C80.9297 20.5547 80.7187 20.4609 80.7187 20.1797V20.1094C80.7187 19.8281 81.1406 19.6641 81.9844 19.6641C82.7578 19.6641 83.1562 19.8516 83.1562 20.2031V20.3672H83.4375V20.3906ZM79.3359 22.1719H79.5938V19.5H79.3359V22.1719ZM79.4766 19.125C79.6172 19.125 79.6641 19.0547 79.6641 18.9609V18.9375C79.6641 18.8437 79.5938 18.7969 79.4766 18.7969C79.3594 18.7969 79.2891 18.8437 79.2891 18.9375V18.9609C79.2891 19.0547 79.3594 19.125 79.4766 19.125ZM78.1406 20.6953C78.1406 21.5156 77.6953 21.9141 76.4062 21.9141H74.9297V19.2422H76.4062C77.7187 19.2422 78.1406 19.6406 78.1406 20.4609V20.6953ZM76.4062 18.9609H74.6719V22.1719H76.4062C77.9062 22.1719 78.4453 21.6328 78.4453 20.6953V20.4609C78.4453 19.5 77.9062 18.9609 76.4062 18.9609Z" fill="black"/>
</svg>
